SplineFontDB: 3.2
FontName: ClassWizMathX-Regular
FullName: ClassWiz Math X Regular
FamilyName: ClassWiz Math X
Weight: Regular
Copyright: 
Version: Version 1.000
ItalicAngle: 0
UnderlinePosition: -21
UnderlineWidth: 8
Ascent: 130
Descent: 10
InvalidEm: 0
sfntRevision: 0x00010000
LayerCount: 2
Layer: 0 0 "Back" 1
Layer: 1 0 "Fore" 0
XUID: [1021 199 1599025585 5107]
StyleMap: 0x0040
FSType: 0
OS2Version: 4
OS2_WeightWidthSlopeOnly: 0
OS2_UseTypoMetrics: 1
CreationTime: 1688717740
ModificationTime: 1689064224
PfmFamily: 81
TTFWeight: 400
TTFWidth: 5
LineGap: 30
VLineGap: 0
Panose: 0 0 0 0 0 0 0 0 0 0
OS2TypoAscent: 130
OS2TypoAOffset: 0
OS2TypoDescent: -10
OS2TypoDOffset: 0
OS2TypoLinegap: 30
OS2WinAscent: 150
OS2WinAOffset: 0
OS2WinDescent: 20
OS2WinDOffset: 0
HheadAscent: 130
HheadAOffset: 0
HheadDescent: -10
HheadDOffset: 0
OS2SubXSize: 110
OS2SubYSize: 130
OS2SubXOff: 0
OS2SubYOff: 5
OS2SupXSize: 110
OS2SupYSize: 130
OS2SupXOff: 0
OS2SupYOff: 15
OS2StrikeYSize: -10
OS2StrikeYPos: 54
OS2CapHeight: 120
OS2XHeight: 90
OS2Vendor: '    '
OS2CodePages: 00040007.00000000
OS2UnicodeRanges: a000023f.1a0638e9.0a000000.00000000
Lookup: 1 0 0 "'aalt' Access All Alternates lookup 0" { "'aalt' Access All Alternates lookup 0 subtable"  } ['aalt' ('DFLT' <'dflt' > 'hani' <'dflt' > 'kana' <'dflt' > 'latn' <'dflt' > ) ]
Lookup: 3 0 0 "'aalt' Access All Alternates lookup 1" { "'aalt' Access All Alternates lookup 1 subtable"  } ['aalt' ('DFLT' <'dflt' > 'hani' <'dflt' > 'kana' <'dflt' > 'latn' <'dflt' > ) ]
Lookup: 4 0 0 "'ccmp' Glyph Composition/Decomposition lookup 2" { "'ccmp' Glyph Composition/Decomposition lookup 2 subtable"  } ['ccmp' ('DFLT' <'dflt' > 'hani' <'dflt' > 'kana' <'dflt' > 'latn' <'dflt' > ) ]
Lookup: 1 0 0 "'ss01' Style Set 1 lookup 3" { "'ss01' Style Set 1 lookup 3 subtable"  } ['ss01' ('DFLT' <'dflt' > 'hani' <'dflt' > 'kana' <'dflt' > 'latn' <'dflt' > ) ]

StartChar: .notdef
Encoding: 65536 -1 0
Width: 110
GlyphClass: 1
Flags: MW
HStem: -10 10<10 90 10 100> 10 20<40 60 40 60> 60 10<40 60 50 60 50 70 50 60> 80 10<20 30 20 30 20 40> 110 10<10 90 10 10>
VStem: 0 10<0 0 0 110> 40 20<10 30 10 30 40 60 80 80 80 90> 90 10<0 110 110 110>
CounterMasks: 1 07
LayerCount: 2
Fore
SplineSet
0 -10 m 1
 0 120 l 1
 100 120 l 1
 100 -10 l 1
 0 -10 l 1
10 0 m 1
 90 0 l 1
 90 110 l 1
 10 110 l 1
 10 0 l 1
20 80 m 1
 20 90 l 1
 30 90 l 1
 30 100 l 1
 70 100 l 1
 70 90 l 1
 80 90 l 1
 80 70 l 1
 70 70 l 1
 70 60 l 1
 60 60 l 1
 60 40 l 1
 40 40 l 1
 40 60 l 1
 50 60 l 1
 50 70 l 1
 60 70 l 1
 60 90 l 1
 40 90 l 1
 40 80 l 1
 20 80 l 1
40 10 m 1
 40 30 l 1
 60 30 l 1
 60 10 l 1
 40 10 l 1
EndSplineSet
Validated: 1
EndChar

StartChar: exclam
Encoding: 33 33 4
Width: 110
GlyphClass: 2
Flags: MW
HStem: 20 100<40 60 40 60> 40 80<40 60 40 60>
VStem: 40 20<0 20 0 20 40 120>
LayerCount: 2
Fore
SplineSet
40 120 m 1x60
 60 120 l 1
 60 40 l 1
 40 40 l 1
 40 120 l 1x60
40 20 m 1xa0
 40 0 l 1
 60 0 l 1
 60 20 l 1
 40 20 l 1xa0
EndSplineSet
Validated: 9
AlternateSubs2: "'ssty' Math Script Style lookup 4 subtable" exclam.ssty exclam.ssty2
AlternateSubs2: "'aalt' Access All Alternates lookup 1 subtable" exclam.ssty exclam.ssty2
EndChar

StartChar: quotedbl
Encoding: 34 34 5
Width: 110
GlyphClass: 2
Flags: MW
HStem: 70 50<10 30 10 40 10 50 50 70> 90 30<10 20 10 40 10 50 50 60>
VStem: 10 30<70 120 80 120 90 120 80 120> 50 30<70 120 80 120 90 120 80 120>
LayerCount: 2
Fore
SplineSet
20 90 m 1x60
 10 90 l 1
 10 120 l 1
 40 120 l 1x60
 40 80 l 1
 30 80 l 1
 30 70 l 1xa0
 10 70 l 1
 10 80 l 1
 20 80 l 1
 20 90 l 1x60
60 90 m 1x70
 50 90 l 1
 50 120 l 1
 80 120 l 1x70
 80 80 l 1
 70 80 l 1
 70 70 l 1xb0
 50 70 l 1
 50 80 l 1
 60 80 l 1
 60 90 l 1x70
EndSplineSet
Validated: 1
AlternateSubs2: "'ssty' Math Script Style lookup 4 subtable" quotedbl.ssty quotedbl.ssty2
AlternateSubs2: "'aalt' Access All Alternates lookup 1 subtable" quotedbl.ssty quotedbl.ssty2
EndChar

StartChar: numbersign
Encoding: 35 35 6
Width: 110
GlyphClass: 2
Flags: MW
HStem: 0 40<20 30 10 40 20 20 60 70 60 60> 30 10<10 20 10 30 50 60 90 100> 80 10<20 30 20 40 60 70 100 110> 80 40<20 60 20 60 50 60 40 70 50 50 90 90 90 100>
VStem: 30 10 40 10 70 10 80 10
LayerCount: 2
Fore
SplineSet
10 40 m 1x69
 30 40 l 1
 30 80 l 1
 20 80 l 1
 20 90 l 1
 40 90 l 1x69
 40 120 l 1
 60 120 l 1x99
 60 90 l 1
 80 90 l 1xaa
 80 120 l 1
 100 120 l 1x99
 100 90 l 1
 110 90 l 1
 110 80 l 1
 90 80 l 1
 90 40 l 1
 100 40 l 1
 100 30 l 1
 80 30 l 1x69
 80 0 l 1
 60 0 l 1xa9
 60 30 l 1
 40 30 l 1x69
 40 0 l 1
 20 0 l 1xa9
 20 30 l 1
 10 30 l 1
 10 40 l 1x69
50 80 m 1xa6
 50 40 l 1
 70 40 l 1
 70 80 l 1
 50 80 l 1xa6
EndSplineSet
Validated: 1
AlternateSubs2: "'ssty' Math Script Style lookup 4 subtable" numbersign.ssty numbersign.ssty2
AlternateSubs2: "'aalt' Access All Alternates lookup 1 subtable" numbersign.ssty numbersign.ssty2
EndChar

StartChar: dollar
Encoding: 36 36 7
Width: 110
GlyphClass: 2
Flags: MW
HStem: 0 20<50 50 60 60> 10 10<10 30 40 50 20 30 60 70> 50 10<10 40 20 40 20 40 20 50> 60 10<20 20 40 40 70 70 90 90> 100 10<10 50 20 50 40 40 40 50 60 70> 100 20<40 60 40 60 50 60 50 70>
VStem: 10 10<10 20 40 50> 50 10<0 10 0 10 20 50 70 100 110 120> 90 10<10 50 20 60 20 50 70 80 80 80 100 110>
CounterMasks: 1 0380
LayerCount: 2
Fore
SplineSet
10 70 m 1x9780
 10 100 l 1
 20 100 l 1
 20 110 l 1
 50 110 l 1x9b80
 50 120 l 1
 60 120 l 1x9780
 60 110 l 1
 80 110 l 1
 80 100 l 1
 90 100 l 1
 90 110 l 1
 100 110 l 1x9b80
 100 70 l 1
 90 70 l 1
 90 80 l 1
 80 80 l 1
 80 90 l 1
 70 90 l 1
 70 100 l 1
 60 100 l 1
 60 70 l 1
 70 70 l 1x9780
 70 60 l 1
 90 60 l 1
 90 50 l 1
 100 50 l 1
 100 20 l 1
 90 20 l 1
 90 10 l 1
 60 10 l 1x6780
 60 0 l 1
 50 0 l 1x9780
 50 10 l 1
 30 10 l 1
 30 20 l 1
 20 20 l 1
 20 10 l 1
 10 10 l 1x5780
 10 50 l 1
 20 50 l 1
 20 40 l 1
 30 40 l 1
 30 30 l 1
 40 30 l 1
 40 20 l 1
 50 20 l 1
 50 50 l 1
 40 50 l 1xa780
 40 60 l 1
 20 60 l 1
 20 70 l 1
 10 70 l 1x9780
60 20 m 1
 70 20 l 1
 70 30 l 1
 80 30 l 1
 80 40 l 1
 70 40 l 1
 70 50 l 1
 60 50 l 1xa780
 60 20 l 1
40 80 m 1
 40 70 l 1
 50 70 l 1x9780
 50 100 l 1
 40 100 l 1
 40 90 l 1
 30 90 l 1
 30 80 l 1
 40 80 l 1
EndSplineSet
Validated: 1
EndChar

StartChar: percent
Encoding: 37 37 8
Width: 110
GlyphClass: 2
Flags: MW
HStem: 0 10<70 80 50 60> 0 20<10 20 10 30 10 20> 0 40<20 30 20 30 10 30 70 80 20 60> 10 30<50 60 20 50 70 80 90 100> 40 10<20 40 30 40 30 50 30 40 50 60 70 70 70 80> 50 20<30 40 10 40 10 50 10 60 60 70> 70 10<20 30 0 10 40 50> 80 30<0 10 0 10 20 30 0 30 40 50> 80 40<0 40 0 40 20 30 30 30 10 50 10 40 10 60 10 60 10 70 70 80> 100 20<80 80 80 90> 110 10<0 40 10 40 20 20 20 30 10 50>
VStem: 10 10<0 40 20 40> 30 10<0 40 20 50> 40 10<20 40 20 20 70 80> 50 10<0 40 40 50 80 100> 60 10<0 10 10 10> 80 10<0 40>
LayerCount: 2
Fore
SplineSet
10 80 m 1x8a3a80
 0 80 l 1
 0 110 l 1
 10 110 l 1
 10 120 l 1
 40 120 l 1x8a9a80
 40 110 l 1
 50 110 l 1
 50 80 l 1x851a80
 60 80 l 1
 60 100 l 1
 70 100 l 1
 70 120 l 1
 90 120 l 1
 90 100 l 1
 80 100 l 1
 80 80 l 1
 70 80 l 1
 70 70 l 1x8a5980
 60 70 l 1
 60 50 l 1
 90 50 l 1
 90 40 l 1
 100 40 l 1x243a80
 100 10 l 1
 90 10 l 1
 90 0 l 1
 60 0 l 1
 60 10 l 1
 50 10 l 1x843a80
 50 40 l 1
 40 40 l 1x243580
 40 20 l 1
 30 20 l 1
 30 0 l 1
 10 0 l 1
 10 20 l 1
 20 20 l 1x443a80
 20 40 l 1
 30 40 l 1
 30 50 l 1
 40 50 l 1x243a80
 40 70 l 1
 10 70 l 1
 10 80 l 1x8a3a80
30 80 m 1
 30 110 l 1
 20 110 l 1x129980
 20 80 l 1
 30 80 l 1
70 10 m 1
 80 10 l 1
 80 40 l 1
 70 40 l 1
 70 10 l 1
50 40 m 1x8a3a80
 60 40 l 1
 60 50 l 1
 50 50 l 1
 50 40 l 1x8a3a80
40 80 m 1
 40 70 l 1
 50 70 l 1
 50 80 l 1
 40 80 l 1
EndSplineSet
Validated: 5
AlternateSubs2: "'ssty' Math Script Style lookup 4 subtable" percent.ssty percent.ssty2
AlternateSubs2: "'aalt' Access All Alternates lookup 1 subtable" percent.ssty percent.ssty2
EndChar

StartChar: ampersand
Encoding: 38 38 9
Width: 110
GlyphClass: 2
Flags: MW
HStem: 0 10<20 40 0 10 80 90> 0 40<30 40 30 50 10 40 80 90 30 70> 10 10<20 50 40 50 40 50 40 70 90 100> 60 10<10 20 10 20 60 70 90 90 90 100> 70 10<30 50 40 50 40 50 40 60 60 70> 110 10<10 60 20 60 30 50 30 30 20 70>
VStem: 10 10<0 50 10 50 10 60> 20 10<40 50 40 50> 40 10<0 20> 50 10<60 70 60 70> 70 10<0 20 10 20 10 30 10 20>
CounterMasks: 1 36a0
LayerCount: 2
Fore
SplineSet
10 10 m 1x9660
 0 10 l 1
 0 50 l 1
 10 50 l 1
 10 60 l 1
 20 60 l 1x96a0
 20 70 l 1
 10 70 l 1
 10 110 l 1
 20 110 l 1
 20 120 l 1
 60 120 l 1
 60 110 l 1
 70 110 l 1
 70 80 l 1
 60 80 l 1x8e60
 60 70 l 1
 100 70 l 1
 100 60 l 1
 90 60 l 1
 90 40 l 1
 80 40 l 1x5660
 80 30 l 1
 70 30 l 1
 70 20 l 1
 80 20 l 1
 80 10 l 1
 90 10 l 1
 90 20 l 1
 100 20 l 1x3660
 100 10 l 1
 90 10 l 1
 90 0 l 1
 70 0 l 1
 70 10 l 1
 50 10 l 1
 50 0 l 1
 10 0 l 1
 10 10 l 1x9660
40 10 m 1
 40 20 l 1
 50 20 l 1x8da0
 50 30 l 1
 40 30 l 1
 40 40 l 1
 30 40 l 1
 30 50 l 1x55a0
 20 50 l 1
 20 10 l 1
 40 10 l 1
30 110 m 1
 30 70 l 1
 40 70 l 1
 40 80 l 1
 50 80 l 1
 50 110 l 1
 30 110 l 1
50 60 m 1x5660
 40 60 l 1
 40 50 l 1x96a0
 50 50 l 1
 50 40 l 1
 70 40 l 1
 70 60 l 1
 60 60 l 1
 60 70 l 1
 50 70 l 1
 50 60 l 1x5660
EndSplineSet
Validated: 5
EndChar

StartChar: quotesingle
Encoding: 39 39 10
Width: 110
GlyphClass: 2
Flags: MW
HStem: 70 50<30 50 30 60> 90 30<30 40 30 60>
VStem: 30 30<70 120 80 120 90 120 80 120>
LayerCount: 2
Fore
SplineSet
40 90 m 1x60
 30 90 l 1
 30 120 l 1
 60 120 l 1x60
 60 80 l 1
 50 80 l 1
 50 70 l 1xa0
 30 70 l 1
 30 80 l 1
 40 80 l 1
 40 90 l 1x60
EndSplineSet
Validated: 1
AlternateSubs2: "'ssty' Math Script Style lookup 4 subtable" quotesingle.ssty quotesingle.ssty2
AlternateSubs2: "'aalt' Access All Alternates lookup 1 subtable" quotesingle.ssty quotesingle.ssty2
EndChar

StartChar: parenleft
Encoding: 40 40 11
Width: 110
GlyphClass: 2
Flags: MW
IsExtendedShape: 1
GlyphVariantsVertical: parenleft parenleft.v1 parenleft.v2 parenleft.v3 parenleft.v4 parenleft.v5 parenleft.v6 parenleft.v7
GlyphCompositionVertical: 3  uni239D%0,0,45,210 uni239C%1,90,90,90 uni239B%0,45,0,210
HStem: 0 10<70 80 50 60> 40 40<30 40 30 40 50 60 30 60> 110 10<50 80 60 80 70 80 70 70>
VStem: 40 10<10 40>
CounterMasks: 1 e0
LayerCount: 2
Fore
SplineSet
80 120 m 1
 80 110 l 1
 70 110 l 1
 70 100 l 1
 60 100 l 1
 60 80 l 1
 50 80 l 1
 50 40 l 1
 60 40 l 1
 60 20 l 1
 70 20 l 1
 70 10 l 1
 80 10 l 1
 80 0 l 1
 60 0 l 1
 60 10 l 1
 50 10 l 1
 50 20 l 1
 40 20 l 1xb0
 40 40 l 1
 30 40 l 1
 30 80 l 1
 40 80 l 1xf0
 40 100 l 1
 50 100 l 1
 50 110 l 1
 60 110 l 1
 60 120 l 1
 80 120 l 1
EndSplineSet
Validated: 1
AlternateSubs2: "'ssty' Math Script Style lookup 4 subtable" parenleft.ssty parenleft.ssty2
AlternateSubs2: "'aalt' Access All Alternates lookup 1 subtable" parenleft.ssty parenleft.ssty2
EndChar

StartChar: parenright
Encoding: 41 41 12
Width: 110
GlyphClass: 2
Flags: MW
IsExtendedShape: 1
GlyphVariantsVertical: parenright parenright.v1 parenright.v2 parenright.v3 parenright.v4 parenright.v5 parenright.v6 parenright.v7
GlyphCompositionVertical: 3  uni23A0%0,0,45,210 uni239F%1,90,90,90 uni239E%0,45,0,210
HStem: 0 10<30 40 30 50 30 40> 40 40<50 60 50 60 70 80 50 70> 110 10<30 40 30 50 30 60>
VStem: 60 10<10 40 20 80>
CounterMasks: 1 e0
LayerCount: 2
Fore
SplineSet
30 120 m 1
 50 120 l 1
 50 110 l 1
 60 110 l 1
 60 100 l 1
 70 100 l 1xb0
 70 80 l 1
 80 80 l 1
 80 40 l 1
 70 40 l 1xf0
 70 20 l 1
 60 20 l 1
 60 10 l 1
 50 10 l 1
 50 0 l 1
 30 0 l 1
 30 10 l 1
 40 10 l 1
 40 20 l 1
 50 20 l 1
 50 40 l 1
 60 40 l 1
 60 80 l 1
 50 80 l 1
 50 100 l 1
 40 100 l 1
 40 110 l 1
 30 110 l 1
 30 120 l 1
EndSplineSet
Validated: 1
AlternateSubs2: "'ssty' Math Script Style lookup 4 subtable" parenright.ssty parenright.ssty2
AlternateSubs2: "'aalt' Access All Alternates lookup 1 subtable" parenright.ssty parenright.ssty2
EndChar

StartChar: asterisk
Encoding: 42 42 13
Width: 110
GlyphClass: 2
Flags: MW
HStem: 50 20<30 40 30 40 60 70>
VStem: 40 20<40 50 40 50 70 80>
LayerCount: 2
Fore
SplineSet
30 70 m 1
 40 70 l 1
 40 80 l 1
 60 80 l 1
 60 70 l 1
 70 70 l 1
 70 50 l 1
 60 50 l 1
 60 40 l 1
 40 40 l 1
 40 50 l 1
 30 50 l 1
 30 70 l 1
EndSplineSet
Validated: 1
AlternateSubs2: "'ssty' Math Script Style lookup 4 subtable" asterisk.ssty asterisk.ssty2
AlternateSubs2: "'aalt' Access All Alternates lookup 1 subtable" asterisk.ssty asterisk.ssty2
EndChar

StartChar: plus
Encoding: 43 43 14
Width: 110
GlyphClass: 2
Flags: MW
HStem: 50 20<0 40 0 40 60 100>
VStem: 40 20<10 50 10 50 70 110>
LayerCount: 2
Fore
SplineSet
40 110 m 1
 60 110 l 1
 60 70 l 1
 100 70 l 1
 100 50 l 1
 60 50 l 1
 60 10 l 1
 40 10 l 1
 40 50 l 1
 0 50 l 1
 0 70 l 1
 40 70 l 1
 40 110 l 1
EndSplineSet
Validated: 1
AlternateSubs2: "'ssty' Math Script Style lookup 4 subtable" plus.ssty plus.ssty2
AlternateSubs2: "'aalt' Access All Alternates lookup 1 subtable" plus.ssty plus.ssty2
EndChar

StartChar: comma
Encoding: 44 44 15
Width: 110
GlyphClass: 2
Flags: MW
HStem: -10 10<20 30 20 40 20 30> 10 30<20 30 20 50>
VStem: 20 30<-10 40 0 40 10 40 0 40>
LayerCount: 2
Fore
SplineSet
30 10 m 1
 20 10 l 1
 20 40 l 1
 50 40 l 1xe0
 50 0 l 1
 40 0 l 1
 40 -10 l 1xa0
 20 -10 l 1
 20 0 l 1
 30 0 l 1
 30 10 l 1
EndSplineSet
Validated: 1
AlternateSubs2: "'ssty' Math Script Style lookup 4 subtable" comma.ssty comma.ssty2
AlternateSubs2: "'aalt' Access All Alternates lookup 1 subtable" comma.ssty comma.ssty2
EndChar

StartChar: hyphen
Encoding: 45 45 16
Width: 110
GlyphClass: 2
Flags: W
HStem: 50 20<20 80>
LayerCount: 2
Fore
SplineSet
20 50 m 1
 20 70 l 1
 80 70 l 1
 80 50 l 1
 20 50 l 1
EndSplineSet
Validated: 1
AlternateSubs2: "'ssty' Math Script Style lookup 4 subtable" hyphen.ssty hyphen.ssty2
AlternateSubs2: "'aalt' Access All Alternates lookup 1 subtable" hyphen.ssty hyphen.ssty2
EndChar

StartChar: period
Encoding: 46 46 17
Width: 110
GlyphClass: 2
Flags: MW
HStem: 0 30<20 50 20 50>
VStem: 20 30<0 30 0 30>
LayerCount: 2
Fore
SplineSet
20 0 m 1
 20 30 l 1
 50 30 l 1
 50 0 l 1
 20 0 l 1
EndSplineSet
Validated: 1
AlternateSubs2: "'ssty' Math Script Style lookup 4 subtable" period.ssty period.ssty2
AlternateSubs2: "'aalt' Access All Alternates lookup 1 subtable" period.ssty period.ssty2
EndChar

StartChar: slash
Encoding: 47 47 18
Width: 110
GlyphClass: 2
Flags: MW
HStem: 0 20<20 30 20 30 20 40> 20 30<20 40 30 40 30 40 30 50> 50 20<30 50 40 50 40 50 40 60> 70 30<40 60 50 60 50 60 50 70> 100 20<50 80 60 80 70 70 70 80>
VStem: 30 10<0 50> 40 10<0 50 20 70> 50 10<20 70 50 100> 60 10<50 100 70 120>
CounterMasks: 1 a8
LayerCount: 2
Fore
SplineSet
20 0 m 1x8c
 20 20 l 1
 30 20 l 1x8c
 30 50 l 1
 40 50 l 1x4a
 40 70 l 1
 50 70 l 1xad
 50 100 l 1
 60 100 l 1x9480
 60 120 l 1
 80 120 l 1
 80 100 l 1
 70 100 l 1x8c80
 70 70 l 1
 60 70 l 1x95
 60 50 l 1
 50 50 l 1xaa
 50 20 l 1
 40 20 l 1x4c
 40 0 l 1
 20 0 l 1x8c
EndSplineSet
Validated: 1
AlternateSubs2: "'ssty' Math Script Style lookup 4 subtable" slash.ssty slash.ssty2
AlternateSubs2: "'aalt' Access All Alternates lookup 1 subtable" slash.ssty slash.ssty2
EndChar

StartChar: zero
Encoding: 48 48 19
Width: 110
GlyphClass: 2
Flags: MW
HStem: 0 10<40 70 20 30> 30 60<10 20 10 20 90 100> 110 10<20 80 30 80 40 40 40 70 30 90>
VStem: 20 10<20 30 30 30 90 100> 80 10<0 30 20 30 90 100 100 100>
CounterMasks: 1 e0
LayerCount: 2
Fore
SplineSet
10 30 m 1
 10 90 l 1
 20 90 l 1
 20 110 l 1
 30 110 l 1
 30 120 l 1
 80 120 l 1
 80 110 l 1
 90 110 l 1
 90 90 l 1
 100 90 l 1
 100 30 l 1
 90 30 l 1
 90 10 l 1
 80 10 l 1
 80 0 l 1
 30 0 l 1
 30 10 l 1
 20 10 l 1
 20 30 l 1
 10 30 l 1
30 20 m 1
 40 20 l 1
 40 10 l 1
 70 10 l 1
 70 20 l 1
 80 20 l 1
 80 100 l 1
 70 100 l 1
 70 110 l 1
 40 110 l 1
 40 100 l 1
 30 100 l 1
 30 20 l 1
EndSplineSet
Validated: 1
AlternateSubs2: "'ssty' Math Script Style lookup 4 subtable" zero.ssty zero.ssty2
AlternateSubs2: "'aalt' Access All Alternates lookup 1 subtable" zero.ssty zero.ssty2
EndChar

StartChar: one
Encoding: 49 49 20
Width: 110
GlyphClass: 2
Flags: MW
HStem: 0 10<20 40 20 40 60 80> 100 10<20 40 20 40> 100 20<20 60>
VStem: 40 20<10 100 100 100 110 120 10 120>
LayerCount: 2
Fore
SplineSet
20 0 m 1xb0
 20 10 l 1
 40 10 l 1
 40 100 l 1xb0
 20 100 l 1
 20 110 l 1xd0
 40 110 l 1
 40 120 l 1
 60 120 l 1
 60 10 l 1
 80 10 l 1
 80 0 l 1
 20 0 l 1xb0
EndSplineSet
Validated: 1
AlternateSubs2: "'ssty' Math Script Style lookup 4 subtable" one.ssty one.ssty2
AlternateSubs2: "'aalt' Access All Alternates lookup 1 subtable" one.ssty one.ssty2
EndChar

StartChar: two
Encoding: 50 50 21
Width: 110
GlyphClass: 2
Flags: MW
HStem: 0 20<10 20 10 20 40 90> 50 10<40 70 50 70 60 60 60 70 50 80> 110 10<20 80 30 80 40 70 40 40 30 90>
VStem: 20 10<20 40 30 40> 30 10<20 40> 50 10<30 50 40 60> 80 10<60 60 70 70 100 100 110 110>
LayerCount: 2
Fore
SplineSet
10 0 m 1xaa
 10 20 l 1
 20 20 l 1
 20 30 l 1
 30 30 l 1
 30 40 l 1
 40 40 l 1
 40 50 l 1
 50 50 l 1
 50 60 l 1xee
 70 60 l 1
 70 70 l 1
 80 70 l 1
 80 100 l 1
 70 100 l 1
 70 110 l 1
 40 110 l 1
 40 100 l 1
 30 100 l 1
 30 80 l 1
 10 80 l 1xf2
 10 100 l 1
 20 100 l 1
 20 110 l 1
 30 110 l 1
 30 120 l 1
 80 120 l 1
 80 110 l 1
 90 110 l 1
 90 100 l 1
 100 100 l 1
 100 70 l 1
 90 70 l 1
 90 60 l 1
 80 60 l 1
 80 50 l 1xea
 60 50 l 1
 60 40 l 1
 50 40 l 1
 50 30 l 1
 40 30 l 1
 40 20 l 1
 90 20 l 1
 90 30 l 1
 100 30 l 1
 100 0 l 1
 10 0 l 1xaa
EndSplineSet
Validated: 1
AlternateSubs2: "'ssty' Math Script Style lookup 4 subtable" two.ssty two.ssty2
AlternateSubs2: "'aalt' Access All Alternates lookup 1 subtable" two.ssty two.ssty2
EndChar

StartChar: three
Encoding: 51 51 22
Width: 110
GlyphClass: 2
Flags: MW
HStem: 0 10<40 70 10 20> 60 10<30 70 30 70 80 90> 70 10<30 80 70 80 70 80 70 90> 110 10<10 80 20 80 40 70 40 40 20 90>
VStem: 10 20<20 30 20 30 20 30 90 100> 80 10<0 20 10 50>
LayerCount: 2
Fore
SplineSet
10 30 m 1xdc
 30 30 l 1
 30 20 l 1
 40 20 l 1
 40 10 l 1
 70 10 l 1
 70 20 l 1
 80 20 l 1
 80 50 l 1
 70 50 l 1
 70 60 l 1
 30 60 l 1
 30 70 l 1
 70 70 l 1
 70 80 l 1
 80 80 l 1
 80 100 l 1
 70 100 l 1
 70 110 l 1
 40 110 l 1
 40 100 l 1
 30 100 l 1
 30 90 l 1
 10 90 l 1
 10 110 l 1
 20 110 l 1
 20 120 l 1
 80 120 l 1
 80 110 l 1
 90 110 l 1
 90 100 l 1
 100 100 l 1xdc
 100 80 l 1
 90 80 l 1
 90 70 l 1
 80 70 l 1
 80 60 l 1
 90 60 l 1
 90 50 l 1
 100 50 l 1xbc
 100 20 l 1
 90 20 l 1
 90 10 l 1
 80 10 l 1
 80 0 l 1
 20 0 l 1
 20 10 l 1
 10 10 l 1
 10 30 l 1xdc
EndSplineSet
Validated: 1
AlternateSubs2: "'ssty' Math Script Style lookup 4 subtable" three.ssty three.ssty2
AlternateSubs2: "'aalt' Access All Alternates lookup 1 subtable" three.ssty three.ssty2
EndChar

StartChar: four
Encoding: 52 52 23
Width: 110
GlyphClass: 2
Flags: MW
HStem: 0 10<50 60 80 90 50 60> 0 40<50 60 80 90 50 50> 30 10<10 20 30 60 10 20 80 100> 60 20<20 40 30 40 30 40 30 40> 100 20<40 80 50 80 50 80 50 80>
VStem: 20 10<40 60 40 60> 30 10<40 80 60 80 60 80> 40 10<80 100> 60 20<10 30 10 30 40 100 100 100 110 120>
LayerCount: 2
Fore
SplineSet
10 40 m 1xbd80
 20 40 l 1
 20 60 l 1xbd80
 30 60 l 1
 30 80 l 1xba80
 40 80 l 1
 40 100 l 1
 50 100 l 1
 50 110 l 1
 60 110 l 1
 60 120 l 1
 80 120 l 1
 80 40 l 1
 100 40 l 1
 100 30 l 1
 80 30 l 1
 80 10 l 1
 90 10 l 1
 90 0 l 1
 50 0 l 1
 50 10 l 1
 60 10 l 1
 60 30 l 1
 10 30 l 1
 10 40 l 1xbd80
30 60 m 1
 30 40 l 1x5a80
 60 40 l 1
 60 100 l 1
 50 100 l 1
 50 80 l 1x5d80
 40 80 l 1
 40 60 l 1xba80
 30 60 l 1
EndSplineSet
Validated: 5
AlternateSubs2: "'ssty' Math Script Style lookup 4 subtable" four.ssty four.ssty2
AlternateSubs2: "'aalt' Access All Alternates lookup 1 subtable" four.ssty four.ssty2
EndChar

StartChar: five
Encoding: 53 53 24
Width: 110
GlyphClass: 2
Flags: MW
HStem: 0 10<40 70 10 20> 60 10<10 30 10 20> 70 10<30 70 30 80 30 90> 100 20<30 90 30 30>
VStem: 10 10<0 30 50 60> 20 10<80 100> 80 10<0 20 10 60>
LayerCount: 2
Fore
SplineSet
20 10 m 1x96
 10 10 l 1
 10 30 l 1
 30 30 l 1
 30 20 l 1
 40 20 l 1
 40 10 l 1
 70 10 l 1
 70 20 l 1
 80 20 l 1
 80 60 l 1
 70 60 l 1
 70 70 l 1xb6
 30 70 l 1
 30 60 l 1
 20 60 l 1
 20 50 l 1
 10 50 l 1xda
 10 70 l 1
 20 70 l 1xd6
 20 120 l 1
 100 120 l 1
 100 110 l 1
 90 110 l 1
 90 100 l 1
 30 100 l 1x96
 30 80 l 1
 80 80 l 1
 80 70 l 1
 90 70 l 1
 90 60 l 1
 100 60 l 1xb6
 100 20 l 1
 90 20 l 1
 90 10 l 1
 80 10 l 1
 80 0 l 1
 20 0 l 1
 20 10 l 1x96
EndSplineSet
Validated: 1
AlternateSubs2: "'ssty' Math Script Style lookup 4 subtable" five.ssty five.ssty2
AlternateSubs2: "'aalt' Access All Alternates lookup 1 subtable" five.ssty five.ssty2
EndChar

StartChar: six
Encoding: 54 54 25
Width: 110
GlyphClass: 2
Flags: MW
HStem: 0 10<40 70 20 30> 0 80<40 80 40 80 30 80> 70 50<30 40 40 40 40 70 40 40 80 90 30 90> 110 10<20 90 30 90 40 40 40 70 30 100>
VStem: 10 20<20 60 70 100> 80 10<0 20 10 60>
LayerCount: 2
Fore
SplineSet
20 20 m 1xac
 10 20 l 1
 10 100 l 1
 20 100 l 1
 20 110 l 1
 30 110 l 1
 30 120 l 1
 90 120 l 1
 90 110 l 1
 100 110 l 1
 100 90 l 1
 80 90 l 1
 80 100 l 1
 70 100 l 1
 70 110 l 1
 40 110 l 1x9c
 40 100 l 1
 30 100 l 1
 30 70 l 1
 40 70 l 1xac
 40 80 l 1
 80 80 l 1x5c
 80 70 l 1
 90 70 l 1
 90 60 l 1
 100 60 l 1
 100 20 l 1
 90 20 l 1
 90 10 l 1
 80 10 l 1
 80 0 l 1
 30 0 l 1
 30 10 l 1
 20 10 l 1
 20 20 l 1xac
30 60 m 1
 30 20 l 1
 40 20 l 1
 40 10 l 1
 70 10 l 1
 70 20 l 1
 80 20 l 1
 80 60 l 1
 70 60 l 1
 70 70 l 1
 40 70 l 1xac
 40 60 l 1
 30 60 l 1
EndSplineSet
Validated: 5
AlternateSubs2: "'ssty' Math Script Style lookup 4 subtable" six.ssty six.ssty2
AlternateSubs2: "'aalt' Access All Alternates lookup 1 subtable" six.ssty six.ssty2
EndChar

StartChar: seven
Encoding: 55 55 26
Width: 110
GlyphClass: 2
Flags: MW
HStem: 0 40<40 50 40 60 40 50> 40 20<40 60 50 60 50 70 50 60> 80 10<60 90 70 90 80 90 80 80> 100 20<20 90 20 20>
VStem: 10 10<80 100 80 120> 50 10<0 60> 90 10<80 120 90 100 100 100>
CounterMasks: 1 0e
LayerCount: 2
Fore
SplineSet
10 120 m 1x9a
 100 120 l 1x9a
 100 90 l 1
 90 90 l 1
 90 80 l 1
 80 80 l 1
 80 60 l 1
 70 60 l 1xba
 70 40 l 1
 60 40 l 1x5e
 60 0 l 1
 40 0 l 1
 40 40 l 1
 50 40 l 1x9e
 50 60 l 1
 60 60 l 1x5e
 60 80 l 1
 70 80 l 1
 70 90 l 1xbe
 90 90 l 1
 90 100 l 1
 20 100 l 1x9a
 20 80 l 1
 10 80 l 1xba
 10 120 l 1x9a
EndSplineSet
Validated: 5
AlternateSubs2: "'ssty' Math Script Style lookup 4 subtable" seven.ssty seven.ssty2
AlternateSubs2: "'aalt' Access All Alternates lookup 1 subtable" seven.ssty seven.ssty2
EndChar

StartChar: eight
Encoding: 56 56 27
Width: 110
GlyphClass: 2
Flags: MW
HStem: 0 10<40 70 20 30> 0 70<40 80 10 80 10 30> 20 30<10 20 10 20 30 40 40 40 90 100> 50 70<10 80 20 80 30 70 30 80 30 100 30 100> 70 30<10 20 10 20 70 80 90 100> 110 10<20 80 30 80 40 40 40 70 30 90>
VStem: 20 10<0 20> 80 10<0 20 10 40>
LayerCount: 2
Fore
SplineSet
20 20 m 1xc7
 10 20 l 1xaf
 10 50 l 1
 20 50 l 1x93
 20 70 l 1
 10 70 l 1
 10 100 l 1
 20 100 l 1
 20 110 l 1
 30 110 l 1
 30 120 l 1
 80 120 l 1
 80 110 l 1
 90 110 l 1
 90 100 l 1
 100 100 l 1xaf
 100 70 l 1
 90 70 l 1x47
 90 50 l 1
 100 50 l 1
 100 20 l 1
 90 20 l 1xaf
 90 10 l 1
 80 10 l 1
 80 0 l 1
 30 0 l 1
 30 10 l 1
 20 10 l 1
 20 20 l 1xc7
30 50 m 1
 30 20 l 1
 40 20 l 1
 40 10 l 1
 70 10 l 1
 70 20 l 1
 80 20 l 1
 80 40 l 1
 70 40 l 1
 70 50 l 1
 30 50 l 1
30 80 m 1
 40 80 l 1
 40 70 l 1
 80 70 l 1
 80 100 l 1
 70 100 l 1
 70 110 l 1
 40 110 l 1
 40 100 l 1
 30 100 l 1
 30 80 l 1
EndSplineSet
Validated: 1
AlternateSubs2: "'ssty' Math Script Style lookup 4 subtable" eight.ssty eight.ssty2
AlternateSubs2: "'aalt' Access All Alternates lookup 1 subtable" eight.ssty eight.ssty2
EndChar

StartChar: nine
Encoding: 57 57 28
Width: 110
GlyphClass: 2
Flags: MW
HStem: 0 10<10 20 40 70> 0 50<20 30 20 30 40 70 70 80> 40 80<30 70 30 80> 110 10<20 80 30 80 40 40 40 70 30 90>
VStem: 20 10<50 50 60 60 100 100 110 110> 80 20<0 100 20 50 50 50 60 100 20 100 20 110 20 120>
LayerCount: 2
Fore
SplineSet
20 0 m 1x9c
 20 10 l 1
 10 10 l 1
 10 30 l 1
 30 30 l 1
 30 20 l 1
 40 20 l 1
 40 10 l 1
 70 10 l 1x9c
 70 20 l 1
 80 20 l 1
 80 50 l 1
 70 50 l 1x5c
 70 40 l 1
 30 40 l 1xac
 30 50 l 1
 20 50 l 1x5c
 20 60 l 1
 10 60 l 1
 10 100 l 1
 20 100 l 1
 20 110 l 1
 30 110 l 1
 30 120 l 1
 80 120 l 1
 80 110 l 1
 90 110 l 1
 90 100 l 1
 100 100 l 1
 100 20 l 1
 90 20 l 1
 90 10 l 1
 80 10 l 1
 80 0 l 1
 20 0 l 1x9c
30 100 m 1
 30 60 l 1
 40 60 l 1
 40 50 l 1
 70 50 l 1x5c
 70 60 l 1
 80 60 l 1
 80 100 l 1
 70 100 l 1
 70 110 l 1
 40 110 l 1
 40 100 l 1
 30 100 l 1
EndSplineSet
Validated: 5
AlternateSubs2: "'ssty' Math Script Style lookup 4 subtable" nine.ssty nine.ssty2
AlternateSubs2: "'aalt' Access All Alternates lookup 1 subtable" nine.ssty nine.ssty2
EndChar

StartChar: colon
Encoding: 58 58 29
Width: 110
GlyphClass: 2
Flags: MW
HStem: 10 30<40 70 40 70> 70 30<40 70 40 70>
VStem: 40 30<10 40 10 40 70 100>
LayerCount: 2
Fore
SplineSet
40 10 m 1
 40 40 l 1
 70 40 l 1
 70 10 l 1
 40 10 l 1
40 70 m 1x60
 40 100 l 1
 70 100 l 1
 70 70 l 1
 40 70 l 1x60
EndSplineSet
Validated: 1
AlternateSubs2: "'ssty' Math Script Style lookup 4 subtable" colon.ssty colon.ssty2
AlternateSubs2: "'aalt' Access All Alternates lookup 1 subtable" colon.ssty colon.ssty2
EndChar

StartChar: semicolon
Encoding: 59 59 30
Width: 110
GlyphClass: 2
Flags: MW
HStem: -10 10<40 50 40 60 40 50> 10 30<40 50 40 70>
VStem: 40 30<-10 40 0 40 10 40 0 40 70 100>
LayerCount: 2
Fore
SplineSet
50 10 m 1
 40 10 l 1
 40 40 l 1
 70 40 l 1xe0
 70 0 l 1
 60 0 l 1
 60 -10 l 1xa0
 40 -10 l 1
 40 0 l 1
 50 0 l 1
 50 10 l 1
40 100 m 1
 40 70 l 1
 70 70 l 1
 70 100 l 1
 40 100 l 1
EndSplineSet
Validated: 9
AlternateSubs2: "'ssty' Math Script Style lookup 4 subtable" semicolon.ssty semicolon.ssty2
AlternateSubs2: "'aalt' Access All Alternates lookup 1 subtable" semicolon.ssty semicolon.ssty2
EndChar

StartChar: less
Encoding: 60 60 31
Width: 110
GlyphClass: 2
Flags: MW
HStem: 0 20<70 80 40 60> 80 10<30 50 40 50> 90 20<40 80 50 80 70 70 70 80>
VStem: 60 20<0 10 10 10 100 110>
LayerCount: 2
Fore
SplineSet
80 0 m 1xd0
 60 0 l 1
 60 10 l 1
 50 10 l 1
 50 20 l 1
 40 20 l 1
 40 30 l 1
 30 30 l 1
 30 40 l 1
 20 40 l 1
 20 50 l 1
 10 50 l 1
 10 60 l 1
 20 60 l 1
 20 70 l 1
 30 70 l 1
 30 80 l 1
 40 80 l 1
 40 90 l 1
 50 90 l 1
 50 100 l 1
 60 100 l 1
 60 110 l 1
 80 110 l 1xb0
 80 90 l 1
 70 90 l 1
 70 80 l 1
 60 80 l 1
 60 70 l 1
 50 70 l 1
 50 60 l 1
 40 60 l 1
 40 50 l 1
 50 50 l 1
 50 40 l 1
 60 40 l 1
 60 30 l 1
 70 30 l 1
 70 20 l 1
 80 20 l 1
 80 0 l 1xd0
EndSplineSet
Validated: 1
AlternateSubs2: "'ssty' Math Script Style lookup 4 subtable" less.ssty less.ssty2
AlternateSubs2: "'aalt' Access All Alternates lookup 1 subtable" less.ssty less.ssty2
EndChar

StartChar: equal
Encoding: 61 61 32
Width: 110
GlyphClass: 2
Flags: MW
HStem: 30 20<0 100 0 100> 30 60<0 100 0 100> 70 20<0 100 0 100>
VStem: 0 100<30 50 30 50 70 90 30 90>
LayerCount: 2
Fore
SplineSet
0 70 m 1x30
 0 90 l 1
 100 90 l 1
 100 70 l 1
 0 70 l 1x30
0 30 m 1x50
 0 50 l 1
 100 50 l 1xb0
 100 30 l 1
 0 30 l 1x50
EndSplineSet
Validated: 1
AlternateSubs2: "'ssty' Math Script Style lookup 4 subtable" equal.ssty equal.ssty2
AlternateSubs2: "'aalt' Access All Alternates lookup 1 subtable" equal.ssty equal.ssty2
EndChar

StartChar: greater
Encoding: 62 62 33
Width: 110
GlyphClass: 2
Flags: MW
HStem: 0 20<20 30 20 30 20 40> 80 10<20 40 20 30> 90 20<20 30 20 40 20 60>
VStem: 20 20<0 10 0 20 0 20 100 110>
LayerCount: 2
Fore
SplineSet
20 0 m 1xd0
 20 20 l 1
 30 20 l 1
 30 30 l 1
 40 30 l 1
 40 40 l 1
 50 40 l 1
 50 50 l 1
 60 50 l 1
 60 60 l 1
 50 60 l 1
 50 70 l 1
 40 70 l 1
 40 80 l 1
 30 80 l 1
 30 90 l 1
 20 90 l 1
 20 110 l 1xb0
 40 110 l 1
 40 100 l 1
 50 100 l 1
 50 90 l 1
 60 90 l 1
 60 80 l 1
 70 80 l 1
 70 70 l 1
 80 70 l 1
 80 60 l 1
 90 60 l 1
 90 50 l 1
 80 50 l 1
 80 40 l 1
 70 40 l 1
 70 30 l 1
 60 30 l 1
 60 20 l 1
 50 20 l 1
 50 10 l 1
 40 10 l 1
 40 0 l 1
 20 0 l 1xd0
EndSplineSet
Validated: 1
AlternateSubs2: "'ssty' Math Script Style lookup 4 subtable" greater.ssty greater.ssty2
AlternateSubs2: "'aalt' Access All Alternates lookup 1 subtable" greater.ssty greater.ssty2
EndChar

StartChar: question
Encoding: 63 63 34
Width: 110
GlyphClass: 2
Flags: MW
HStem: 0 20<40 60 40 60> 40 20<40 50 40 60 40 50> 60 10<40 60 50 60 50 70 50 60> 70 10<60 60 70 70 80 80> 80 20<10 20 10 20 10 30 60 70 80 90> 110 10<20 70 30 70 40 40 40 60 30 80>
VStem: 20 10<80 110> 40 20<0 20 0 20 40 60 100 110> 70 10<60 80 70 100>
CounterMasks: 1 0380
LayerCount: 2
Fore
SplineSet
10 80 m 1xaf80
 10 100 l 1
 20 100 l 1
 20 110 l 1
 30 110 l 1
 30 120 l 1
 70 120 l 1
 70 110 l 1
 80 110 l 1
 80 100 l 1
 90 100 l 1
 90 80 l 1
 80 80 l 1
 80 70 l 1
 70 70 l 1xdf80
 70 60 l 1
 60 60 l 1
 60 40 l 1
 40 40 l 1xcf80
 40 60 l 1
 50 60 l 1
 50 70 l 1
 60 70 l 1
 60 80 l 1
 70 80 l 1
 70 100 l 1
 60 100 l 1
 60 110 l 1
 40 110 l 1
 40 100 l 1
 30 100 l 1
 30 80 l 1
 10 80 l 1xaf80
40 0 m 1
 40 20 l 1
 60 20 l 1
 60 0 l 1
 40 0 l 1
EndSplineSet
Validated: 1
AlternateSubs2: "'ssty' Math Script Style lookup 4 subtable" question.ssty question.ssty2
AlternateSubs2: "'aalt' Access All Alternates lookup 1 subtable" question.ssty question.ssty2
EndChar

StartChar: at
Encoding: 64 64 35
Width: 110
GlyphClass: 2
Flags: MW
HStem: 0 10<40 70 10 30> 0 30<30 50 60 80> 0 40<40 50 50 60 70 80 10 30> 10 10<20 30 20 70 80 90 80 80> 30 60<0 10 0 10 0 30 40 50 0 60 70 80 80 90> 40 10<70 90 80 90 80 100 80 90> 80 10<0 20 0 10 50 50 50 60> 90 10<20 60 70 80> 100 20<30 40 20 70 60 70 30 80 60 60> 110 10<10 70 30 70 40 40 40 60 30 90>
VStem: 0 10<40 80> 10 10<20 30 30 30 40 70 20 40 90 100> 30 10<0 20 10 20> 60 10<80 90> 70 10<0 20 40 50 80 90> 90 10<20 30 10 30 10 40 10 30 50 90 90 90>
CounterMasks: 1 8840
LayerCount: 2
Fore
SplineSet
0 30 m 1x886d
 0 90 l 1
 10 90 l 1
 10 110 l 1
 30 110 l 1
 30 120 l 1
 70 120 l 1
 70 110 l 1
 90 110 l 1x866d
 90 100 l 1
 100 100 l 1
 100 40 l 1
 90 40 l 1x22ad
 90 30 l 1
 100 30 l 1
 100 10 l 1
 80 10 l 1
 80 0 l 1
 30 0 l 1
 30 10 l 1
 10 10 l 1x886b
 10 30 l 1
 0 30 l 1x886d
10 40 m 1
 20 40 l 1x866d
 20 20 l 1
 40 20 l 1
 40 10 l 1
 70 10 l 1
 70 20 l 1
 90 20 l 1
 90 30 l 1
 60 30 l 1x185d
 60 40 l 1
 50 40 l 1
 50 60 l 1
 60 60 l 1
 60 80 l 1
 70 80 l 1x226d
 70 90 l 1
 80 90 l 1
 80 60 l 1
 70 60 l 1
 70 40 l 1
 80 40 l 1
 80 50 l 1
 90 50 l 1
 90 90 l 1
 80 90 l 1
 80 100 l 1x856b
 60 100 l 1x86ad
 60 110 l 1
 40 110 l 1x866d
 40 100 l 1
 20 100 l 1
 20 80 l 1x869d
 10 80 l 1
 10 40 l 1
20 70 m 1x225d
 30 70 l 1
 30 80 l 1
 40 80 l 1
 40 90 l 1
 60 90 l 1
 60 80 l 1
 50 80 l 1
 50 70 l 1
 40 70 l 1
 40 40 l 1
 50 40 l 1x225d
 50 30 l 1
 30 30 l 1x886d
 30 40 l 1
 20 40 l 1
 20 70 l 1x225d
EndSplineSet
Validated: 5
AlternateSubs2: "'ssty' Math Script Style lookup 4 subtable" at.ssty at.ssty2
AlternateSubs2: "'aalt' Access All Alternates lookup 1 subtable" at.ssty at.ssty2
EndChar

StartChar: A
Encoding: 65 65 36
Width: 110
GlyphClass: 2
Flags: MW
HStem: 0 10<0 10 20 30 0 10 60 70 90 100> 0 50<0 60 0 60 30 60 30 100> 40 30<10 30 20 30 20 30 30 40 20 50 50 60 20 30> 70 30<20 40 30 40 30 40 30 40 30 50 30 60> 100 20<30 60 40 60 40 50 40 60 40 70 40 70>
VStem: 10 10<10 40 10 40> 20 10<50 70> 30 10<50 70 70 100> 50 10<70 70 100 100> 70 10<10 70 40 70 40 100 40 70>
LayerCount: 2
Fore
SplineSet
40 70 m 1x55c0
 30 70 l 1
 30 50 l 1
 60 50 l 1
 60 70 l 1
 50 70 l 1
 50 100 l 1
 40 100 l 1
 40 70 l 1x55c0
30 0 m 1
 0 0 l 1
 0 10 l 1
 10 10 l 1
 10 40 l 1
 20 40 l 1xabc0
 20 70 l 1
 30 70 l 1x92c0
 30 100 l 1
 40 100 l 1
 40 120 l 1xadc0
 60 120 l 1
 60 100 l 1
 70 100 l 1
 70 70 l 1
 80 70 l 1
 80 40 l 1
 90 40 l 1
 90 10 l 1
 100 10 l 1
 100 0 l 1
 60 0 l 1
 60 10 l 1
 70 10 l 1
 70 40 l 1
 20 40 l 1
 20 10 l 1
 30 10 l 1xaac0
 30 0 l 1
EndSplineSet
Validated: 5
AlternateSubs2: "'ssty' Math Script Style lookup 4 subtable" A.ssty A.ssty2
AlternateSubs2: "'aalt' Access All Alternates lookup 1 subtable" A.ssty A.ssty2
EndChar

StartChar: B
Encoding: 66 66 37
Width: 110
GlyphClass: 2
Flags: MW
HStem: 0 10<0 10 30 70 0 10> 0 70<30 70 30 80 0 70> 20 30<70 80 70 80 90 100 70 90> 50 10<30 70 30 80> 80 20<70 80 70 80 90 100 70 90> 110 10<0 10 0 80 30 70 30 30 0 90>
VStem: 10 20<10 60 10 70 70 110> 80 10<0 20 10 50>
LayerCount: 2
Fore
SplineSet
80 0 m 1xaf
 0 0 l 1
 0 10 l 1
 10 10 l 1x9f
 10 110 l 1
 0 110 l 1
 0 120 l 1
 80 120 l 1
 80 110 l 1
 90 110 l 1
 90 100 l 1
 100 100 l 1
 100 80 l 1
 90 80 l 1
 90 70 l 1
 80 70 l 1x4f
 80 60 l 1
 90 60 l 1x9f
 90 50 l 1
 100 50 l 1
 100 20 l 1
 90 20 l 1
 90 10 l 1
 80 10 l 1
 80 0 l 1xaf
70 50 m 1
 70 60 l 1
 30 60 l 1x9f
 30 10 l 1
 70 10 l 1
 70 20 l 1
 80 20 l 1xaf
 80 50 l 1
 70 50 l 1
30 110 m 1
 30 70 l 1
 70 70 l 1x4f
 70 80 l 1
 80 80 l 1
 80 100 l 1
 70 100 l 1
 70 110 l 1
 30 110 l 1
EndSplineSet
Validated: 1
AlternateSubs2: "'ssty' Math Script Style lookup 4 subtable" B.ssty B.ssty2
AlternateSubs2: "'aalt' Access All Alternates lookup 1 subtable" B.ssty B.ssty2
EndChar

StartChar: C
Encoding: 67 67 38
Width: 110
GlyphClass: 2
Flags: MW
HStem: 0 10<40 80 20 30> 40 40<0 10 0 10 20 30 0 30 90 100> 110 10<20 80 30 80 40 40 40 70 30 90>
VStem: 10 10<10 40> 70 10<100 100 110 110> 90 10<10 40 20 40 20 40 80 90 90 90 110 120>
CounterMasks: 1 e0
LayerCount: 2
Fore
SplineSet
10 20 m 1
 10 40 l 1
 0 40 l 1
 0 80 l 1
 10 80 l 1xf4
 10 100 l 1
 20 100 l 1
 20 110 l 1
 30 110 l 1
 30 120 l 1
 80 120 l 1
 80 110 l 1
 90 110 l 1
 90 120 l 1
 100 120 l 1xb4
 100 80 l 1
 90 80 l 1
 90 90 l 1
 80 90 l 1
 80 100 l 1
 70 100 l 1
 70 110 l 1
 40 110 l 1
 40 100 l 1
 30 100 l 1xbc
 30 80 l 1
 20 80 l 1
 20 40 l 1
 30 40 l 1
 30 20 l 1
 40 20 l 1
 40 10 l 1
 80 10 l 1
 80 20 l 1
 90 20 l 1
 90 40 l 1
 100 40 l 1
 100 20 l 1
 90 20 l 1
 90 10 l 1
 80 10 l 1
 80 0 l 1
 30 0 l 1
 30 10 l 1
 20 10 l 1
 20 20 l 1
 10 20 l 1
EndSplineSet
Validated: 5
AlternateSubs2: "'ssty' Math Script Style lookup 4 subtable" C.ssty C.ssty2
AlternateSubs2: "'aalt' Access All Alternates lookup 1 subtable" C.ssty C.ssty2
EndChar

StartChar: D
Encoding: 68 68 39
Width: 110
GlyphClass: 2
Flags: MW
HStem: 0 10<0 10 30 60 0 10> 40 40<70 80 70 80 90 100 70 90> 110 10<0 70 0 10 30 60 30 30 0 80>
VStem: 10 20<10 110 10 110> 80 10<10 40 20 80>
CounterMasks: 1 e0
LayerCount: 2
Fore
SplineSet
0 110 m 1
 0 120 l 1
 70 120 l 1
 70 110 l 1
 80 110 l 1
 80 100 l 1
 90 100 l 1
 90 80 l 1
 100 80 l 1
 100 40 l 1
 90 40 l 1
 90 20 l 1
 80 20 l 1
 80 10 l 1
 70 10 l 1
 70 0 l 1
 0 0 l 1
 0 10 l 1
 10 10 l 1
 10 110 l 1
 0 110 l 1
30 110 m 1
 30 10 l 1
 60 10 l 1
 60 20 l 1
 70 20 l 1
 70 40 l 1
 80 40 l 1
 80 80 l 1
 70 80 l 1
 70 100 l 1
 60 100 l 1
 60 110 l 1
 30 110 l 1
EndSplineSet
Validated: 1
AlternateSubs2: "'ssty' Math Script Style lookup 4 subtable" D.ssty D.ssty2
AlternateSubs2: "'aalt' Access All Alternates lookup 1 subtable" D.ssty D.ssty2
EndChar

StartChar: E
Encoding: 69 69 40
Width: 110
GlyphClass: 2
Flags: MW
HStem: 0 10<0 10 30 80 0 10> 60 10<30 60 30 60> 60 30<30 70> 110 10<0 10 0 100 30 30 30 80>
VStem: 10 20<10 60 70 110> 60 10<40 60 60 60 70 90 40 90> 90 10<20 30 0 30 90 100 100 100>
LayerCount: 2
Fore
SplineSet
10 110 m 1xda
 0 110 l 1
 0 120 l 1xda
 100 120 l 1xde
 100 90 l 1
 90 90 l 1
 90 100 l 1
 80 100 l 1
 80 110 l 1
 30 110 l 1
 30 70 l 1xda
 60 70 l 1xde
 60 90 l 1
 70 90 l 1
 70 40 l 1
 60 40 l 1
 60 60 l 1xbe
 30 60 l 1
 30 10 l 1xba
 80 10 l 1
 80 20 l 1
 90 20 l 1
 90 30 l 1
 100 30 l 1
 100 0 l 1xde
 0 0 l 1
 0 10 l 1
 10 10 l 1
 10 110 l 1xda
EndSplineSet
Validated: 1
AlternateSubs2: "'ssty' Math Script Style lookup 4 subtable" E.ssty E.ssty2
AlternateSubs2: "'aalt' Access All Alternates lookup 1 subtable" E.ssty E.ssty2
EndChar

StartChar: F
Encoding: 70 70 41
Width: 110
GlyphClass: 2
Flags: MW
HStem: 0 10<0 10 30 50 0 10> 60 10<30 60 30 60> 60 30<30 70> 110 10<0 10 0 100 30 80 30 30>
VStem: 10 20<10 60 70 110> 60 10<40 60 60 60 70 90 40 90> 90 10<90 100 100 100>
LayerCount: 2
Fore
SplineSet
0 120 m 1xda
 100 120 l 1xde
 100 90 l 1
 90 90 l 1
 90 100 l 1
 80 100 l 1
 80 110 l 1
 30 110 l 1
 30 70 l 1xda
 60 70 l 1xde
 60 90 l 1
 70 90 l 1
 70 40 l 1
 60 40 l 1
 60 60 l 1xbe
 30 60 l 1xba
 30 10 l 1
 50 10 l 1
 50 0 l 1
 0 0 l 1
 0 10 l 1
 10 10 l 1
 10 110 l 1
 0 110 l 1
 0 120 l 1xda
EndSplineSet
Validated: 1
AlternateSubs2: "'ssty' Math Script Style lookup 4 subtable" F.ssty F.ssty2
AlternateSubs2: "'aalt' Access All Alternates lookup 1 subtable" F.ssty F.ssty2
EndChar

StartChar: G
Encoding: 71 71 42
Width: 110
GlyphClass: 2
Flags: MW
HStem: 0 10<40 70 20 30> 40 40<0 10 0 10 20 30 0 30> 50 10<60 80 60 100> 110 10<20 80 30 80 40 40 40 70 30 90>
VStem: 10 10<10 40> 70 10<0 20 10 20 10 20> 90 10<0 20 20 20 80 90 90 90 110 120>
CounterMasks: 1 d0
LayerCount: 2
Fore
SplineSet
0 40 m 1xda
 0 80 l 1
 10 80 l 1xda
 10 100 l 1
 20 100 l 1
 20 110 l 1
 30 110 l 1
 30 120 l 1
 80 120 l 1
 80 110 l 1
 90 110 l 1
 90 120 l 1
 100 120 l 1xba
 100 80 l 1
 90 80 l 1
 90 90 l 1
 80 90 l 1
 80 100 l 1
 70 100 l 1
 70 110 l 1
 40 110 l 1
 40 100 l 1
 30 100 l 1
 30 80 l 1
 20 80 l 1
 20 40 l 1
 30 40 l 1
 30 20 l 1
 40 20 l 1
 40 10 l 1
 70 10 l 1
 70 20 l 1
 80 20 l 1
 80 50 l 1
 60 50 l 1
 60 60 l 1xbe
 100 60 l 1
 100 0 l 1
 90 0 l 1xba
 90 20 l 1
 80 20 l 1
 80 10 l 1
 70 10 l 1
 70 0 l 1
 30 0 l 1
 30 10 l 1
 20 10 l 1
 20 20 l 1
 10 20 l 1xbe
 10 40 l 1
 0 40 l 1xda
EndSplineSet
Validated: 5
AlternateSubs2: "'ssty' Math Script Style lookup 4 subtable" G.ssty G.ssty2
AlternateSubs2: "'aalt' Access All Alternates lookup 1 subtable" G.ssty G.ssty2
EndChar

StartChar: H
Encoding: 72 72 43
Width: 110
GlyphClass: 2
Flags: MW
HStem: 0 10<0 10 30 40 0 10 60 70 90 100> 0 70<30 40 0 71 60 71 30 100 60 60> 60 60<30 40 60 70 30 30> 110 10<0 10 0 40 30 30 30 40 60 70 90 90 90 100>
VStem: 10 20<10 60 70 110> 70 20<10 60 60 60 10 110>
LayerCount: 2
Fore
SplineSet
10 110 m 1x9c
 0 110 l 1
 0 120 l 1
 40 120 l 1
 40 110 l 1
 30 110 l 1
 30 70 l 1
 71 70 l 1
 70 110 l 1
 60 110 l 1
 60 120 l 1
 100 120 l 1
 100 110 l 1
 90 110 l 1x5c
 90 10 l 1
 100 10 l 1
 100 0 l 1
 60 0 l 1
 60 10 l 1
 70 10 l 1
 70 60 l 1
 30 60 l 1xac
 30 10 l 1
 40 10 l 1
 40 0 l 1
 0 0 l 1
 0 10 l 1
 10 10 l 1
 10 110 l 1x9c
EndSplineSet
Validated: 1
AlternateSubs2: "'ssty' Math Script Style lookup 4 subtable" H.ssty H.ssty2
AlternateSubs2: "'aalt' Access All Alternates lookup 1 subtable" H.ssty H.ssty2
EndChar

StartChar: I
Encoding: 73 73 44
Width: 110
GlyphClass: 2
Flags: MW
HStem: 0 10<30 40 60 70 30 40> 110 10<30 40 30 70 60 60 60 70>
VStem: 40 20<10 110 10 110>
LayerCount: 2
Fore
SplineSet
40 110 m 1
 30 110 l 1
 30 120 l 1
 70 120 l 1
 70 110 l 1
 60 110 l 1
 60 10 l 1
 70 10 l 1
 70 0 l 1
 30 0 l 1
 30 10 l 1
 40 10 l 1
 40 110 l 1
EndSplineSet
Validated: 1
AlternateSubs2: "'ssty' Math Script Style lookup 4 subtable" I.ssty I.ssty2
AlternateSubs2: "'aalt' Access All Alternates lookup 1 subtable" I.ssty I.ssty2
EndChar

StartChar: J
Encoding: 74 74 45
Width: 110
GlyphClass: 2
Flags: MW
HStem: 0 10<40 50 20 30> 0 20<30 40 50 60 10 30> 10 10<10 30 10 20> 110 10<40 60 40 100 80 80 80 100>
VStem: 10 20<20 50> 60 20<0 110 20 110 20 110>
LayerCount: 2
Fore
SplineSet
10 50 m 1x3c
 30 50 l 1x3c
 30 20 l 1
 40 20 l 1
 40 10 l 1
 50 10 l 1
 50 20 l 1
 60 20 l 1x54
 60 110 l 1
 40 110 l 1
 40 120 l 1
 100 120 l 1
 100 110 l 1
 80 110 l 1
 80 20 l 1
 70 20 l 1
 70 10 l 1
 60 10 l 1
 60 0 l 1x94
 30 0 l 1
 30 10 l 1
 20 10 l 1
 20 20 l 1
 10 20 l 1
 10 50 l 1x3c
EndSplineSet
Validated: 1
AlternateSubs2: "'ssty' Math Script Style lookup 4 subtable" J.ssty J.ssty2
AlternateSubs2: "'aalt' Access All Alternates lookup 1 subtable" J.ssty J.ssty2
EndChar

StartChar: K
Encoding: 75 75 46
Width: 110
GlyphClass: 2
Flags: MW
HStem: 0 10<0 10 30 40 0 10 60 70 90 100> 20 10 50 10<30 40 30 50 30 40> 80 10<50 70 60 70 60 70 60 70> 110 10<0 10 0 40 30 30 30 40 70 80 90 90 90 100>
VStem: 10 20<10 50 60 110> 50 10<70 80> 60 10<0 20 10 20 10 40 80 90>
LayerCount: 2
Fore
SplineSet
10 110 m 1xac
 0 110 l 1
 0 120 l 1
 40 120 l 1
 40 110 l 1
 30 110 l 1xac
 30 60 l 1
 40 60 l 1
 40 70 l 1
 50 70 l 1
 50 80 l 1
 60 80 l 1
 60 90 l 1
 70 90 l 1
 70 100 l 1
 80 100 l 1
 80 110 l 1
 70 110 l 1
 70 120 l 1xad
 100 120 l 1
 100 110 l 1
 90 110 l 1
 90 100 l 1
 80 100 l 1
 80 90 l 1
 70 90 l 1
 70 80 l 1
 60 80 l 1xbe
 60 60 l 1
 70 60 l 1xad
 70 40 l 1
 80 40 l 1
 80 30 l 1
 90 30 l 1xed
 90 10 l 1
 100 10 l 1
 100 0 l 1
 60 0 l 1
 60 10 l 1
 70 10 l 1
 70 20 l 1
 60 20 l 1xad
 60 40 l 1
 50 40 l 1
 50 50 l 1xae
 30 50 l 1
 30 10 l 1
 40 10 l 1
 40 0 l 1
 0 0 l 1
 0 10 l 1
 10 10 l 1
 10 110 l 1xac
EndSplineSet
Validated: 5
AlternateSubs2: "'ssty' Math Script Style lookup 4 subtable" K.ssty K.ssty2
AlternateSubs2: "'aalt' Access All Alternates lookup 1 subtable" K.ssty K.ssty2
EndChar

StartChar: L
Encoding: 76 76 47
Width: 110
GlyphClass: 2
Flags: MW
HStem: 0 10<0 10 30 80 0 10> 110 10<0 40 0 10 30 30 30 40>
VStem: 10 20<10 110 10 110> 90 10<20 40 0 40>
LayerCount: 2
Fore
SplineSet
0 110 m 1
 0 120 l 1
 40 120 l 1
 40 110 l 1
 30 110 l 1
 30 10 l 1
 80 10 l 1
 80 20 l 1
 90 20 l 1
 90 40 l 1
 100 40 l 1
 100 0 l 1
 0 0 l 1
 0 10 l 1
 10 10 l 1
 10 110 l 1
 0 110 l 1
EndSplineSet
Validated: 1
AlternateSubs2: "'ssty' Math Script Style lookup 4 subtable" L.ssty L.ssty2
AlternateSubs2: "'aalt' Access All Alternates lookup 1 subtable" L.ssty L.ssty2
EndChar

StartChar: M
Encoding: 77 77 48
Width: 110
GlyphClass: 2
Flags: MW
HStem: 0 10<0 10 20 30 0 10 60 70 90 100> 20 30<20 40 20 30 20 60 20 50> 50 30<20 40 20 40 30 50 30 50> 110 10<0 10 0 20 0 30 90 90 90 100>
VStem: 10 10<10 50 10 110> 30 10<0 10 0 20 0 50> 40 10<0 20 0 20 50 70> 50 10<0 10 0 20 0 10 50 70> 70 20<10 70 70 70 10 120 10 120>
LayerCount: 2
Fore
SplineSet
10 110 m 1x9880
 0 110 l 1
 0 120 l 1
 20 120 l 1
 20 110 l 1
 30 110 l 1x9880
 30 80 l 1
 40 80 l 1xbc80
 40 50 l 1
 50 50 l 1xd980
 50 70 l 1
 60 70 l 1xb980
 60 110 l 1
 70 110 l 1
 70 120 l 1
 100 120 l 1
 100 110 l 1
 90 110 l 1
 90 10 l 1
 100 10 l 1
 100 0 l 1
 60 0 l 1
 60 10 l 1
 70 10 l 1x9880
 70 70 l 1
 60 70 l 1xb980
 60 20 l 1
 50 20 l 1xda80
 50 0 l 1
 40 0 l 1x9a80
 40 20 l 1
 30 20 l 1xdc80
 30 50 l 1
 20 50 l 1xb880
 20 10 l 1
 30 10 l 1
 30 0 l 1
 0 0 l 1
 0 10 l 1
 10 10 l 1
 10 110 l 1x9880
EndSplineSet
Validated: 5
AlternateSubs2: "'ssty' Math Script Style lookup 4 subtable" M.ssty M.ssty2
AlternateSubs2: "'aalt' Access All Alternates lookup 1 subtable" M.ssty M.ssty2
EndChar

StartChar: N
Encoding: 78 78 49
Width: 110
GlyphClass: 2
Flags: MW
HStem: 0 10<0 10 20 30 0 10> 40 10<40 60 40 50> 70 10<20 40 20 30> 110 10<0 10 0 20 0 30 70 80 90 90 90 100>
VStem: 10 10<10 80 10 110> 30 10<50 80> 40 10<40 70> 50 10<20 50> 60 10<10 40> 80 10<0 10 10 10 40 110 0 110>
LayerCount: 2
Fore
SplineSet
10 110 m 1x9840
 0 110 l 1
 0 120 l 1x9840
 20 120 l 1
 20 110 l 1
 30 110 l 1
 30 100 l 1
 40 100 l 1x9c40
 40 80 l 1
 50 80 l 1
 50 70 l 1
 60 70 l 1xb940
 60 50 l 1
 70 50 l 1
 70 40 l 1
 80 40 l 1
 80 110 l 1
 70 110 l 1
 70 120 l 1
 100 120 l 1
 100 110 l 1
 90 110 l 1xd840
 90 0 l 1
 80 0 l 1
 80 10 l 1
 70 10 l 1
 70 20 l 1
 60 20 l 1x98c0
 60 40 l 1
 50 40 l 1
 50 50 l 1
 40 50 l 1xda40
 40 70 l 1
 30 70 l 1
 30 80 l 1
 20 80 l 1xb840
 20 10 l 1
 30 10 l 1
 30 0 l 1
 0 0 l 1
 0 10 l 1
 10 10 l 1
 10 110 l 1x9840
EndSplineSet
Validated: 1
AlternateSubs2: "'ssty' Math Script Style lookup 4 subtable" N.ssty N.ssty2
AlternateSubs2: "'aalt' Access All Alternates lookup 1 subtable" N.ssty N.ssty2
EndChar

StartChar: O
Encoding: 79 79 50
Width: 110
GlyphClass: 2
Flags: MW
HStem: 0 10<30 70 10 20> 30 60<0 10 0 10 20 30 0 30 70 80 90 100> 110 10<10 80 20 80 30 70 30 30 20 90>
VStem: 10 10<0 30> 80 10<0 30 10 90>
CounterMasks: 1 e0
LayerCount: 2
Fore
SplineSet
30 90 m 1
 20 90 l 1
 20 30 l 1
 30 30 l 1
 30 10 l 1
 70 10 l 1
 70 30 l 1
 80 30 l 1
 80 90 l 1
 70 90 l 1
 70 110 l 1
 30 110 l 1
 30 90 l 1
0 30 m 1
 0 90 l 1
 10 90 l 1
 10 110 l 1
 20 110 l 1
 20 120 l 1
 80 120 l 1
 80 110 l 1
 90 110 l 1
 90 90 l 1
 100 90 l 1
 100 30 l 1
 90 30 l 1
 90 10 l 1
 80 10 l 1
 80 0 l 1
 20 0 l 1
 20 10 l 1
 10 10 l 1
 10 30 l 1
 0 30 l 1
EndSplineSet
Validated: 1
AlternateSubs2: "'ssty' Math Script Style lookup 4 subtable" O.ssty O.ssty2
AlternateSubs2: "'aalt' Access All Alternates lookup 1 subtable" O.ssty O.ssty2
EndChar

StartChar: P
Encoding: 80 80 51
Width: 110
GlyphClass: 2
Flags: MW
HStem: 0 10<0 10 30 40 0 10> 50 10<30 70 30 80 30 70> 70 30<70 80 70 80 90 100 70 90> 110 10<0 10 0 80 30 30 30 70 0 90>
VStem: 10 20<10 50 10 60 60 110> 80 10<50 70 60 100>
LayerCount: 2
Fore
SplineSet
10 110 m 1
 0 110 l 1
 0 120 l 1
 80 120 l 1
 80 110 l 1
 90 110 l 1
 90 100 l 1
 100 100 l 1
 100 70 l 1
 90 70 l 1
 90 60 l 1
 80 60 l 1
 80 50 l 1
 30 50 l 1
 30 10 l 1
 40 10 l 1
 40 0 l 1
 0 0 l 1
 0 10 l 1
 10 10 l 1
 10 110 l 1
70 110 m 1
 30 110 l 1
 30 60 l 1
 70 60 l 1
 70 70 l 1
 80 70 l 1
 80 100 l 1
 70 100 l 1
 70 110 l 1
EndSplineSet
Validated: 1
AlternateSubs2: "'ssty' Math Script Style lookup 4 subtable" P.ssty P.ssty2
AlternateSubs2: "'aalt' Access All Alternates lookup 1 subtable" P.ssty P.ssty2
EndChar

StartChar: Q
Encoding: 81 81 52
Width: 110
GlyphClass: 2
Flags: MW
HStem: -10 10<80 90 20 60> 0 10<30 60 10 20 80 90> 0 40<40 60 40 60 20 60 40 90 40 90> 20 10<30 40 30 30> 30 60<0 10 0 10 20 30 0 40 0 60 0 40 0 40 0 70 90 100> 110 10<10 80 20 80 30 30 30 70 20 90>
VStem: 10 10<0 30> 40 20<20 30 20 20 30 40> 60 10<20 30 20 30 20 30 20 40 20 30> 60 40<-10 90 0 90 10 90 30 90 30 40 30 90> 80 10<-10 10 -10 0 20 30>
CounterMasks: 1 4f20
LayerCount: 2
Fore
SplineSet
0 90 m 1x4ea0
 10 90 l 1
 10 110 l 1
 20 110 l 1
 20 120 l 1
 80 120 l 1
 80 110 l 1
 90 110 l 1
 90 90 l 1x4ea0
 100 90 l 1
 100 30 l 1x4e40
 90 30 l 1
 90 10 l 1
 80 10 l 1x56a0
 80 0 l 1
 90 0 l 1
 90 -10 l 1x96a0
 60 -10 l 1x9640
 60 0 l 1
 20 0 l 1
 20 10 l 1
 10 10 l 1
 10 30 l 1
 0 30 l 1
 0 90 l 1x4ea0
20 90 m 1x4f20
 20 30 l 1
 40 30 l 1
 40 20 l 1x5720
 30 20 l 1
 30 10 l 1
 60 10 l 1
 60 30 l 1
 70 30 l 1
 70 20 l 1
 80 20 l 1x56a0
 80 90 l 1
 70 90 l 1
 70 110 l 1
 30 110 l 1
 30 90 l 1
 20 90 l 1x4f20
40 30 m 1
 40 40 l 1
 60 40 l 1x2720
 60 30 l 1
 40 30 l 1
EndSplineSet
Validated: 5
AlternateSubs2: "'ssty' Math Script Style lookup 4 subtable" Q.ssty Q.ssty2
AlternateSubs2: "'aalt' Access All Alternates lookup 1 subtable" Q.ssty Q.ssty2
EndChar

StartChar: R
Encoding: 82 82 53
Width: 110
GlyphClass: 2
Flags: MW
HStem: 0 10<0 10 30 40 0 10 80 90> 50 70<30 50 30 30> 60 10<30 70 60 70 60 80 60 70> 70 30<60 70 60 70 80 90 60 80> 110 10<0 10 0 70 30 30 30 60 0 80>
VStem: 10 20<10 50 60 110> 60 10<0 40> 70 10<0 40 10 40 10 60 10 40> 90 10<0 20 10 20 10 20>
LayerCount: 2
Fore
SplineSet
10 110 m 1xad80
 0 110 l 1
 0 120 l 1
 70 120 l 1
 70 110 l 1
 80 110 l 1
 80 100 l 1
 90 100 l 1x9d80
 90 70 l 1
 80 70 l 1
 80 60 l 1
 70 60 l 1
 70 40 l 1
 80 40 l 1
 80 10 l 1xad80
 90 10 l 1
 90 20 l 1
 100 20 l 1
 100 10 l 1
 90 10 l 1
 90 0 l 1
 70 0 l 1
 70 10 l 1
 60 10 l 1
 60 40 l 1
 50 40 l 1
 50 50 l 1
 30 50 l 1xc680
 30 10 l 1
 40 10 l 1
 40 0 l 1
 0 0 l 1
 0 10 l 1
 10 10 l 1
 10 110 l 1xad80
30 60 m 1xae80
 60 60 l 1xae80
 60 70 l 1
 70 70 l 1
 70 100 l 1
 60 100 l 1x9e80
 60 110 l 1
 30 110 l 1
 30 60 l 1xae80
EndSplineSet
Validated: 5
AlternateSubs2: "'ssty' Math Script Style lookup 4 subtable" R.ssty R.ssty2
AlternateSubs2: "'aalt' Access All Alternates lookup 1 subtable" R.ssty R.ssty2
EndChar

StartChar: S
Encoding: 83 83 54
Width: 110
GlyphClass: 2
Flags: MW
HStem: 0 10<10 30 40 70 20 30> 50 10<20 70 20 40> 60 10<20 20 40 40 70 70> 110 10<20 80 30 80 40 40 40 70 30 90>
VStem: 10 10<0 10 30 40> 30 10<0 20 10 20 10 20 10 30> 70 10<0 20> 90 10<10 50 20 60 20 50 80 90 90 90 110 120>
LayerCount: 2
Fore
SplineSet
10 70 m 1xb9
 10 100 l 1
 20 100 l 1
 20 110 l 1
 30 110 l 1
 30 120 l 1
 80 120 l 1
 80 110 l 1
 90 110 l 1
 90 120 l 1
 100 120 l 1xbd
 100 80 l 1
 90 80 l 1
 90 90 l 1
 80 90 l 1
 80 100 l 1
 70 100 l 1
 70 110 l 1
 40 110 l 1
 40 100 l 1
 30 100 l 1xbb
 30 80 l 1
 40 80 l 1
 40 70 l 1xbd
 70 70 l 1
 70 60 l 1
 90 60 l 1
 90 50 l 1
 100 50 l 1xdd
 100 20 l 1
 90 20 l 1
 90 10 l 1
 80 10 l 1
 80 0 l 1
 30 0 l 1
 30 10 l 1
 20 10 l 1
 20 0 l 1
 10 0 l 1xbb
 10 40 l 1
 20 40 l 1
 20 30 l 1
 30 30 l 1
 30 20 l 1
 40 20 l 1
 40 10 l 1
 70 10 l 1
 70 20 l 1
 80 20 l 1xbd
 80 40 l 1
 70 40 l 1
 70 50 l 1xdb
 40 50 l 1
 40 60 l 1xbb
 20 60 l 1
 20 70 l 1
 10 70 l 1xb9
EndSplineSet
Validated: 1
AlternateSubs2: "'ssty' Math Script Style lookup 4 subtable" S.ssty S.ssty2
AlternateSubs2: "'aalt' Access All Alternates lookup 1 subtable" S.ssty S.ssty2
EndChar

StartChar: T
Encoding: 84 84 55
Width: 110
GlyphClass: 2
Flags: MW
HStem: 0 10<30 40 60 70 30 40> 110 10<20 40 20 20 60 80 60 60>
VStem: 0 10<90 100> 40 20<10 110 10 110> 90 10<90 100 100 100>
CounterMasks: 1 38
LayerCount: 2
Fore
SplineSet
10 90 m 1
 0 90 l 1
 0 120 l 1
 100 120 l 1
 100 90 l 1
 90 90 l 1
 90 100 l 1
 80 100 l 1
 80 110 l 1xf8
 60 110 l 1
 60 10 l 1
 70 10 l 1
 70 0 l 1
 30 0 l 1
 30 10 l 1
 40 10 l 1
 40 110 l 1xd0
 20 110 l 1
 20 100 l 1
 10 100 l 1
 10 90 l 1
EndSplineSet
Validated: 1
AlternateSubs2: "'ssty' Math Script Style lookup 4 subtable" T.ssty T.ssty2
AlternateSubs2: "'aalt' Access All Alternates lookup 1 subtable" T.ssty T.ssty2
EndChar

StartChar: U
Encoding: 85 85 56
Width: 110
GlyphClass: 2
Flags: MW
HStem: 0 10<40 70 20 30> 110 10<0 10 0 40 30 30 30 40 70 80 90 90 90 100>
VStem: 10 20<20 110> 80 10<10 110 20 110 20 110>
LayerCount: 2
Fore
SplineSet
10 20 m 1
 10 110 l 1
 0 110 l 1
 0 120 l 1
 40 120 l 1
 40 110 l 1
 30 110 l 1
 30 20 l 1
 40 20 l 1
 40 10 l 1
 70 10 l 1
 70 20 l 1
 80 20 l 1
 80 110 l 1
 70 110 l 1
 70 120 l 1
 100 120 l 1
 100 110 l 1
 90 110 l 1
 90 20 l 1
 80 20 l 1
 80 10 l 1
 70 10 l 1
 70 0 l 1
 30 0 l 1
 30 10 l 1
 20 10 l 1
 20 20 l 1
 10 20 l 1
EndSplineSet
Validated: 5
AlternateSubs2: "'ssty' Math Script Style lookup 4 subtable" U.ssty U.ssty2
AlternateSubs2: "'aalt' Access All Alternates lookup 1 subtable" U.ssty U.ssty2
EndChar

StartChar: V
Encoding: 86 86 57
Width: 110
GlyphClass: 2
Flags: MW
HStem: 0 21G<50 60 50 50> 20 30<30 50 30 40 60 70 60 60> 50 30<20 40 20 30 70 80> 110 10<10 20 10 50 40 40 40 50 70 80 90 90 90 100>
VStem: 30 10<20 80> 40 10<0 50> 50 10<0 20 0 20> 70 10<20 80 50 80 50 80> 80 10<50 110 80 110 80 110>
LayerCount: 2
Fore
SplineSet
20 80 m 1x39
 20 110 l 1
 10 110 l 1
 10 120 l 1
 50 120 l 1
 50 110 l 1
 40 110 l 1x59
 40 80 l 1
 50 80 l 1x35
 50 50 l 1x55
 70 50 l 1x51
 70 80 l 1
 80 80 l 1x3080
 80 110 l 1
 70 110 l 1
 70 120 l 1x51
 100 120 l 1
 100 110 l 1
 90 110 l 1x5080
 90 80 l 1
 80 80 l 1x51
 80 50 l 1
 70 50 l 1x31
 70 20 l 1
 60 20 l 1x53
 60 0 l 1
 50 0 l 1x93
 50 20 l 1
 40 20 l 1x55
 40 50 l 1
 30 50 l 1
 30 80 l 1
 20 80 l 1x39
EndSplineSet
Validated: 5
AlternateSubs2: "'ssty' Math Script Style lookup 4 subtable" V.ssty V.ssty2
AlternateSubs2: "'aalt' Access All Alternates lookup 1 subtable" V.ssty V.ssty2
EndChar

StartChar: W
Encoding: 87 87 58
Width: 110
GlyphClass: 2
Flags: MW
HStem: 0 50<30 40 30 40 70 80 30 70> 20 30<20 40 20 40 30 50 30 40 30 70 30 60> 70 10<40 60 40 50> 70 50<10 20 10 10 50 60 0 50 90 100 90 90> 110 10<0 40 0 10 30 30 30 40 80 90>
VStem: 20 10<50 70 70 70> 30 10<0 20 0 20 50 80> 40 10<0 70 50 70 20 80 110 120 110 110> 60 10<50 70 70 70> 80 10<0 70 50 70 20 80> 90 10<20 120 80 110 110 110>
LayerCount: 2
Fore
SplineSet
0 110 m 1x4c80
 0 120 l 1
 40 120 l 1
 40 110 l 1
 30 110 l 1x4c80
 30 50 l 1
 40 50 l 1x4980
 40 80 l 1
 50 80 l 1x6880
 50 120 l 1
 70 120 l 1x4880
 70 50 l 1
 80 50 l 1x48c0
 80 80 l 1
 90 80 l 1x68a0
 90 110 l 1
 80 110 l 1
 80 120 l 1x48c0
 100 120 l 1x48a0
 100 70 l 1
 90 70 l 1x68c0
 90 20 l 1
 80 20 l 1x48c0
 80 0 l 1
 70 0 l 1x88c0
 70 20 l 1
 60 20 l 1x4880
 60 70 l 1
 50 70 l 1x5180
 50 20 l 1
 40 20 l 1x4a80
 40 0 l 1
 30 0 l 1x8a80
 30 20 l 1
 20 20 l 1x4c80
 20 70 l 1
 10 70 l 1x6c80
 10 110 l 1
 0 110 l 1x4c80
EndSplineSet
Validated: 1
AlternateSubs2: "'ssty' Math Script Style lookup 4 subtable" W.ssty W.ssty2
AlternateSubs2: "'aalt' Access All Alternates lookup 1 subtable" W.ssty W.ssty2
EndChar

StartChar: X
Encoding: 88 88 59
Width: 110
GlyphClass: 2
Flags: MW
HStem: 0 10<0 10 20 30 0 10 60 70 90 100> 20 10<10 30 20 30 20 30 20 30> 30 20<20 40 30 40 30 40 30 40 30 50 30 60> 50 40<30 50 40 50 40 50 40 50 60 70 40 70> 70 20<30 50 30 50 40 60 40 60 60 70 40 60> 80 10 90 10<70 80> 110 10<0 10 0 40 30 30 30 40 70 80 90 90 90 100>
VStem: 20 10<0 20 0 10 20 30> 30 10<20 50 30 50 30 50> 40 10<30 50 30 50 30 70> 50 10<70 90> 60 10<0 20 10 20 10 30 70 90> 70 10<10 40 20 40 20 50 20 40 90 100>
LayerCount: 2
Fore
SplineSet
0 10 m 1x8140
 10 10 l 1
 10 20 l 1
 20 20 l 1
 20 30 l 1
 30 30 l 1xc140
 30 50 l 1
 40 50 l 1xa120
 40 70 l 1
 30 70 l 1
 30 80 l 1
 20 80 l 1x8580
 20 100 l 1
 10 100 l 1
 10 110 l 1
 0 110 l 1
 0 120 l 1x8180
 40 120 l 1
 40 110 l 1
 30 110 l 1
 30 100 l 1
 40 100 l 1
 40 90 l 1
 50 90 l 1x8920
 50 70 l 1
 60 70 l 1xa148
 60 90 l 1
 70 90 l 1
 70 100 l 1
 80 100 l 1
 80 110 l 1
 70 110 l 1
 70 120 l 1x8144
 100 120 l 1
 100 110 l 1
 90 110 l 1
 90 100 l 1
 80 100 l 1
 80 90 l 1
 70 90 l 1x8348
 70 70 l 1
 60 70 l 1x8950
 60 50 l 1
 70 50 l 1
 70 40 l 1
 80 40 l 1xa144
 80 20 l 1
 90 20 l 1
 90 10 l 1
 100 10 l 1
 100 0 l 1x8144
 60 0 l 1
 60 10 l 1
 70 10 l 1
 70 20 l 1
 60 20 l 1
 60 30 l 1
 50 30 l 1xa150
 50 50 l 1
 40 50 l 1x9140
 40 30 l 1
 30 30 l 1
 30 20 l 1
 20 20 l 1
 20 10 l 1
 30 10 l 1
 30 0 l 1x8180
 0 0 l 1
 0 10 l 1x8140
EndSplineSet
Validated: 5
AlternateSubs2: "'ssty' Math Script Style lookup 4 subtable" X.ssty X.ssty2
AlternateSubs2: "'aalt' Access All Alternates lookup 1 subtable" X.ssty X.ssty2
EndChar

StartChar: Y
Encoding: 89 89 60
Width: 110
GlyphClass: 2
Flags: MW
HStem: 0 10<30 40 60 70 30 40> 50 10<50 70 50 60> 70 20<10 30 10 20 70 80> 110 10<0 10 0 40 30 30 30 40 70 80 90 90 90 100>
VStem: 20 10<70 70 90 90> 30 10<0 50 10 50 10 70> 40 20<10 50 10 50> 70 10<50 90 70 90 70 90> 80 10<70 110 90 110 90 110>
LayerCount: 2
Fore
SplineSet
10 90 m 1xfa
 10 110 l 1
 0 110 l 1
 0 120 l 1
 40 120 l 1
 40 110 l 1
 30 110 l 1xda
 30 90 l 1
 40 90 l 1xf4
 40 70 l 1
 50 70 l 1
 50 60 l 1
 60 60 l 1
 60 70 l 1
 70 70 l 1xd3
 70 90 l 1
 80 90 l 1xf280
 80 110 l 1
 70 110 l 1
 70 120 l 1xd3
 100 120 l 1
 100 110 l 1
 90 110 l 1xd280
 90 90 l 1
 80 90 l 1xd3
 80 70 l 1
 70 70 l 1xf3
 70 50 l 1
 60 50 l 1
 60 10 l 1
 70 10 l 1
 70 0 l 1
 30 0 l 1
 30 10 l 1
 40 10 l 1xd2
 40 50 l 1
 30 50 l 1xd4
 30 70 l 1
 20 70 l 1
 20 90 l 1
 10 90 l 1xfa
EndSplineSet
Validated: 5
AlternateSubs2: "'ssty' Math Script Style lookup 4 subtable" Y.ssty Y.ssty2
AlternateSubs2: "'aalt' Access All Alternates lookup 1 subtable" Y.ssty Y.ssty2
EndChar

StartChar: Z
Encoding: 90 90 61
Width: 110
GlyphClass: 2
Flags: MW
HStem: 0 10<0 10 30 80 0 10> 40 10<20 40 30 40 30 40 30 50> 70 10<40 60 50 60 50 60 50 70> 110 10<20 70 20 20 90 90 90 100>
VStem: 0 10<0 20 10 20 90 100> 20 10<10 40> 30 10<10 40 20 50> 40 10<20 50 40 70> 50 10<40 70 50 80> 60 10<50 80 70 100> 70 10<80 80 100 100> 90 10<20 30 0 30>
LayerCount: 2
Fore
SplineSet
90 30 m 1x9810
 100 30 l 1
 100 0 l 1
 0 0 l 1
 0 10 l 1
 10 10 l 1
 10 20 l 1
 20 20 l 1x9c10
 20 40 l 1
 30 40 l 1
 30 50 l 1
 40 50 l 1xd910
 40 70 l 1
 50 70 l 1
 50 80 l 1
 60 80 l 1xb850
 60 100 l 1
 70 100 l 1
 70 110 l 1
 20 110 l 1
 20 100 l 1
 10 100 l 1
 10 90 l 1
 0 90 l 1
 0 120 l 1
 100 120 l 1
 100 110 l 1
 90 110 l 1
 90 100 l 1
 80 100 l 1x9830
 80 80 l 1
 70 80 l 1
 70 70 l 1
 60 70 l 1xb890
 60 50 l 1
 50 50 l 1
 50 40 l 1
 40 40 l 1xda10
 40 20 l 1
 30 20 l 1
 30 10 l 1x9c10
 80 10 l 1
 80 20 l 1
 90 20 l 1
 90 30 l 1x9810
EndSplineSet
Validated: 1
AlternateSubs2: "'ssty' Math Script Style lookup 4 subtable" Z.ssty Z.ssty2
AlternateSubs2: "'aalt' Access All Alternates lookup 1 subtable" Z.ssty Z.ssty2
EndChar

StartChar: bracketleft
Encoding: 91 91 62
Width: 110
GlyphClass: 2
Flags: MW
HStem: 0 10<50 80 50 80> 110 10<50 80 50 50>
VStem: 30 20<10 110 10 120 10 120>
LayerCount: 2
Fore
SplineSet
30 0 m 1
 30 120 l 1
 80 120 l 1
 80 110 l 1
 50 110 l 1
 50 10 l 1
 80 10 l 1
 80 0 l 1
 30 0 l 1
EndSplineSet
Validated: 1
AlternateSubs2: "'ssty' Math Script Style lookup 4 subtable" bracketleft.ssty bracketleft.ssty2
AlternateSubs2: "'aalt' Access All Alternates lookup 1 subtable" bracketleft.ssty bracketleft.ssty2
EndChar

StartChar: backslash
Encoding: 92 92 63
Width: 110
GlyphClass: 2
Flags: MW
HStem: 0 20<70 80 50 60> 20 30<40 60 40 50 40 80> 50 20<30 50 30 40> 70 30<20 40 20 30 20 60> 100 20<20 30 20 40 20 50 20 50>
VStem: 30 10<50 100> 40 10<20 70> 50 10<0 50> 60 10<0 50 20 50 20 50 20 70>
CounterMasks: 1 a8
LayerCount: 2
Fore
SplineSet
80 0 m 1x8c80
 60 0 l 1x8c80
 60 20 l 1
 50 20 l 1x4d
 50 50 l 1
 40 50 l 1xaa
 40 70 l 1
 30 70 l 1x94
 30 100 l 1
 20 100 l 1
 20 120 l 1
 40 120 l 1x8c
 40 100 l 1
 50 100 l 1x92
 50 70 l 1
 60 70 l 1xad
 60 50 l 1
 70 50 l 1x4c80
 70 20 l 1
 80 20 l 1
 80 0 l 1x8c80
EndSplineSet
Validated: 1
AlternateSubs2: "'ssty' Math Script Style lookup 4 subtable" backslash.ssty backslash.ssty2
AlternateSubs2: "'aalt' Access All Alternates lookup 1 subtable" backslash.ssty backslash.ssty2
EndChar

StartChar: bracketright
Encoding: 93 93 64
Width: 110
GlyphClass: 2
Flags: MW
HStem: 0 10<30 60 30 80 30 60> 110 10<30 60 30 80>
VStem: 60 20<10 110 110 110>
LayerCount: 2
Fore
SplineSet
30 120 m 1
 80 120 l 1
 80 0 l 1
 30 0 l 1
 30 10 l 1
 60 10 l 1
 60 110 l 1
 30 110 l 1
 30 120 l 1
EndSplineSet
Validated: 1
AlternateSubs2: "'ssty' Math Script Style lookup 4 subtable" bracketright.ssty bracketright.ssty2
AlternateSubs2: "'aalt' Access All Alternates lookup 1 subtable" bracketright.ssty bracketright.ssty2
EndChar

StartChar: asciicircum
Encoding: 94 94 65
Width: 110
GlyphClass: 2
Flags: MW
HStem: 80 10<10 20 10 20 10 30 80 90> 100 20<20 60 30 60 40 60 40 60 40 80>
VStem: 20 10<80 100> 30 10<80 100 90 110> 40 20<90 100 90 100 110 120> 60 10<80 100> 70 10<80 100 90 100 90 110 90 100>
CounterMasks: 1 2a
LayerCount: 2
Fore
SplineSet
10 80 m 1x92
 10 90 l 1
 20 90 l 1
 20 100 l 1
 30 100 l 1
 30 110 l 1
 40 110 l 1
 40 120 l 1xea
 60 120 l 1
 60 110 l 1
 70 110 l 1
 70 100 l 1
 80 100 l 1
 80 90 l 1
 90 90 l 1
 90 80 l 1xa4
 70 80 l 1
 70 90 l 1
 60 90 l 1
 60 100 l 1xe2
 40 100 l 1
 40 90 l 1
 30 90 l 1
 30 80 l 1
 10 80 l 1x92
EndSplineSet
Validated: 1
AlternateSubs2: "'ssty' Math Script Style lookup 4 subtable" asciicircum.ssty asciicircum.ssty2
AlternateSubs2: "'aalt' Access All Alternates lookup 1 subtable" asciicircum.ssty asciicircum.ssty2
EndChar

StartChar: underscore
Encoding: 95 95 66
Width: 110
GlyphClass: 2
Flags: MW
HStem: 0 10<0 100 0 100>
VStem: 0 100<0 10 0 10>
LayerCount: 2
Fore
SplineSet
0 0 m 1
 0 10 l 1
 100 10 l 1
 100 0 l 1
 0 0 l 1
EndSplineSet
Validated: 1
AlternateSubs2: "'ssty' Math Script Style lookup 4 subtable" underscore.ssty underscore.ssty2
AlternateSubs2: "'aalt' Access All Alternates lookup 1 subtable" underscore.ssty underscore.ssty2
EndChar

StartChar: a
Encoding: 97 97 67
Width: 110
GlyphClass: 2
Flags: MW
HStem: 0 10<30 60 10 20 90 100> 50 10<10 30 40 70 40 40> 50 40<20 30 30 30 40 70 40 40> 80 10<10 80 20 80 30 70 30 30 20 90>
VStem: 20 10<0 40 10 40 10 50> 70 20<0 80 0 80 20 50 50 50 60 80 10 80>
LayerCount: 2
Fore
SplineSet
40 40 m 1xac
 30 40 l 1
 30 10 l 1
 60 10 l 1
 60 20 l 1
 70 20 l 1
 70 50 l 1
 40 50 l 1
 40 40 l 1xac
20 10 m 1
 10 10 l 1
 10 40 l 1
 20 40 l 1
 20 50 l 1
 30 50 l 1
 30 60 l 1
 70 60 l 1
 70 80 l 1
 30 80 l 1
 30 70 l 1
 20 70 l 1
 20 60 l 1
 10 60 l 1
 10 80 l 1
 20 80 l 1
 20 90 l 1
 80 90 l 1
 80 80 l 1
 90 80 l 1xdc
 90 10 l 1
 100 10 l 1
 100 0 l 1
 80 0 l 1
 80 10 l 1
 70 10 l 1
 70 0 l 1
 20 0 l 1
 20 10 l 1
EndSplineSet
Validated: 1
AlternateSubs2: "'ssty' Math Script Style lookup 4 subtable" a.ssty a.ssty2
AlternateSubs2: "'aalt' Access All Alternates lookup 1 subtable" a.ssty a.ssty2
EndChar

StartChar: b
Encoding: 98 98 68
Width: 110
GlyphClass: 2
Flags: MW
HStem: 0 10<10 40 40 60 30 40> 80 10<30 70 40 60 40 70 40 70 40 80> 110 10<0 10 0 30>
VStem: 10 20<0 10 0 20 20 70 80 110 110 110> 70 20<0 70 20 70 20 70 20 90 20 80>
LayerCount: 2
Fore
SplineSet
10 110 m 1
 0 110 l 1
 0 120 l 1
 30 120 l 1
 30 80 l 1
 40 80 l 1
 40 90 l 1
 70 90 l 1
 70 80 l 1
 80 80 l 1
 80 70 l 1
 90 70 l 1
 90 20 l 1
 80 20 l 1
 80 10 l 1
 70 10 l 1
 70 0 l 1
 40 0 l 1
 40 10 l 1
 30 10 l 1
 30 0 l 1
 10 0 l 1
 10 110 l 1
40 80 m 1
 40 70 l 1
 30 70 l 1
 30 20 l 1
 40 20 l 1
 40 10 l 1
 60 10 l 1
 60 20 l 1
 70 20 l 1
 70 70 l 1
 60 70 l 1
 60 80 l 1
 40 80 l 1
EndSplineSet
Validated: 5
AlternateSubs2: "'ssty' Math Script Style lookup 4 subtable" b.ssty b.ssty2
AlternateSubs2: "'aalt' Access All Alternates lookup 1 subtable" b.ssty b.ssty2
EndChar

StartChar: c
Encoding: 99 99 69
Width: 110
GlyphClass: 2
Flags: MW
HStem: 0 10<40 70 20 30> 80 10<20 80 30 80 40 40 40 60 30 90>
VStem: 10 20<20 70> 70 10<0 20 10 20 10 20>
LayerCount: 2
Fore
SplineSet
20 20 m 1
 10 20 l 1
 10 70 l 1
 20 70 l 1
 20 80 l 1
 30 80 l 1
 30 90 l 1
 80 90 l 1
 80 80 l 1
 90 80 l 1
 90 60 l 1
 70 60 l 1
 70 70 l 1
 60 70 l 1
 60 80 l 1
 40 80 l 1
 40 70 l 1
 30 70 l 1
 30 20 l 1
 40 20 l 1
 40 10 l 1
 70 10 l 1
 70 20 l 1
 80 20 l 1
 80 30 l 1
 90 30 l 1
 90 20 l 1
 80 20 l 1
 80 10 l 1
 70 10 l 1
 70 0 l 1
 30 0 l 1
 30 10 l 1
 20 10 l 1
 20 20 l 1
EndSplineSet
Validated: 5
AlternateSubs2: "'ssty' Math Script Style lookup 4 subtable" c.ssty c.ssty2
AlternateSubs2: "'aalt' Access All Alternates lookup 1 subtable" c.ssty c.ssty2
EndChar

StartChar: d
Encoding: 100 100 70
Width: 110
GlyphClass: 2
Flags: MW
HStem: 0 10<40 60 90 100> 80 10<20 60 30 60 40 60 40 40 30 70> 110 10<60 70 60 90>
VStem: 10 20<20 70> 70 20<0 120 10 120 20 70 70 70 80 110 110 110>
LayerCount: 2
Fore
SplineSet
20 10 m 1
 20 20 l 1
 10 20 l 1
 10 70 l 1
 20 70 l 1
 20 80 l 1
 30 80 l 1
 30 90 l 1
 60 90 l 1
 60 80 l 1
 70 80 l 1
 70 110 l 1
 60 110 l 1
 60 120 l 1
 90 120 l 1
 90 10 l 1
 100 10 l 1
 100 0 l 1
 70 0 l 1
 70 10 l 1
 60 10 l 1
 60 0 l 1
 30 0 l 1
 30 10 l 1
 20 10 l 1
40 80 m 1
 40 70 l 1
 30 70 l 1
 30 20 l 1
 40 20 l 1
 40 10 l 1
 60 10 l 1
 60 20 l 1
 70 20 l 1
 70 70 l 1
 60 70 l 1
 60 80 l 1
 40 80 l 1
EndSplineSet
Validated: 5
AlternateSubs2: "'ssty' Math Script Style lookup 4 subtable" d.ssty d.ssty2
AlternateSubs2: "'aalt' Access All Alternates lookup 1 subtable" d.ssty d.ssty2
EndChar

StartChar: e
Encoding: 101 101 71
Width: 110
GlyphClass: 2
Flags: MW
HStem: 0 10<40 70> 0 50<30 70 30 70> 40 30<30 40 60 70 80 90 10 30> 80 10<20 70 30 70 40 60 40 40 30 80>
VStem: 10 20<20 40 50 70> 70 20<0 30 10 30 20 30 50 70>
LayerCount: 2
Fore
SplineSet
40 70 m 1xbc
 30 70 l 1xbc
 30 50 l 1
 70 50 l 1x5c
 70 70 l 1
 60 70 l 1
 60 80 l 1
 40 80 l 1
 40 70 l 1xbc
20 10 m 1
 20 20 l 1
 10 20 l 1
 10 70 l 1
 20 70 l 1
 20 80 l 1
 30 80 l 1
 30 90 l 1
 70 90 l 1
 70 80 l 1
 80 80 l 1
 80 70 l 1
 90 70 l 1
 90 40 l 1
 30 40 l 1
 30 20 l 1
 40 20 l 1
 40 10 l 1
 70 10 l 1
 70 20 l 1
 80 20 l 1
 80 30 l 1
 90 30 l 1
 90 20 l 1
 80 20 l 1
 80 10 l 1
 70 10 l 1
 70 0 l 1
 30 0 l 1
 30 10 l 1
 20 10 l 1
EndSplineSet
Validated: 5
AlternateSubs2: "'ssty' Math Script Style lookup 4 subtable" e.ssty e.ssty2
AlternateSubs2: "'aalt' Access All Alternates lookup 1 subtable" e.ssty e.ssty2
EndChar

StartChar: f
Encoding: 102 102 72
Width: 110
GlyphClass: 2
Flags: MW
HStem: 0 10<20 40 60 80 20 40> 80 10<20 40 20 40 60 80> 100 20<70 80 50 90 70 70> 110 10<40 80 50 80 60 60 60 70 50 90>
VStem: 40 20<10 80 10 80 90 110> 70 10<110 110>
LayerCount: 2
Fore
SplineSet
20 10 m 1xcc
 40 10 l 1
 40 80 l 1
 20 80 l 1
 20 90 l 1
 40 90 l 1xc8
 40 110 l 1
 50 110 l 1
 50 120 l 1xd8
 80 120 l 1
 80 110 l 1
 90 110 l 1
 90 100 l 1xec
 70 100 l 1
 70 110 l 1
 60 110 l 1xd8
 60 90 l 1xc8
 80 90 l 1
 80 80 l 1xcc
 60 80 l 1
 60 10 l 1xc8
 80 10 l 1
 80 0 l 1
 20 0 l 1
 20 10 l 1xcc
EndSplineSet
Validated: 1
AlternateSubs2: "'ssty' Math Script Style lookup 4 subtable" f.ssty f.ssty2
AlternateSubs2: "'aalt' Access All Alternates lookup 1 subtable" f.ssty f.ssty2
EndChar

StartChar: g
Encoding: 103 103 73
Width: 110
GlyphClass: 2
Flags: MW
HStem: -10 10<0 10 20 70> -10 40<10 80 30 80 30 80> 0 20<0 10 0 10 20 70 80 90> 20 30<0 20 10 20 10 20 30 60> 70 20<80 100 20 80> 80 10<10 70 20 70 30 60 30 30 20 80>
VStem: 10 10<-10 20 0 20 0 40> 20 10<30 50> 60 10<50 50 80 80> 70 10<-10 20 80 90> 80 20<50 90 80 90 70 90>
LayerCount: 2
Fore
SplineSet
20 20 m 1x2540
 20 0 l 1
 70 0 l 1
 70 20 l 1
 20 20 l 1x2540
60 80 m 1x95a0
 30 80 l 1
 30 50 l 1
 60 50 l 1
 60 80 l 1x95a0
10 -10 m 1x9640
 10 0 l 1
 0 0 l 1
 0 20 l 1
 10 20 l 1
 10 40 l 1
 20 40 l 1
 20 50 l 1
 10 50 l 1
 10 80 l 1xc640
 20 80 l 1
 20 90 l 1
 70 90 l 1
 70 80 l 1
 80 80 l 1x9540
 80 90 l 1
 100 90 l 1
 100 70 l 1x99a0
 80 70 l 1
 80 50 l 1
 70 50 l 1x9940
 70 40 l 1
 30 40 l 1
 30 30 l 1
 80 30 l 1x4540
 80 20 l 1
 90 20 l 1
 90 0 l 1
 80 0 l 1
 80 -10 l 1
 10 -10 l 1x9640
EndSplineSet
Validated: 1
AlternateSubs2: "'ssty' Math Script Style lookup 4 subtable" g.ssty g.ssty2
AlternateSubs2: "'aalt' Access All Alternates lookup 1 subtable" g.ssty g.ssty2
EndChar

StartChar: h
Encoding: 104 104 74
Width: 110
GlyphClass: 2
Flags: MW
HStem: 0 10<0 10 0 10 30 40 60 70 90 100> 80 10<30 70 40 70 40 60 40 70 40 80> 110 10<0 10 0 30>
VStem: 10 20<10 70 80 110 110 110> 70 20<10 70 10 70 10 90 10 80>
LayerCount: 2
Fore
SplineSet
0 0 m 1
 0 10 l 1
 10 10 l 1
 10 110 l 1
 0 110 l 1
 0 120 l 1
 30 120 l 1xf8
 30 80 l 1
 40 80 l 1
 40 90 l 1
 70 90 l 1
 70 80 l 1
 80 80 l 1
 80 70 l 1
 90 70 l 1
 90 10 l 1
 100 10 l 1
 100 0 l 1
 60 0 l 1
 60 10 l 1
 70 10 l 1
 70 70 l 1
 60 70 l 1
 60 80 l 1
 40 80 l 1
 40 70 l 1
 30 70 l 1
 30 10 l 1
 40 10 l 1
 40 0 l 1
 0 0 l 1
EndSplineSet
Validated: 5
AlternateSubs2: "'ssty' Math Script Style lookup 4 subtable" h.ssty h.ssty2
AlternateSubs2: "'aalt' Access All Alternates lookup 1 subtable" h.ssty h.ssty2
EndChar

StartChar: i
Encoding: 105 105 75
Width: 110
GlyphClass: 2
Flags: MW
HStem: 0 10<20 40 20 40 60 80> 80 10<20 40 20 60> 100 20<40 60 40 60>
VStem: 40 20<10 80 80 80 100 120>
LayerCount: 2
Fore
SplineSet
20 0 m 1
 20 10 l 1
 40 10 l 1
 40 80 l 1
 20 80 l 1
 20 90 l 1
 60 90 l 1
 60 10 l 1
 80 10 l 1
 80 0 l 1
 20 0 l 1
60 120 m 1
 60 100 l 1
 40 100 l 1
 40 120 l 1
 60 120 l 1
EndSplineSet
Validated: 1
AlternateSubs2: "'ssty' Math Script Style lookup 4 subtable" i.ssty i.ssty2
AlternateSubs2: "'aalt' Access All Alternates lookup 1 subtable" i.ssty i.ssty2
EndChar

StartChar: j
Encoding: 106 106 76
Width: 110
GlyphClass: 2
Flags: MW
HStem: -10 10<40 60 20 30> 0 20<20 30 20 40 20 60> 80 10<40 60 40 80> 100 20<60 80 60 80>
VStem: 30 10<-10 20 0 20> 60 20<0 80 80 80 100 120>
LayerCount: 2
Fore
SplineSet
80 120 m 1xb4
 80 100 l 1
 60 100 l 1
 60 120 l 1
 80 120 l 1xb4
80 90 m 1xa4
 80 0 l 1
 70 0 l 1
 70 -10 l 1xa4
 30 -10 l 1
 30 0 l 1
 20 0 l 1
 20 20 l 1
 40 20 l 1x6c
 40 0 l 1xac
 60 0 l 1
 60 80 l 1
 40 80 l 1
 40 90 l 1
 80 90 l 1xa4
EndSplineSet
Validated: 1
AlternateSubs2: "'ssty' Math Script Style lookup 4 subtable" j.ssty j.ssty2
AlternateSubs2: "'aalt' Access All Alternates lookup 1 subtable" j.ssty j.ssty2
EndChar

StartChar: k
Encoding: 107 107 77
Width: 110
GlyphClass: 2
Flags: MW
HStem: 0 10<0 10 0 10 30 40 50 60 80 90> 40 10<30 40 30 50 30 40> 80 10<50 60 50 90 70 70 70 90> 110 10<0 10 0 30>
VStem: 10 20<10 40 50 110 110 110> 50 10<0 20 10 20 10 40 60 70>
CounterMasks: 1 e0
LayerCount: 2
Fore
SplineSet
0 0 m 1
 0 10 l 1
 10 10 l 1
 10 110 l 1
 0 110 l 1
 0 120 l 1
 30 120 l 1xb8
 30 50 l 1
 40 50 l 1
 40 60 l 1
 50 60 l 1
 50 70 l 1
 60 70 l 1
 60 80 l 1
 50 80 l 1
 50 90 l 1
 90 90 l 1
 90 80 l 1xac
 70 80 l 1
 70 70 l 1
 60 70 l 1
 60 60 l 1
 50 60 l 1
 50 50 l 1
 60 50 l 1
 60 40 l 1
 70 40 l 1xec
 70 20 l 1
 80 20 l 1
 80 10 l 1
 90 10 l 1
 90 0 l 1
 50 0 l 1
 50 10 l 1
 60 10 l 1
 60 20 l 1
 50 20 l 1xac
 50 40 l 1xec
 30 40 l 1xe8
 30 10 l 1
 40 10 l 1
 40 0 l 1
 0 0 l 1
EndSplineSet
Validated: 5
AlternateSubs2: "'ssty' Math Script Style lookup 4 subtable" k.ssty k.ssty2
AlternateSubs2: "'aalt' Access All Alternates lookup 1 subtable" k.ssty k.ssty2
EndChar

StartChar: l
Encoding: 108 108 78
Width: 110
GlyphClass: 2
Flags: MW
HStem: 0 10<20 40 60 80 20 40> 110 10<30 40 30 60>
VStem: 40 20<10 110 110 110>
LayerCount: 2
Fore
SplineSet
30 120 m 1
 60 120 l 1
 60 10 l 1
 80 10 l 1
 80 0 l 1
 20 0 l 1
 20 10 l 1
 40 10 l 1
 40 110 l 1
 30 110 l 1
 30 120 l 1
EndSplineSet
Validated: 1
AlternateSubs2: "'ssty' Math Script Style lookup 4 subtable" l.ssty l.ssty2
AlternateSubs2: "'aalt' Access All Alternates lookup 1 subtable" l.ssty l.ssty2
EndChar

StartChar: m
Encoding: 109 109 79
Width: 110
GlyphClass: 2
Flags: MW
HStem: 0 10<0 10 0 30 0 10 90 100> 80 10<0 10 0 20 0 30 30 40 60 70>
VStem: 10 20<10 80 0 80> 40 20<0 80 0 80> 70 20<10 80 10 80 10 80>
LayerCount: 2
Fore
SplineSet
0 10 m 1
 10 10 l 1
 10 80 l 1
 0 80 l 1
 0 90 l 1xf0
 20 90 l 1
 20 80 l 1
 30 80 l 1
 30 90 l 1xd0
 50 90 l 1
 50 80 l 1
 60 80 l 1
 60 90 l 1
 80 90 l 1
 80 80 l 1
 90 80 l 1
 90 10 l 1
 100 10 l 1
 100 0 l 1
 70 0 l 1xd8
 70 80 l 1
 60 80 l 1
 60 0 l 1
 40 0 l 1xd0
 40 80 l 1
 30 80 l 1
 30 0 l 1xf0
 0 0 l 1
 0 10 l 1
EndSplineSet
Validated: 5
AlternateSubs2: "'ssty' Math Script Style lookup 4 subtable" m.ssty m.ssty2
AlternateSubs2: "'aalt' Access All Alternates lookup 1 subtable" m.ssty m.ssty2
EndChar

StartChar: n
Encoding: 110 110 80
Width: 110
GlyphClass: 2
Flags: MW
HStem: 0 10<0 10 30 40 0 10 60 70 90 100> 80 10<0 10 0 30 0 40 40 60>
VStem: 10 20<10 70 10 80 10 80> 70 20<10 70 10 70 10 90 10 80>
LayerCount: 2
Fore
SplineSet
10 80 m 1
 0 80 l 1
 0 90 l 1
 30 90 l 1
 30 80 l 1
 40 80 l 1
 40 90 l 1
 70 90 l 1
 70 80 l 1
 80 80 l 1
 80 70 l 1
 90 70 l 1
 90 10 l 1
 100 10 l 1
 100 0 l 1
 60 0 l 1
 60 10 l 1
 70 10 l 1
 70 70 l 1
 60 70 l 1
 60 80 l 1
 40 80 l 1
 40 70 l 1
 30 70 l 1
 30 10 l 1
 40 10 l 1
 40 0 l 1
 0 0 l 1
 0 10 l 1
 10 10 l 1
 10 80 l 1
EndSplineSet
Validated: 5
AlternateSubs2: "'ssty' Math Script Style lookup 4 subtable" n.ssty n.ssty2
AlternateSubs2: "'aalt' Access All Alternates lookup 1 subtable" n.ssty n.ssty2
EndChar

StartChar: o
Encoding: 111 111 81
Width: 110
GlyphClass: 2
Flags: MW
HStem: 0 10<40 60 20 30> 80 10<20 70 30 70 40 60 40 40 30 80>
VStem: 10 20<20 70> 70 20<0 70 20 70 20 70 20 80 20 90>
LayerCount: 2
Fore
SplineSet
40 70 m 1
 30 70 l 1
 30 20 l 1
 40 20 l 1
 40 10 l 1
 60 10 l 1
 60 20 l 1
 70 20 l 1
 70 70 l 1
 60 70 l 1
 60 80 l 1
 40 80 l 1
 40 70 l 1
10 20 m 1
 10 70 l 1
 20 70 l 1
 20 80 l 1
 30 80 l 1
 30 90 l 1
 70 90 l 1
 70 80 l 1
 80 80 l 1
 80 70 l 1
 90 70 l 1
 90 20 l 1
 80 20 l 1
 80 10 l 1
 70 10 l 1
 70 0 l 1
 30 0 l 1
 30 10 l 1
 20 10 l 1
 20 20 l 1
 10 20 l 1
EndSplineSet
Validated: 1
AlternateSubs2: "'ssty' Math Script Style lookup 4 subtable" o.ssty o.ssty2
AlternateSubs2: "'aalt' Access All Alternates lookup 1 subtable" o.ssty o.ssty2
EndChar

StartChar: p
Encoding: 112 112 82
Width: 110
GlyphClass: 2
Flags: MW
HStem: -10 10<10 20 40 50 10 20> -10 30<40 50 40 50> -10 40<40 50 40 50 10 50> 10 10<50 70 40 50> 80 10<10 20 10 40 10 50 50 70>
VStem: 20 20<0 20 30 70> 80 10<10 30 20 70>
LayerCount: 2
Fore
SplineSet
70 80 m 1x2e
 50 80 l 1
 50 70 l 1
 40 70 l 1
 40 30 l 1
 50 30 l 1x2e
 50 20 l 1
 70 20 l 1x4e
 70 30 l 1
 80 30 l 1
 80 70 l 1
 70 70 l 1
 70 80 l 1x2e
20 80 m 1
 10 80 l 1
 10 90 l 1
 40 90 l 1
 40 80 l 1
 50 80 l 1
 50 90 l 1
 80 90 l 1
 80 80 l 1
 90 80 l 1
 90 70 l 1
 100 70 l 1
 100 30 l 1
 90 30 l 1x2e
 90 20 l 1
 80 20 l 1
 80 10 l 1
 50 10 l 1x9e
 50 20 l 1
 40 20 l 1x4e
 40 0 l 1
 50 0 l 1
 50 -10 l 1
 10 -10 l 1
 10 0 l 1
 20 0 l 1x9e
 20 80 l 1
EndSplineSet
Validated: 5
AlternateSubs2: "'ssty' Math Script Style lookup 4 subtable" p.ssty p.ssty2
AlternateSubs2: "'aalt' Access All Alternates lookup 1 subtable" p.ssty p.ssty2
EndChar

StartChar: q
Encoding: 113 113 83
Width: 110
GlyphClass: 2
Flags: MW
HStem: -10 10<60 70 90 100 60 70> -10 30<60 70> -10 40<60 70> 10 10<40 60 20 30> 80 10<20 70 30 70 40 60 40 40 30 80>
VStem: 20 10<10 30> 70 20<0 20 20 20 30 70 70 70 80 80 80 90>
LayerCount: 2
Fore
SplineSet
30 70 m 1x2e
 30 30 l 1
 40 30 l 1x2e
 40 20 l 1
 60 20 l 1x4e
 60 30 l 1
 70 30 l 1
 70 70 l 1
 60 70 l 1
 60 80 l 1
 40 80 l 1
 40 70 l 1
 30 70 l 1x2e
30 20 m 1x9e
 20 20 l 1x9e
 20 30 l 1
 10 30 l 1x2e
 10 70 l 1
 20 70 l 1
 20 80 l 1
 30 80 l 1
 30 90 l 1
 70 90 l 1
 70 80 l 1
 80 80 l 1
 80 90 l 1
 90 90 l 1
 90 0 l 1
 100 0 l 1
 100 -10 l 1
 60 -10 l 1
 60 0 l 1
 70 0 l 1
 70 20 l 1
 60 20 l 1
 60 10 l 1
 30 10 l 1
 30 20 l 1x9e
EndSplineSet
Validated: 5
AlternateSubs2: "'ssty' Math Script Style lookup 4 subtable" q.ssty q.ssty2
AlternateSubs2: "'aalt' Access All Alternates lookup 1 subtable" q.ssty q.ssty2
EndChar

StartChar: r
Encoding: 114 114 84
Width: 110
GlyphClass: 2
Flags: MW
HStem: 0 10<20 30 50 60 20 30> 80 10<20 30 20 50 20 60 60 70>
VStem: 30 20<10 70 10 80 10 80> 70 10<60 90 80 90>
LayerCount: 2
Fore
SplineSet
60 0 m 1
 20 0 l 1
 20 10 l 1
 30 10 l 1
 30 80 l 1
 20 80 l 1
 20 90 l 1
 50 90 l 1
 50 80 l 1
 60 80 l 1
 60 90 l 1xe0
 80 90 l 1
 80 80 l 1
 90 80 l 1
 90 60 l 1
 70 60 l 1xf0
 70 80 l 1
 60 80 l 1
 60 70 l 1
 50 70 l 1
 50 10 l 1
 60 10 l 1
 60 0 l 1
EndSplineSet
Validated: 5
AlternateSubs2: "'ssty' Math Script Style lookup 4 subtable" r.ssty r.ssty2
AlternateSubs2: "'aalt' Access All Alternates lookup 1 subtable" r.ssty r.ssty2
EndChar

StartChar: s
Encoding: 115 115 85
Width: 110
GlyphClass: 2
Flags: MW
HStem: 0 10<10 30 30 70 20 30> 40 10<20 20 50 50 80 80> 80 10<10 70 20 70 30 30 30 70 20 80>
VStem: 10 10<0 10 20 30> 20 10<0 10 0 10> 70 10<0 30 80 90> 80 10<0 40 10 50 10 40 60 70 70 70 80 90>
CounterMasks: 1 e0
LayerCount: 2
Fore
SplineSet
10 50 m 1xf2
 10 80 l 1
 20 80 l 1
 20 90 l 1xaa
 70 90 l 1
 70 80 l 1
 80 80 l 1
 80 90 l 1
 90 90 l 1
 90 60 l 1
 80 60 l 1
 80 70 l 1
 70 70 l 1
 70 80 l 1
 30 80 l 1
 30 60 l 1xb2
 50 60 l 1
 50 50 l 1
 80 50 l 1
 80 40 l 1
 90 40 l 1xf2
 90 10 l 1
 80 10 l 1
 80 0 l 1xb4
 30 0 l 1
 30 10 l 1
 20 10 l 1
 20 0 l 1
 10 0 l 1
 10 30 l 1
 20 30 l 1
 20 20 l 1
 30 20 l 1
 30 10 l 1
 70 10 l 1
 70 30 l 1xb2
 50 30 l 1
 50 40 l 1
 20 40 l 1
 20 50 l 1
 10 50 l 1xf2
EndSplineSet
Validated: 5
AlternateSubs2: "'ssty' Math Script Style lookup 4 subtable" s.ssty s.ssty2
AlternateSubs2: "'aalt' Access All Alternates lookup 1 subtable" s.ssty s.ssty2
EndChar

StartChar: t
Encoding: 116 116 86
Width: 110
GlyphClass: 2
Flags: MW
HStem: 0 10<50 60 30 40> 80 10<10 30 10 30 50 80>
VStem: 30 20<10 80 10 80 90 110> 70 10<0 30 20 30 10 30>
LayerCount: 2
Fore
SplineSet
10 80 m 1
 10 90 l 1
 30 90 l 1
 30 110 l 1
 50 110 l 1
 50 90 l 1
 80 90 l 1
 80 80 l 1
 50 80 l 1xe0
 50 10 l 1
 60 10 l 1
 60 20 l 1
 70 20 l 1
 70 30 l 1
 80 30 l 1
 80 10 l 1
 70 10 l 1
 70 0 l 1xf0
 40 0 l 1
 40 10 l 1
 30 10 l 1
 30 80 l 1
 10 80 l 1
EndSplineSet
Validated: 1
AlternateSubs2: "'ssty' Math Script Style lookup 4 subtable" t.ssty t.ssty2
AlternateSubs2: "'aalt' Access All Alternates lookup 1 subtable" t.ssty t.ssty2
EndChar

StartChar: u
Encoding: 117 117 87
Width: 110
GlyphClass: 2
Flags: MW
HStem: 0 10<40 60 20 30 90 100> 80 10<0 10 0 30 60 70>
VStem: 10 20<20 80 80 80> 70 20<0 90 10 90 20 80 80 80>
LayerCount: 2
Fore
SplineSet
10 20 m 1
 10 80 l 1
 0 80 l 1
 0 90 l 1
 30 90 l 1
 30 20 l 1
 40 20 l 1
 40 10 l 1
 60 10 l 1
 60 20 l 1
 70 20 l 1
 70 80 l 1
 60 80 l 1
 60 90 l 1
 90 90 l 1
 90 10 l 1
 100 10 l 1
 100 0 l 1
 70 0 l 1
 70 10 l 1
 60 10 l 1
 60 0 l 1
 30 0 l 1
 30 10 l 1
 20 10 l 1
 20 20 l 1
 10 20 l 1
EndSplineSet
Validated: 5
AlternateSubs2: "'ssty' Math Script Style lookup 4 subtable" u.ssty u.ssty2
AlternateSubs2: "'aalt' Access All Alternates lookup 1 subtable" u.ssty u.ssty2
EndChar

StartChar: v
Encoding: 118 118 88
Width: 110
GlyphClass: 2
Flags: MW
HStem: 0 40<50 60 30 50> 20 20<30 50 30 40 60 70 60 60> 40 20<20 40 20 30 70 80> 80 10<10 20 10 50 40 40 40 50 70 80 90 90 90 100>
VStem: 30 10<20 60> 40 10<0 40> 50 10<0 20 0 20> 70 10<20 60 40 60 40 60> 80 10<40 80 60 80 60 80>
LayerCount: 2
Fore
SplineSet
20 80 m 1x99
 10 80 l 1
 10 90 l 1
 50 90 l 1
 50 80 l 1
 40 80 l 1x99
 40 60 l 1
 50 60 l 1x35
 50 40 l 1x95
 70 40 l 1x91
 70 60 l 1
 80 60 l 1x3080
 80 80 l 1
 70 80 l 1
 70 90 l 1x91
 100 90 l 1
 100 80 l 1
 90 80 l 1x9080
 90 60 l 1
 80 60 l 1x91
 80 40 l 1
 70 40 l 1x31
 70 20 l 1
 60 20 l 1x53
 60 0 l 1
 50 0 l 1x93
 50 20 l 1
 40 20 l 1x55
 40 40 l 1
 30 40 l 1
 30 60 l 1
 20 60 l 1x39
 20 80 l 1x99
EndSplineSet
Validated: 5
AlternateSubs2: "'ssty' Math Script Style lookup 4 subtable" v.ssty v.ssty2
AlternateSubs2: "'aalt' Access All Alternates lookup 1 subtable" v.ssty v.ssty2
EndChar

StartChar: w
Encoding: 119 119 89
Width: 110
GlyphClass: 2
Flags: MW
HStem: 0 40<30 40 30 40 70 80 30 70> 20 20<20 40 20 40 30 50 30 40> 50 10<50 50 90 90> 50 40<50 60 0 50 90 100 90 90> 80 10<0 10 0 40 30 30 30 40 80 90>
VStem: 20 10<40 60 60 60> 30 10<0 20 0 20 40 60> 40 10<0 50 40 50 20 60 80 90 80 80> 60 10<40 50 50 50> 80 10<0 50 40 50 20 60> 90 10<20 90 60 80 80 80>
LayerCount: 2
Fore
SplineSet
10 80 m 1x8c20
 0 80 l 1
 0 90 l 1
 40 90 l 1
 40 80 l 1
 30 80 l 1x8c20
 30 40 l 1
 40 40 l 1x8d20
 40 60 l 1
 50 60 l 1xaca0
 50 90 l 1
 70 90 l 1x8ca0
 70 40 l 1
 80 40 l 1x8c40
 80 60 l 1
 90 60 l 1xac20
 90 80 l 1
 80 80 l 1
 80 90 l 1x8c40
 100 90 l 1x8c20
 100 50 l 1
 90 50 l 1xac40
 90 20 l 1
 80 20 l 1x4c40
 80 0 l 1
 70 0 l 1x8c40
 70 20 l 1
 60 20 l 1x4ca0
 60 50 l 1
 50 50 l 1x9520
 50 20 l 1
 40 20 l 1x4a20
 40 0 l 1
 30 0 l 1x8a20
 30 20 l 1
 20 20 l 1
 20 60 l 1
 10 60 l 1x4c20
 10 80 l 1x8c20
EndSplineSet
Validated: 1
AlternateSubs2: "'ssty' Math Script Style lookup 4 subtable" w.ssty w.ssty2
AlternateSubs2: "'aalt' Access All Alternates lookup 1 subtable" w.ssty w.ssty2
EndChar

StartChar: x
Encoding: 120 120 90
Width: 110
GlyphClass: 2
Flags: MW
HStem: 0 10<10 20 30 40 10 20 60 70 90 100> 20 10<20 40 30 40 30 40 30 40> 30 30<30 70 40 70 50 60 40 70> 60 10<70 80> 80 10<10 20 10 50 40 40 40 50 70 80 90 90 90 100>
VStem: 30 10<0 20 0 10 20 30> 70 10<10 40 20 40 20 60 20 40 60 70>
CounterMasks: 1 a8
LayerCount: 2
Fore
SplineSet
10 10 m 1x8a
 20 10 l 1
 20 20 l 1
 30 20 l 1
 30 30 l 1
 40 30 l 1xce
 40 50 l 1
 30 50 l 1xae
 30 70 l 1
 20 70 l 1
 20 80 l 1
 10 80 l 1
 10 90 l 1x8e
 50 90 l 1
 50 80 l 1
 40 80 l 1
 40 70 l 1
 50 70 l 1
 50 60 l 1xae
 70 60 l 1
 70 70 l 1
 80 70 l 1
 80 80 l 1
 70 80 l 1
 70 90 l 1x8a
 100 90 l 1
 100 80 l 1
 90 80 l 1
 90 70 l 1
 80 70 l 1
 80 60 l 1
 70 60 l 1x9a
 70 40 l 1
 80 40 l 1xaa
 80 20 l 1
 90 20 l 1
 90 10 l 1
 100 10 l 1
 100 0 l 1x8a
 60 0 l 1
 60 10 l 1
 70 10 l 1
 70 20 l 1
 60 20 l 1
 60 30 l 1xaa
 40 30 l 1
 40 20 l 1
 30 20 l 1
 30 10 l 1
 40 10 l 1
 40 0 l 1x8e
 10 0 l 1
 10 10 l 1x8a
EndSplineSet
Validated: 5
AlternateSubs2: "'ssty' Math Script Style lookup 4 subtable" x.ssty x.ssty2
AlternateSubs2: "'aalt' Access All Alternates lookup 1 subtable" x.ssty x.ssty2
EndChar

StartChar: y
Encoding: 121 121 91
Width: 110
GlyphClass: 2
Flags: MW
HStem: -10 20<20 20 20 30 40 50> 0 10<10 20 10 30 10 40> 40 10<50 70> 60 10 80 10<10 20 10 50 40 40 40 50 70 80 90 90 90 100>
VStem: 20 10<-10 10 0 10> 40 10<-10 10> 70 10<20 60 40 60 40 60> 80 10<40 80 60 80 60 80>
CounterMasks: 1 68
LayerCount: 2
Fore
SplineSet
20 -10 m 1x8e
 20 0 l 1
 10 0 l 1
 10 10 l 1x4e
 30 10 l 1
 30 0 l 1
 40 0 l 1
 40 10 l 1
 50 10 l 1
 50 20 l 1
 40 20 l 1x4a
 40 40 l 1
 30 40 l 1x6a
 30 60 l 1
 20 60 l 1x5a
 20 80 l 1
 10 80 l 1
 10 90 l 1
 50 90 l 1
 50 80 l 1
 40 80 l 1
 40 70 l 1
 50 70 l 1x4a
 50 50 l 1
 60 50 l 1
 60 40 l 1
 70 40 l 1x6b
 70 60 l 1
 80 60 l 1x6a80
 80 80 l 1
 70 80 l 1
 70 90 l 1x4b
 100 90 l 1
 100 80 l 1
 90 80 l 1x4a80
 90 60 l 1
 80 60 l 1x5b
 80 40 l 1
 70 40 l 1
 70 20 l 1
 60 20 l 1x6b
 60 0 l 1
 50 0 l 1
 50 -10 l 1x8a
 20 -10 l 1x8e
EndSplineSet
Validated: 5
AlternateSubs2: "'ssty' Math Script Style lookup 4 subtable" y.ssty y.ssty2
AlternateSubs2: "'aalt' Access All Alternates lookup 1 subtable" y.ssty y.ssty2
EndChar

StartChar: z
Encoding: 122 122 92
Width: 110
GlyphClass: 2
Flags: MW
HStem: 0 10<10 20 10 20 40 70> 20 10<50 50 80 80> 60 10<10 30> 80 10<30 60 30 30 80 80 80 90>
VStem: 10 10<0 30 10 30 60 70> 20 20<10 20 10 30 10 30> 40 10<10 30> 50 10<20 50> 60 20<20 50 20 30 70 80> 80 10<20 30 0 30>
LayerCount: 2
Fore
SplineSet
10 0 m 1x9840
 10 10 l 1
 20 10 l 1x9440
 20 30 l 1
 30 30 l 1
 30 40 l 1
 40 40 l 1xda40
 40 60 l 1
 50 60 l 1
 50 70 l 1
 60 70 l 1
 60 80 l 1x9940
 30 80 l 1
 30 70 l 1
 20 70 l 1
 20 60 l 1
 10 60 l 1xb840
 10 90 l 1
 90 90 l 1
 90 80 l 1
 80 80 l 1x9880
 80 60 l 1
 70 60 l 1
 70 50 l 1
 60 50 l 1xb940
 60 30 l 1
 50 30 l 1
 50 20 l 1
 40 20 l 1
 40 10 l 1x9a40
 70 10 l 1
 70 20 l 1
 80 20 l 1
 80 30 l 1
 90 30 l 1xd840
 90 0 l 1
 10 0 l 1x9840
EndSplineSet
Validated: 1
AlternateSubs2: "'ssty' Math Script Style lookup 4 subtable" z.ssty z.ssty2
AlternateSubs2: "'aalt' Access All Alternates lookup 1 subtable" z.ssty z.ssty2
EndChar

StartChar: braceleft
Encoding: 123 123 93
Width: 110
GlyphClass: 2
Flags: MW
HStem: -10 10<60 80 40 50> 0 21G<40 50 40 40 60 80 80 80> 40 10<20 40 20 30> 60 10<20 40 30 40 30 50 30 40> 110 10<40 80 50 80 60 80 60 60>
VStem: 40 20<0 40 0 40 0 60 0 50 70 110>
LayerCount: 2
Fore
SplineSet
50 120 m 1x9c
 80 120 l 1
 80 110 l 1
 60 110 l 1
 60 70 l 1
 50 70 l 1
 50 60 l 1
 40 60 l 1
 40 50 l 1
 50 50 l 1
 50 40 l 1
 60 40 l 1
 60 0 l 1
 80 0 l 1
 80 -10 l 1x9c
 50 -10 l 1
 50 0 l 1
 40 0 l 1
 40 40 l 1
 30 40 l 1
 30 50 l 1
 20 50 l 1
 20 60 l 1
 30 60 l 1
 30 70 l 1
 40 70 l 1x7c
 40 110 l 1
 50 110 l 1
 50 120 l 1x9c
EndSplineSet
Validated: 1
EndChar

StartChar: bar
Encoding: 124 124 94
Width: 110
GlyphClass: 2
Flags: MW
HStem: 0 21G<0 0 0 30> 100 20G<0 30 30 30>
VStem: 0 30<0 120 0 120>
LayerCount: 2
Fore
SplineSet
0 0 m 1
 0 120 l 1
 30 120 l 1
 30 0 l 1
 0 0 l 1
EndSplineSet
Validated: 1
EndChar

StartChar: braceright
Encoding: 125 125 95
Width: 110
GlyphClass: 2
Flags: MW
HStem: -10 10<30 50 30 60 30 50> 40 10<50 70 60 70 60 80 60 70> 60 10<50 70 50 60> 110 10<30 60 30 50 30 70>
VStem: 50 20<0 40 0 40 70 110>
LayerCount: 2
Fore
SplineSet
30 110 m 1
 30 120 l 1
 60 120 l 1
 60 110 l 1
 70 110 l 1
 70 70 l 1
 80 70 l 1
 80 60 l 1
 90 60 l 1
 90 50 l 1
 80 50 l 1
 80 40 l 1
 70 40 l 1xb8
 70 0 l 1
 60 0 l 1
 60 -10 l 1
 30 -10 l 1
 30 0 l 1
 50 0 l 1
 50 40 l 1
 60 40 l 1
 60 50 l 1
 70 50 l 1
 70 60 l 1
 60 60 l 1
 60 70 l 1
 50 70 l 1xf8
 50 110 l 1
 30 110 l 1
EndSplineSet
Validated: 1
EndChar

StartChar: asciitilde
Encoding: 126 126 96
Width: 110
GlyphClass: 2
Flags: MW
HStem: 50 10<0 20 60 80> 70 10<0 50 10 50 20 20 20 40 10 60>
VStem: 0 10<50 60 50 70> 40 10<50 70> 50 10<50 70 60 70 60 80 60 70> 80 10<50 70> 90 10<50 80 70 80 60 80>
LayerCount: 2
Fore
SplineSet
0 50 m 1xe2
 0 70 l 1
 10 70 l 1
 10 80 l 1x62
 50 80 l 1
 50 70 l 1
 60 70 l 1
 60 60 l 1xea
 80 60 l 1
 80 70 l 1
 90 70 l 1
 90 80 l 1
 90 80 90 80 100 80 c 1x62
 100 60 l 1
 90 60 l 1
 90 50 l 1xe4
 50 50 l 1
 50 60 l 1
 40 60 l 1
 40 70 l 1x72
 20 70 l 1
 20 60 l 1
 10 60 l 1
 10 50 l 1
 0 50 l 1xe2
EndSplineSet
Validated: 1
EndChar

StartChar: exclamdown
Encoding: 161 161 98
Width: 110
GlyphClass: 2
Flags: MW
HStem: 0 80<40 60 40 60> 0 100<40 60 40 60>
VStem: 40 20<0 80 0 80 100 120>
LayerCount: 2
Fore
SplineSet
40 0 m 1xa0
 40 80 l 1
 60 80 l 1
 60 0 l 1
 40 0 l 1xa0
40 100 m 1x60
 60 100 l 1
 60 120 l 1
 40 120 l 1
 40 100 l 1x60
EndSplineSet
Validated: 9
EndChar

StartChar: brokenbar
Encoding: 166 166 99
Width: 110
GlyphClass: 2
Flags: MW
HStem: 0 50<40 60 40 60> 70 50<40 60 40 60>
VStem: 40 20<0 50 0 50 70 120>
LayerCount: 2
Fore
SplineSet
40 50 m 1
 60 50 l 1
 60 0 l 1
 40 0 l 1
 40 50 l 1
40 70 m 1x60
 40 120 l 1
 60 120 l 1
 60 70 l 1
 40 70 l 1x60
EndSplineSet
Validated: 1
EndChar

StartChar: degree
Encoding: 176 176 100
Width: 110
GlyphClass: 2
Flags: MW
HStem: 60 10<30 50 10 20> 60 60<20 60 20 60> 110 10<10 60 20 60 30 50 30 30 20 70>
VStem: 10 10<80 100> 60 10<60 110 80 100 100 100 70 120 70 110>
LayerCount: 2
Fore
SplineSet
20 120 m 1xb8
 60 120 l 1
 60 110 l 1
 70 110 l 1xb8
 70 70 l 1
 60 70 l 1
 60 60 l 1
 20 60 l 1
 20 70 l 1
 10 70 l 1x58
 10 110 l 1
 20 110 l 1
 20 120 l 1xb8
30 110 m 1
 30 100 l 1
 20 100 l 1
 20 80 l 1
 30 80 l 1
 30 70 l 1
 50 70 l 1
 50 80 l 1
 60 80 l 1
 60 100 l 1
 50 100 l 1
 50 110 l 1
 30 110 l 1
EndSplineSet
Validated: 1
AlternateSubs2: "'ssty' Math Script Style lookup 4 subtable" degree.ssty degree.ssty2
AlternateSubs2: "'aalt' Access All Alternates lookup 1 subtable" degree.ssty degree.ssty2
EndChar

StartChar: twosuperior
Encoding: 178 178 101
Width: 110
GlyphClass: 2
Flags: MW
HStem: 50 10<30 70 30 80> 80 10<20 60 30 60 40 60 30 70 40 40> 110 10<10 70 20 70 30 30 30 60 20 80>
VStem: 20 10<60 80> 60 10<90 90 110 110> 70 10<60 70 50 70>
CounterMasks: 1 e0
LayerCount: 2
Fore
SplineSet
30 100 m 1xb8
 10 100 l 1
 10 110 l 1
 20 110 l 1
 20 120 l 1
 70 120 l 1
 70 110 l 1
 80 110 l 1xb4
 80 90 l 1
 70 90 l 1
 70 80 l 1xe8
 40 80 l 1
 40 70 l 1
 30 70 l 1
 30 60 l 1
 70 60 l 1
 70 70 l 1
 80 70 l 1
 80 50 l 1
 10 50 l 1xb4
 10 70 l 1
 20 70 l 1
 20 80 l 1
 30 80 l 1
 30 90 l 1xf8
 60 90 l 1xe8
 60 110 l 1xa8
 30 110 l 1
 30 100 l 1xb8
EndSplineSet
Validated: 1
AlternateSubs2: "'ssty' Math Script Style lookup 4 subtable" twosuperior.ssty twosuperior.ssty2
AlternateSubs2: "'aalt' Access All Alternates lookup 1 subtable" twosuperior.ssty twosuperior.ssty2
EndChar

StartChar: threesuperior
Encoding: 179 179 102
Width: 110
GlyphClass: 2
Flags: MW
HStem: 50 10<30 60 10 20> 80 10<30 60 30 60 70 80> 110 10<10 70 20 70 30 30 30 60 20 80>
VStem: 20 10<50 70 60 70> 60 10<50 80>
CounterMasks: 1 e0
LayerCount: 2
Fore
SplineSet
10 100 m 1
 10 110 l 1
 20 110 l 1
 20 120 l 1xb8
 70 120 l 1
 70 110 l 1
 80 110 l 1
 80 90 l 1
 70 90 l 1
 70 80 l 1
 80 80 l 1
 80 60 l 1
 70 60 l 1
 70 50 l 1xa8
 20 50 l 1
 20 60 l 1
 10 60 l 1
 10 70 l 1
 30 70 l 1
 30 60 l 1xb8
 60 60 l 1xa8
 60 80 l 1
 30 80 l 1
 30 90 l 1
 60 90 l 1xe8
 60 110 l 1xa8
 30 110 l 1
 30 100 l 1
 10 100 l 1
EndSplineSet
Validated: 1
AlternateSubs2: "'ssty' Math Script Style lookup 4 subtable" threesuperior.ssty threesuperior.ssty2
AlternateSubs2: "'aalt' Access All Alternates lookup 1 subtable" threesuperior.ssty threesuperior.ssty2
EndChar

StartChar: onesuperior
Encoding: 185 185 103
Width: 110
GlyphClass: 2
Flags: MW
HStem: 50 10<30 40 30 40 60 70> 100 20<30 60 30 60>
VStem: 40 20<60 100 100 100 110 120 60 120>
LayerCount: 2
Fore
SplineSet
30 50 m 1
 30 60 l 1
 40 60 l 1
 40 100 l 1
 30 100 l 1
 30 110 l 1
 40 110 l 1
 40 120 l 1
 60 120 l 1
 60 60 l 1
 70 60 l 1
 70 50 l 1
 30 50 l 1
EndSplineSet
Validated: 1
AlternateSubs2: "'ssty' Math Script Style lookup 4 subtable" onesuperior.ssty onesuperior.ssty2
AlternateSubs2: "'aalt' Access All Alternates lookup 1 subtable" onesuperior.ssty onesuperior.ssty2
EndChar

StartChar: questiondown
Encoding: 191 191 104
Width: 110
GlyphClass: 2
Flags: MW
HStem: 0 10<40 60 20 30> 20 20<10 20 10 20 30 40 80 90 80 80> 40 10<10 30 20 30 20 30 20 40> 50 10<20 40 30 40 30 40 30 50> 60 20<30 60 40 60 50 50 50 60> 100 20<40 60 40 60>
VStem: 20 10<0 20> 40 20<10 20 10 20 60 80 100 120> 70 10<0 20 10 40>
CounterMasks: 1 0380
LayerCount: 2
Fore
SplineSet
90 40 m 1xd780
 90 20 l 1
 80 20 l 1
 80 10 l 1
 70 10 l 1
 70 0 l 1
 30 0 l 1
 30 10 l 1
 20 10 l 1
 20 20 l 1
 10 20 l 1
 10 40 l 1
 20 40 l 1
 20 50 l 1
 30 50 l 1xef80
 30 60 l 1
 40 60 l 1
 40 80 l 1
 60 80 l 1xcf80
 60 60 l 1
 50 60 l 1
 50 50 l 1
 40 50 l 1
 40 40 l 1
 30 40 l 1
 30 20 l 1
 40 20 l 1
 40 10 l 1
 60 10 l 1
 60 20 l 1
 70 20 l 1
 70 40 l 1
 90 40 l 1xd780
60 120 m 1
 60 100 l 1
 40 100 l 1
 40 120 l 1
 60 120 l 1
EndSplineSet
Validated: 1
EndChar

StartChar: Aacute
Encoding: 193 193 105
Width: 110
GlyphClass: 2
Flags: MW
HStem: 0 10<0 10 20 30 0 10 60 70 90 100> 0 40<10 20 10 30 0 20 80 90> 30 10<30 60 10 20> 80 10<30 50 30 40> 110 10<30 60 40 60 50 50 50 60>
VStem: 10 10<10 30 10 40> 20 10<40 60> 30 10<40 80 60 80 60 90> 40 10<60 80 60 80> 60 10<0 30 10 30>
CounterMasks: 1 02c0
LayerCount: 2
Fore
SplineSet
30 60 m 1xbd40
 30 40 l 1x5d40
 60 40 l 1
 60 60 l 1
 50 60 l 1
 50 80 l 1x5ac0
 40 80 l 1
 40 60 l 1
 30 60 l 1xbd40
30 0 m 1
 0 0 l 1
 0 10 l 1
 10 10 l 1xbb40
 10 40 l 1x5d40
 20 40 l 1
 20 60 l 1
 30 60 l 1
 30 90 l 1
 40 90 l 1
 40 100 l 1
 30 100 l 1
 30 110 l 1
 40 110 l 1
 40 120 l 1
 60 120 l 1
 60 110 l 1
 50 110 l 1
 50 100 l 1
 60 100 l 1
 60 90 l 1
 70 90 l 1
 70 60 l 1
 80 60 l 1
 80 40 l 1
 90 40 l 1
 90 10 l 1
 100 10 l 1
 100 0 l 1
 60 0 l 1
 60 10 l 1
 70 10 l 1
 70 30 l 1
 20 30 l 1
 20 10 l 1
 30 10 l 1xbac0
 30 0 l 1
EndSplineSet
Validated: 5
EndChar

StartChar: Acircumflex
Encoding: 194 194 106
Width: 110
GlyphClass: 2
Flags: MW
HStem: 0 10<0 10 20 30 0 10 60 70 90 100> 0 40<10 20 10 30 0 20 80 90> 30 10<30 60 10 20> 80 10<30 50 30 40> 100 20<30 40 20 60 40 50 50 50 30 60 30 70> 110 10<20 60 30 60 40 40 40 50 30 70>
VStem: 10 10<10 30 10 40> 20 10<0 30 0 10 40 60> 30 10<40 60 60 80> 50 10<60 60 100 100 110 110> 60 10<0 30 10 30>
CounterMasks: 1 02c0
LayerCount: 2
Fore
SplineSet
40 110 m 1x56c0
 40 100 l 1
 50 100 l 1xbac0
 50 110 l 1
 40 110 l 1x56c0
40 60 m 1
 30 60 l 1
 30 40 l 1
 60 40 l 1
 60 60 l 1
 50 60 l 1
 50 80 l 1
 40 80 l 1
 40 60 l 1
30 60 m 1
 30 90 l 1
 40 90 l 1
 40 100 l 1
 20 100 l 1xb920
 20 110 l 1xb520
 30 110 l 1
 30 120 l 1
 60 120 l 1
 60 110 l 1
 70 110 l 1xb6a0
 70 100 l 1
 60 100 l 1
 60 90 l 1
 70 90 l 1
 70 60 l 1
 80 60 l 1
 80 40 l 1
 90 40 l 1
 90 10 l 1
 100 10 l 1
 100 0 l 1
 60 0 l 1
 60 10 l 1
 70 10 l 1
 70 30 l 1
 20 30 l 1
 20 10 l 1
 30 10 l 1
 30 0 l 1
 0 0 l 1
 0 10 l 1
 10 10 l 1xbaa0
 10 40 l 1x56a0
 20 40 l 1
 20 60 l 1x5520
 30 60 l 1
EndSplineSet
Validated: 5
EndChar

StartChar: Aring
Encoding: 197 197 107
Width: 110
GlyphClass: 2
Flags: MW
HStem: 0 10<0 10 20 30 0 10 60 70 90 100> 0 40<10 20 10 30 0 20 80 90> 30 10<30 60 10 20> 80 10 110 10<40 40 40 50>
VStem: 10 10<10 30 10 40> 20 10<40 60> 30 10<40 80 60 80 100 110> 50 10<100 110 110 110> 60 10<0 30 10 30>
LayerCount: 2
Fore
SplineSet
40 110 m 1x5d80
 40 100 l 1
 50 100 l 1
 50 110 l 1
 40 110 l 1x5d80
30 60 m 1
 30 40 l 1
 60 40 l 1
 60 60 l 1
 50 60 l 1
 50 80 l 1
 40 80 l 1
 40 60 l 1
 30 60 l 1
30 0 m 1
 0 0 l 1
 0 10 l 1
 10 10 l 1xbb80
 10 40 l 1x5d80
 20 40 l 1
 20 60 l 1
 30 60 l 1
 30 120 l 1
 60 120 l 1
 60 90 l 1
 70 90 l 1
 70 60 l 1
 80 60 l 1
 80 40 l 1
 90 40 l 1
 90 10 l 1
 100 10 l 1
 100 0 l 1
 60 0 l 1
 60 10 l 1
 70 10 l 1
 70 30 l 1
 20 30 l 1
 20 10 l 1
 30 10 l 1xba40
 30 0 l 1
EndSplineSet
Validated: 5
EndChar

StartChar: Eacute
Encoding: 201 201 108
Width: 110
GlyphClass: 2
Flags: MW
HStem: 0 10<0 10 30 80 0 10> 50 10<30 60 30 60> 70 10<90 90> 90 10<0 10 0 30 0 30 50 80> 90 30<30 60 40 60 40 80> 110 10<30 60 40 60 50 50 50 60>
VStem: 10 20<10 50 60 90> 40 10<100 120> 60 10<30 50 50 50 60 80 30 80> 90 10<20 30 0 30 70 80 80 80>
LayerCount: 2
Fore
SplineSet
10 90 m 1xca40
 0 90 l 1
 0 100 l 1xd640
 30 100 l 1
 30 110 l 1
 40 110 l 1
 40 120 l 1xc740
 60 120 l 1
 60 110 l 1
 50 110 l 1
 50 100 l 1xd740
 100 100 l 1xd6c0
 100 70 l 1
 90 70 l 1
 90 80 l 1
 80 80 l 1
 80 90 l 1
 30 90 l 1xca40
 30 60 l 1xc640
 60 60 l 1xc6c0
 60 80 l 1
 70 80 l 1
 70 30 l 1
 60 30 l 1xe6c0
 60 50 l 1xc6c0
 30 50 l 1
 30 10 l 1xc640
 80 10 l 1
 80 20 l 1
 90 20 l 1
 90 30 l 1
 100 30 l 1
 100 0 l 1xc6c0
 0 0 l 1
 0 10 l 1
 10 10 l 1
 10 90 l 1xca40
EndSplineSet
Validated: 1
EndChar

StartChar: Eth
Encoding: 208 208 109
Width: 110
GlyphClass: 2
Flags: MW
HStem: 0 10<0 10 30 60 0 10> 40 40<70 80 70 80 70 90 90 100> 50 10<0 10 0 10 30 50> 110 10<0 10 0 70 30 60 30 30 0 80>
VStem: 10 20<10 50 10 50 60 110> 80 10<10 40 20 80>
CounterMasks: 1 d0
LayerCount: 2
Fore
SplineSet
50 60 m 1xbc
 50 50 l 1
 30 50 l 1xbc
 30 10 l 1
 60 10 l 1
 60 20 l 1
 70 20 l 1
 70 40 l 1
 80 40 l 1
 80 80 l 1
 70 80 l 1xdc
 70 100 l 1
 60 100 l 1
 60 110 l 1
 30 110 l 1
 30 60 l 1
 50 60 l 1xbc
10 50 m 1
 0 50 l 1
 0 60 l 1
 10 60 l 1xbc
 10 110 l 1
 0 110 l 1
 0 120 l 1
 70 120 l 1
 70 110 l 1
 80 110 l 1
 80 100 l 1
 90 100 l 1
 90 80 l 1
 100 80 l 1
 100 40 l 1
 90 40 l 1xdc
 90 20 l 1
 80 20 l 1
 80 10 l 1
 70 10 l 1
 70 0 l 1
 0 0 l 1
 0 10 l 1
 10 10 l 1
 10 50 l 1
EndSplineSet
Validated: 1
EndChar

StartChar: Odieresis
Encoding: 214 214 110
Width: 110
GlyphClass: 2
Flags: MW
HStem: 0 10<30 70 10 20> 30 30<0 10 0 10 20 30 0 30 70 80 90 100> 80 10<10 80 20 80 30 70 30 30 20 90> 100 20<20 40 20 40 20 50 50 70>
VStem: 10 10<0 30> 20 10<0 30 10 30 10 60 10 30> 50 20<100 120> 80 10<0 30 10 60>
LayerCount: 2
Fore
SplineSet
30 60 m 1xf7
 20 60 l 1
 20 30 l 1
 30 30 l 1
 30 10 l 1
 70 10 l 1
 70 30 l 1
 80 30 l 1
 80 60 l 1
 70 60 l 1
 70 80 l 1
 30 80 l 1
 30 60 l 1xf7
40 100 m 1
 20 100 l 1
 20 120 l 1
 40 120 l 1
 40 100 l 1
0 30 m 1
 0 60 l 1
 10 60 l 1
 10 80 l 1
 20 80 l 1
 20 90 l 1
 80 90 l 1
 80 80 l 1
 90 80 l 1
 90 60 l 1
 100 60 l 1
 100 30 l 1
 90 30 l 1
 90 10 l 1
 80 10 l 1
 80 0 l 1
 20 0 l 1
 20 10 l 1
 10 10 l 1
 10 30 l 1xfb
 0 30 l 1
70 100 m 1
 50 100 l 1
 50 120 l 1
 70 120 l 1
 70 100 l 1
EndSplineSet
Validated: 1
EndChar

StartChar: multiply
Encoding: 215 215 111
Width: 110
GlyphClass: 2
Flags: MW
HStem: 20 10<0 10 0 10 90 100> 40 10<10 30 20 30> 70 10<10 30 10 20> 80 10<0 20 0 10> 90 10<0 10 0 10 90 100>
VStem: 10 10<10 20 10 20 100 110> 30 10<20 40> 60 10<20 40> 80 10<10 20 10 20 100 110>
LayerCount: 2
Fore
SplineSet
10 90 m 1x8c80
 0 90 l 1
 0 100 l 1
 10 100 l 1
 10 110 l 1
 20 110 l 1
 20 100 l 1
 30 100 l 1
 30 90 l 1
 40 90 l 1
 40 80 l 1xa680
 60 80 l 1
 60 90 l 1
 70 90 l 1
 70 100 l 1
 80 100 l 1
 80 110 l 1
 90 110 l 1
 90 100 l 1
 100 100 l 1
 100 90 l 1
 90 90 l 1
 90 80 l 1
 80 80 l 1
 80 70 l 1
 70 70 l 1xa580
 70 50 l 1
 80 50 l 1
 80 40 l 1
 90 40 l 1
 90 30 l 1
 100 30 l 1
 100 20 l 1
 90 20 l 1
 90 10 l 1
 80 10 l 1
 80 20 l 1
 70 20 l 1
 70 30 l 1
 60 30 l 1
 60 40 l 1xd580
 40 40 l 1
 40 30 l 1
 30 30 l 1
 30 20 l 1
 20 20 l 1
 20 10 l 1
 10 10 l 1
 10 20 l 1
 0 20 l 1
 0 30 l 1
 10 30 l 1
 10 40 l 1
 20 40 l 1
 20 50 l 1
 30 50 l 1xd680
 30 70 l 1
 20 70 l 1
 20 80 l 1
 10 80 l 1
 10 90 l 1x8c80
EndSplineSet
Validated: 1
AlternateSubs2: "'ssty' Math Script Style lookup 4 subtable" multiply.ssty multiply.ssty2
AlternateSubs2: "'aalt' Access All Alternates lookup 1 subtable" multiply.ssty multiply.ssty2
EndChar

StartChar: Uacute
Encoding: 218 218 112
Width: 110
GlyphClass: 2
Flags: MW
HStem: 0 10<40 70 20 30> 90 10<0 10 0 40 30 30 30 40 70 80 90 90 90 100> 90 30<30 80 70 70 70 80 60 90 60 100> 100 20<50 80 60 70 70 80 60 100> 110 10<50 80 60 80 70 70 70 80>
VStem: 10 20<20 90> 80 10<10 20 20 90>
LayerCount: 2
Fore
SplineSet
90 20 m 1xce
 80 20 l 1
 80 10 l 1
 70 10 l 1
 70 0 l 1
 30 0 l 1
 30 10 l 1
 20 10 l 1
 20 20 l 1
 10 20 l 1
 10 90 l 1
 0 90 l 1
 0 100 l 1xce
 40 100 l 1
 40 90 l 1
 30 90 l 1xa6
 30 20 l 1
 40 20 l 1
 40 10 l 1
 70 10 l 1
 70 20 l 1
 80 20 l 1
 80 90 l 1
 70 90 l 1
 70 100 l 1x96
 50 100 l 1
 50 110 l 1
 60 110 l 1
 60 120 l 1x8e
 80 120 l 1
 80 110 l 1
 70 110 l 1
 70 100 l 1
 100 100 l 1
 100 90 l 1
 90 90 l 1
 90 20 l 1xce
EndSplineSet
Validated: 5
EndChar

StartChar: Udieresis
Encoding: 220 220 113
Width: 110
GlyphClass: 2
Flags: MW
HStem: 0 10<40 70 20 30> 80 10<0 10 0 40 30 30 30 40 70 80 90 90 90 100> 100 20<30 50 30 50 30 60 60 80>
VStem: 10 20<20 80> 30 10<0 20 10 20 10 80 10 20> 70 10<0 20 10 20 10 20> 80 10<10 80 20 80 20 80>
LayerCount: 2
Fore
SplineSet
10 20 m 1xd2
 10 80 l 1
 0 80 l 1
 0 90 l 1
 40 90 l 1
 40 80 l 1
 30 80 l 1xd2
 30 20 l 1
 40 20 l 1
 40 10 l 1
 70 10 l 1
 70 20 l 1
 80 20 l 1xca
 80 80 l 1
 70 80 l 1
 70 90 l 1xd4
 100 90 l 1
 100 80 l 1
 90 80 l 1
 90 20 l 1
 80 20 l 1
 80 10 l 1
 70 10 l 1
 70 0 l 1
 30 0 l 1
 30 10 l 1
 20 10 l 1
 20 20 l 1
 10 20 l 1xd2
60 100 m 1xf4
 60 120 l 1
 80 120 l 1
 80 100 l 1
 60 100 l 1xf4
30 100 m 1xea
 30 120 l 1xea
 50 120 l 1
 50 100 l 1xf2
 30 100 l 1xea
EndSplineSet
Validated: 5
EndChar

StartChar: germandbls
Encoding: 223 223 114
Width: 110
GlyphClass: 3
Flags: MW
HStem: 0 10<0 10 30 40 0 10 60 70> 50 10<50 80 50 70> 60 10<50 70 50 70 80 90> 70 20 80 20<70 80 70 80 70 90 90 100> 110 10<20 80 30 80 40 70 40 40 30 90>
VStem: 10 20<10 90> 50 10<0 20 10 20> 80 10<0 20 10 50>
LayerCount: 2
Fore
SplineSet
30 10 m 1xd780
 40 10 l 1
 40 20 l 1
 60 20 l 1
 60 10 l 1
 70 10 l 1
 70 20 l 1
 80 20 l 1
 80 50 l 1
 70 50 l 1xcf80
 70 60 l 1
 50 60 l 1
 50 70 l 1
 70 70 l 1
 70 80 l 1
 80 80 l 1
 80 100 l 1
 70 100 l 1xaf80
 70 110 l 1
 40 110 l 1
 40 90 l 1
 30 90 l 1
 30 10 l 1xd780
80 10 m 1
 80 0 l 1
 50 0 l 1
 50 10 l 1
 40 10 l 1
 40 0 l 1
 0 0 l 1
 0 10 l 1
 10 10 l 1
 10 90 l 1
 20 90 l 1xd780
 20 110 l 1
 30 110 l 1
 30 120 l 1
 80 120 l 1
 80 110 l 1
 90 110 l 1
 90 100 l 1
 100 100 l 1
 100 80 l 1
 90 80 l 1
 90 70 l 1
 80 70 l 1xaf80
 80 60 l 1
 90 60 l 1
 90 50 l 1
 100 50 l 1
 100 20 l 1
 90 20 l 1
 90 10 l 1
 80 10 l 1
EndSplineSet
Validated: 5
EndChar

StartChar: agrave
Encoding: 224 224 115
Width: 110
GlyphClass: 2
Flags: MW
HStem: 0 10<30 60 10 20 90 100> 50 10<10 30 40 70 40 40> 50 40<20 30 30 30 40 70 40 40> 80 10<10 80 20 80 30 70 30 30 20 90> 100 20<40 50 30 60 40 40> 110 10<30 40 30 50 30 60>
VStem: 20 10<0 40 10 40 10 50> 40 10<100 110 110 110> 70 20<0 80 0 80 20 50 50 50 60 80 10 80>
LayerCount: 2
Fore
SplineSet
40 40 m 1xa780
 30 40 l 1
 30 10 l 1
 60 10 l 1
 60 20 l 1
 70 20 l 1
 70 50 l 1
 40 50 l 1
 40 40 l 1xa780
50 110 m 1
 60 110 l 1xd780
 60 100 l 1
 40 100 l 1xdb80
 40 110 l 1
 30 110 l 1
 30 120 l 1
 50 120 l 1
 50 110 l 1
20 10 m 1
 10 10 l 1
 10 40 l 1
 20 40 l 1
 20 50 l 1
 30 50 l 1
 30 60 l 1
 70 60 l 1
 70 80 l 1
 30 80 l 1
 30 70 l 1
 20 70 l 1
 20 60 l 1
 10 60 l 1
 10 80 l 1
 20 80 l 1
 20 90 l 1
 80 90 l 1
 80 80 l 1
 90 80 l 1
 90 10 l 1
 100 10 l 1
 100 0 l 1
 80 0 l 1
 80 10 l 1
 70 10 l 1
 70 0 l 1
 20 0 l 1
 20 10 l 1
EndSplineSet
Validated: 1
EndChar

StartChar: aacute
Encoding: 225 225 116
Width: 110
GlyphClass: 2
Flags: MW
HStem: 0 10<30 60 10 20 90 100> 50 10<10 30 40 70 40 40> 50 40<20 30 30 30 40 70 40 40> 80 10<10 80 20 80 30 70 30 30 20 90> 100 20<40 50 30 60> 110 10<30 60 40 60 50 60 50 50>
VStem: 20 10<0 40 10 40 10 50> 40 10<100 120> 70 20<0 80 0 80 20 50 50 50 60 80 10 80>
LayerCount: 2
Fore
SplineSet
40 40 m 1xa780
 30 40 l 1
 30 10 l 1
 60 10 l 1
 60 20 l 1
 70 20 l 1
 70 50 l 1
 40 50 l 1
 40 40 l 1xa780
50 110 m 1xd780
 50 100 l 1
 30 100 l 1xdb80
 30 110 l 1
 40 110 l 1
 40 120 l 1
 60 120 l 1
 60 110 l 1
 50 110 l 1xd780
20 10 m 1
 10 10 l 1
 10 40 l 1
 20 40 l 1
 20 50 l 1
 30 50 l 1
 30 60 l 1
 70 60 l 1
 70 80 l 1
 30 80 l 1
 30 70 l 1
 20 70 l 1
 20 60 l 1
 10 60 l 1
 10 80 l 1
 20 80 l 1
 20 90 l 1
 80 90 l 1
 80 80 l 1
 90 80 l 1
 90 10 l 1
 100 10 l 1
 100 0 l 1
 80 0 l 1
 80 10 l 1
 70 10 l 1
 70 0 l 1
 20 0 l 1
 20 10 l 1
EndSplineSet
Validated: 1
EndChar

StartChar: acircumflex
Encoding: 226 226 117
Width: 110
GlyphClass: 2
Flags: MW
HStem: 0 10<30 60 10 20 90 100> 50 10<10 30 40 40 40 70> 50 40<20 30 30 30 40 40 40 70> 80 10<10 80 20 80 30 30 30 70 20 90> 100 20<30 40 20 60 50 50 50 60 30 70> 110 10<20 60 30 60 40 40 40 50 30 70>
VStem: 20 10<0 40 10 40 10 50> 30 10<10 50 40 60> 50 10<110 110> 70 20<0 80 0 80 20 50 50 50 60 80 10 80>
LayerCount: 2
Fore
SplineSet
40 50 m 1xd6c0
 40 40 l 1xa9c0
 30 40 l 1
 30 10 l 1
 60 10 l 1
 60 20 l 1
 70 20 l 1
 70 50 l 1
 40 50 l 1xd6c0
40 100 m 1xd9c0
 20 100 l 1xdac0
 20 110 l 1
 30 110 l 1
 30 120 l 1
 60 120 l 1
 60 110 l 1
 70 110 l 1xd6c0
 70 100 l 1
 50 100 l 1xdac0
 50 110 l 1
 40 110 l 1xd5c0
 40 100 l 1xd9c0
30 70 m 1
 20 70 l 1
 20 60 l 1
 10 60 l 1
 10 80 l 1
 20 80 l 1
 20 90 l 1
 80 90 l 1
 80 80 l 1
 90 80 l 1xd6c0
 90 10 l 1
 100 10 l 1
 100 0 l 1
 80 0 l 1
 80 10 l 1
 70 10 l 1
 70 0 l 1
 20 0 l 1
 20 10 l 1
 10 10 l 1
 10 40 l 1
 20 40 l 1
 20 50 l 1xa6c0
 30 50 l 1
 30 60 l 1
 70 60 l 1
 70 80 l 1
 30 80 l 1
 30 70 l 1
EndSplineSet
Validated: 1
EndChar

StartChar: atilde
Encoding: 227 227 118
Width: 110
GlyphClass: 2
Flags: MW
HStem: 0 10<30 60 10 20 90 100> 50 10<10 30 40 70 40 40> 50 40<20 30 30 30 40 70 40 40> 80 10<10 80 20 80 30 70 30 30 20 90> 100 10<20 30 20 30 50 70> 110 10<20 50 30 50 30 50 30 50 30 70 70 80>
VStem: 20 10<0 40 10 40 10 50 100 110> 70 20<0 80 0 80 20 50 50 50 60 80 10 80>
LayerCount: 2
Fore
SplineSet
40 40 m 1xab
 30 40 l 1
 30 10 l 1
 60 10 l 1
 60 20 l 1
 70 20 l 1
 70 50 l 1
 40 50 l 1
 40 40 l 1xab
50 110 m 1
 30 110 l 1
 30 100 l 1
 20 100 l 1xdb
 20 110 l 1
 30 110 l 1
 30 120 l 1
 50 120 l 1
 50 110 l 1
 70 110 l 1
 70 120 l 1
 80 120 l 1xd7
 80 110 l 1
 70 110 l 1
 70 100 l 1
 50 100 l 1
 50 110 l 1
20 10 m 1
 10 10 l 1
 10 40 l 1
 20 40 l 1
 20 50 l 1
 30 50 l 1
 30 60 l 1
 70 60 l 1
 70 80 l 1
 30 80 l 1
 30 70 l 1
 20 70 l 1
 20 60 l 1
 10 60 l 1
 10 80 l 1
 20 80 l 1
 20 90 l 1
 80 90 l 1
 80 80 l 1
 90 80 l 1
 90 10 l 1
 100 10 l 1
 100 0 l 1
 80 0 l 1
 80 10 l 1
 70 10 l 1
 70 0 l 1
 20 0 l 1
 20 10 l 1
EndSplineSet
Validated: 5
EndChar

StartChar: adieresis
Encoding: 228 228 119
Width: 110
GlyphClass: 2
Flags: MW
HStem: 0 10<30 60 10 20 90 100> 50 10<10 30 40 70 40 40> 50 40<20 30 30 30 40 70 40 40> 80 10<10 80 20 80 30 70 30 30 20 90> 100 20<20 40 20 40 20 50 50 70>
VStem: 20 10<0 40 10 40 10 50> 50 20<100 120> 70 20<0 80 0 80 20 50 50 50 60 80 10 80>
LayerCount: 2
Fore
SplineSet
40 40 m 1xad
 30 40 l 1
 30 10 l 1
 60 10 l 1
 60 20 l 1
 70 20 l 1
 70 50 l 1
 40 50 l 1
 40 40 l 1xad
40 100 m 1
 20 100 l 1
 20 120 l 1
 40 120 l 1
 40 100 l 1
20 10 m 1
 10 10 l 1
 10 40 l 1
 20 40 l 1
 20 50 l 1
 30 50 l 1
 30 60 l 1
 70 60 l 1
 70 80 l 1
 30 80 l 1
 30 70 l 1
 20 70 l 1
 20 60 l 1
 10 60 l 1
 10 80 l 1
 20 80 l 1
 20 90 l 1
 80 90 l 1
 80 80 l 1
 90 80 l 1xdd
 90 10 l 1
 100 10 l 1
 100 0 l 1
 80 0 l 1
 80 10 l 1
 70 10 l 1
 70 0 l 1
 20 0 l 1
 20 10 l 1
70 100 m 1
 50 100 l 1
 50 120 l 1xde
 70 120 l 1
 70 100 l 1
EndSplineSet
Validated: 1
EndChar

StartChar: ccedilla
Encoding: 231 231 120
Width: 110
GlyphClass: 2
Flags: MW
HStem: -10 10<30 50 30 50> 0 20<40 50 50 50 50 60 50 50> 10 10<40 50 20 30 60 60 60 70> 60 10<80 90> 80 10<20 70 30 70 40 40 40 60 30 80>
VStem: 20 10<20 20 30 30 70 70 80 80> 30 20<-10 0 -10 0 -10 20> 50 10<-10 10 0 10 0 10> 70 10<10 30 20 30 20 30> 80 10<20 40 30 40 30 40>
CounterMasks: 1 0540
LayerCount: 2
Fore
SplineSet
30 -10 m 1x8a80
 30 0 l 1x8a80
 50 0 l 1
 50 10 l 1xad80
 30 10 l 1
 30 20 l 1
 20 20 l 1
 20 30 l 1
 10 30 l 1
 10 70 l 1
 20 70 l 1
 20 80 l 1
 30 80 l 1
 30 90 l 1xac80
 70 90 l 1
 70 80 l 1
 80 80 l 1
 80 70 l 1
 90 70 l 1
 90 60 l 1x9c40
 70 60 l 1
 70 70 l 1
 60 70 l 1
 60 80 l 1
 40 80 l 1
 40 70 l 1
 30 70 l 1
 30 30 l 1
 40 30 l 1
 40 20 l 1x4c80
 70 20 l 1
 70 30 l 1
 80 30 l 1
 80 40 l 1
 90 40 l 1
 90 30 l 1
 80 30 l 1
 80 20 l 1
 70 20 l 1
 70 10 l 1
 60 10 l 1
 60 0 l 1
 50 0 l 1
 50 -10 l 1
 30 -10 l 1x8a80
EndSplineSet
Validated: 5
EndChar

StartChar: egrave
Encoding: 232 232 121
Width: 110
GlyphClass: 2
Flags: MW
HStem: 0 10<40 70> 0 50<30 70 30 70> 40 30<30 40 60 70 80 90 10 30> 40 50<30 70 30 90 30 70> 80 10<20 70 30 70 40 60 40 40 30 80> 100 10<50 60 30 40> 110 10<30 40 30 50 30 60>
VStem: 10 20<20 40 50 70> 30 10<0 20 10 20 10 40 10 20> 40 10<100 120 110 120> 70 20<0 30 10 30 20 30 50 70>
LayerCount: 2
Fore
SplineSet
40 70 m 1xaca0
 30 70 l 1xad60
 30 50 l 1
 70 50 l 1x4d60
 70 70 l 1
 60 70 l 1
 60 80 l 1
 40 80 l 1
 40 70 l 1xaca0
60 110 m 1
 60 100 l 1
 40 100 l 1x94a0
 40 110 l 1
 30 110 l 1
 30 120 l 1
 50 120 l 1
 50 110 l 1xab60
 60 110 l 1
20 10 m 1
 20 20 l 1
 10 20 l 1
 10 70 l 1
 20 70 l 1
 20 80 l 1
 30 80 l 1
 30 90 l 1
 70 90 l 1
 70 80 l 1
 80 80 l 1
 80 70 l 1
 90 70 l 1xad60
 90 40 l 1
 30 40 l 1
 30 20 l 1
 40 20 l 1
 40 10 l 1
 70 10 l 1
 70 20 l 1
 80 20 l 1
 80 30 l 1
 90 30 l 1
 90 20 l 1
 80 20 l 1
 80 10 l 1
 70 10 l 1
 70 0 l 1
 30 0 l 1
 30 10 l 1
 20 10 l 1
EndSplineSet
Validated: 5
EndChar

StartChar: eacute
Encoding: 233 233 122
Width: 110
GlyphClass: 2
Flags: MW
HStem: 0 10<40 70> 0 50<30 70 30 70> 40 30<30 40 60 70 80 90 10 30> 40 50<30 70 30 90 30 70> 80 10<20 70 30 70 40 60 40 40 30 80> 100 20<40 50 30 60> 110 10<30 60 40 60 50 50 50 60>
VStem: 10 20<20 40 50 70> 30 10<0 20 10 20 10 40 10 20> 40 10<110 110> 70 20<0 30 10 30 20 30 50 70>
LayerCount: 2
Fore
SplineSet
40 70 m 1xaaa0
 30 70 l 1xaca0
 30 50 l 1
 70 50 l 1x4b60
 70 70 l 1
 60 70 l 1
 60 80 l 1
 40 80 l 1
 40 70 l 1xaaa0
50 100 m 1xad60
 30 100 l 1x9560
 30 110 l 1
 40 110 l 1
 40 120 l 1
 60 120 l 1
 60 110 l 1
 50 110 l 1xab60
 50 100 l 1xad60
20 10 m 1
 20 20 l 1
 10 20 l 1
 10 70 l 1
 20 70 l 1
 20 80 l 1
 30 80 l 1
 30 90 l 1
 70 90 l 1
 70 80 l 1
 80 80 l 1
 80 70 l 1
 90 70 l 1xab60
 90 40 l 1
 30 40 l 1
 30 20 l 1
 40 20 l 1
 40 10 l 1
 70 10 l 1
 70 20 l 1
 80 20 l 1
 80 30 l 1
 90 30 l 1
 90 20 l 1
 80 20 l 1
 80 10 l 1
 70 10 l 1
 70 0 l 1
 30 0 l 1
 30 10 l 1
 20 10 l 1
EndSplineSet
Validated: 5
EndChar

StartChar: ecircumflex
Encoding: 234 234 123
Width: 110
GlyphClass: 2
Flags: MW
HStem: 0 10<40 70> 0 50<30 70 30 70> 40 30<30 40 60 70 80 90 10 30> 40 50<30 70 30 90 30 70> 80 10<20 70 30 70 40 60 40 40 30 80> 100 20<30 40 20 60 50 60 30 70 50 50>
VStem: 10 20<20 40 50 70> 30 10<0 20 10 20 10 40 10 20> 50 10<110 110> 60 10<70 70 80 80 110 110> 70 20<0 30 10 30 20 30 50 70>
LayerCount: 2
Fore
SplineSet
40 70 m 1xad40
 30 70 l 1xaea0
 30 50 l 1
 70 50 l 1x4e40
 70 70 l 1
 60 70 l 1
 60 80 l 1
 40 80 l 1
 40 70 l 1xad40
60 110 m 1
 70 110 l 1
 70 100 l 1
 50 100 l 1
 50 110 l 1
 40 110 l 1
 40 100 l 1
 20 100 l 1
 20 110 l 1
 30 110 l 1
 30 120 l 1
 60 120 l 1
 60 110 l 1
20 10 m 1
 20 20 l 1
 10 20 l 1
 10 70 l 1
 20 70 l 1
 20 80 l 1
 30 80 l 1
 30 90 l 1
 70 90 l 1
 70 80 l 1
 80 80 l 1
 80 70 l 1
 90 70 l 1xaea0
 90 40 l 1
 30 40 l 1
 30 20 l 1
 40 20 l 1
 40 10 l 1x95a0
 70 10 l 1
 70 20 l 1
 80 20 l 1
 80 30 l 1
 90 30 l 1
 90 20 l 1
 80 20 l 1
 80 10 l 1
 70 10 l 1
 70 0 l 1
 30 0 l 1
 30 10 l 1
 20 10 l 1
EndSplineSet
Validated: 5
EndChar

StartChar: igrave
Encoding: 236 236 124
Width: 110
GlyphClass: 2
Flags: MW
HStem: 0 10<20 40 60 80 20 40> 80 10<20 40 20 60> 100 20<40 50 30 60 40 40> 110 10<30 50 30 40 30 60>
VStem: 40 20<10 80 80 80 100 110>
LayerCount: 2
Fore
SplineSet
30 110 m 1xd8
 30 120 l 1xd8
 50 120 l 1
 50 110 l 1
 60 110 l 1
 60 100 l 1xe8
 40 100 l 1
 40 110 l 1
 30 110 l 1xd8
80 0 m 1
 20 0 l 1
 20 10 l 1
 40 10 l 1
 40 80 l 1
 20 80 l 1
 20 90 l 1
 60 90 l 1xc8
 60 10 l 1
 80 10 l 1
 80 0 l 1
EndSplineSet
Validated: 1
EndChar

StartChar: iacute
Encoding: 237 237 125
Width: 110
GlyphClass: 2
Flags: MW
HStem: 0 10<20 40 60 80 20 40> 80 10<20 40 20 60> 100 20<40 70 50 60> 110 10<40 70 50 70 60 60 60 70>
VStem: 40 20<10 80 80 80 100 110>
LayerCount: 2
Fore
SplineSet
40 80 m 1xc8
 20 80 l 1
 20 90 l 1
 60 90 l 1
 60 10 l 1
 80 10 l 1
 80 0 l 1
 20 0 l 1
 20 10 l 1
 40 10 l 1
 40 80 l 1xc8
40 100 m 1xe8
 40 110 l 1
 50 110 l 1
 50 120 l 1xd8
 70 120 l 1
 70 110 l 1
 60 110 l 1
 60 100 l 1
 40 100 l 1xe8
EndSplineSet
Validated: 1
EndChar

StartChar: ntilde
Encoding: 241 241 126
Width: 110
GlyphClass: 2
Flags: MW
HStem: 0 10<0 10 30 40 0 10 60 70 90 100> 80 10<0 10 0 30 0 40 40 60> 80 20<0 30 20 40 20 40 50 60 20 40>
VStem: 10 20<10 70 10 80 10 80> 30 10<0 70 0 10 80 90> 40 10 60 10<0 70 10 70 10 80> 70 20<10 70 10 70 10 90 10 80>
LayerCount: 2
Fore
SplineSet
10 80 m 1xd1
 0 80 l 1
 0 90 l 1
 30 90 l 1
 30 80 l 1
 40 80 l 1
 40 90 l 1
 70 90 l 1
 70 80 l 1
 80 80 l 1
 80 70 l 1
 90 70 l 1
 90 10 l 1
 100 10 l 1
 100 0 l 1
 60 0 l 1
 60 10 l 1
 70 10 l 1
 70 70 l 1
 60 70 l 1
 60 80 l 1
 40 80 l 1
 40 70 l 1
 30 70 l 1xd1
 30 10 l 1
 40 10 l 1
 40 0 l 1xc9
 0 0 l 1
 0 10 l 1
 10 10 l 1
 10 80 l 1xd1
30 100 m 1xb5
 30 110 l 1
 50 110 l 1
 50 100 l 1xb5
 70 100 l 1
 70 110 l 1
 80 110 l 1
 80 120 l 1
 70 120 l 1
 70 110 l 1
 50 110 l 1
 50 120 l 1xb2
 30 120 l 1
 30 110 l 1
 20 110 l 1
 20 100 l 1
 30 100 l 1xb5
EndSplineSet
Validated: 5
EndChar

StartChar: ograve
Encoding: 242 242 127
Width: 110
GlyphClass: 2
Flags: MW
HStem: 0 10<40 60 20 30> 80 10<20 70 30 70 40 60 40 40 30 80> 100 20<40 50 30 60 40 40> 110 10<30 40 30 50 30 60>
VStem: 10 20<20 70> 30 10<0 20 10 20 10 70 10 20> 40 10<100 120 110 120> 70 20<0 70 20 70 20 70 20 80 20 90>
LayerCount: 2
Fore
SplineSet
40 70 m 1xd5
 30 70 l 1
 30 20 l 1
 40 20 l 1
 40 10 l 1
 60 10 l 1
 60 20 l 1
 70 20 l 1
 70 70 l 1
 60 70 l 1
 60 80 l 1
 40 80 l 1
 40 70 l 1xd5
40 110 m 1
 30 110 l 1
 30 120 l 1
 50 120 l 1
 50 110 l 1
 60 110 l 1xdb
 60 100 l 1
 40 100 l 1xeb
 40 110 l 1
80 70 m 1
 90 70 l 1
 90 20 l 1
 80 20 l 1
 80 10 l 1
 70 10 l 1
 70 0 l 1
 30 0 l 1
 30 10 l 1
 20 10 l 1
 20 20 l 1
 10 20 l 1
 10 70 l 1
 20 70 l 1
 20 80 l 1
 30 80 l 1
 30 90 l 1
 70 90 l 1
 70 80 l 1
 80 80 l 1
 80 70 l 1
EndSplineSet
Validated: 1
EndChar

StartChar: oacute
Encoding: 243 243 128
Width: 110
GlyphClass: 2
Flags: MW
HStem: 0 10<40 60 20 30> 80 10<20 70 30 70 40 60 40 40 30 80> 100 20<50 60 40 70> 110 10<40 70 50 70 60 70 60 60>
VStem: 10 20<20 70> 50 10<110 110> 60 10<0 20> 70 20<0 70 20 70 20 70 20 80 20 90>
LayerCount: 2
Fore
SplineSet
70 20 m 1xda
 70 70 l 1
 60 70 l 1
 60 80 l 1
 40 80 l 1
 40 70 l 1
 30 70 l 1
 30 20 l 1
 40 20 l 1
 40 10 l 1
 60 10 l 1
 60 20 l 1
 70 20 l 1xda
10 20 m 1
 10 70 l 1
 20 70 l 1
 20 80 l 1
 30 80 l 1
 30 90 l 1
 70 90 l 1
 70 80 l 1
 80 80 l 1
 80 70 l 1
 90 70 l 1
 90 20 l 1xdd
 80 20 l 1
 80 10 l 1
 70 10 l 1
 70 0 l 1
 30 0 l 1
 30 10 l 1
 20 10 l 1
 20 20 l 1
 10 20 l 1
70 120 m 1
 70 110 l 1
 60 110 l 1xda
 60 100 l 1
 40 100 l 1xea
 40 110 l 1
 50 110 l 1
 50 120 l 1
 70 120 l 1
EndSplineSet
Validated: 1
EndChar

StartChar: ocircumflex
Encoding: 244 244 129
Width: 110
GlyphClass: 2
Flags: MW
HStem: 0 10<40 60 20 30> 80 10<20 70 30 70 40 60 40 40 30 80> 100 20<30 40 20 60 50 60 30 70 50 50>
VStem: 10 20<20 70> 30 10<0 20 10 20 10 70 10 20> 50 10<110 110> 60 10<0 20> 70 20<0 70 20 70 20 70 20 80 20 90>
LayerCount: 2
Fore
SplineSet
40 70 m 1xea
 30 70 l 1
 30 20 l 1
 40 20 l 1
 40 10 l 1
 60 10 l 1
 60 20 l 1
 70 20 l 1
 70 70 l 1
 60 70 l 1
 60 80 l 1
 40 80 l 1
 40 70 l 1xea
60 110 m 1
 70 110 l 1
 70 100 l 1
 50 100 l 1
 50 110 l 1xf5
 40 110 l 1
 40 100 l 1
 20 100 l 1
 20 110 l 1
 30 110 l 1
 30 120 l 1
 60 120 l 1
 60 110 l 1
10 20 m 1
 10 70 l 1
 20 70 l 1
 20 80 l 1
 30 80 l 1
 30 90 l 1
 70 90 l 1
 70 80 l 1
 80 80 l 1
 80 70 l 1
 90 70 l 1
 90 20 l 1
 80 20 l 1
 80 10 l 1
 70 10 l 1
 70 0 l 1
 30 0 l 1
 30 10 l 1
 20 10 l 1
 20 20 l 1
 10 20 l 1
EndSplineSet
Validated: 1
EndChar

StartChar: odieresis
Encoding: 246 246 130
Width: 110
GlyphClass: 2
Flags: MW
HStem: 0 10<40 60 20 30> 80 10<20 70 30 70 40 60 40 40 30 80> 100 20<20 40 20 40 60 80>
VStem: 10 20<20 70> 30 10<0 20 10 20 10 70 10 20> 60 10<0 20> 70 20<0 70 20 70 20 70 20 80 20 90>
LayerCount: 2
Fore
SplineSet
40 70 m 1xec
 30 70 l 1
 30 20 l 1
 40 20 l 1
 40 10 l 1
 60 10 l 1
 60 20 l 1
 70 20 l 1
 70 70 l 1
 60 70 l 1
 60 80 l 1
 40 80 l 1
 40 70 l 1xec
20 100 m 1
 20 120 l 1
 40 120 l 1
 40 100 l 1
 20 100 l 1
10 20 m 1xf2
 10 70 l 1
 20 70 l 1
 20 80 l 1
 30 80 l 1
 30 90 l 1
 70 90 l 1
 70 80 l 1
 80 80 l 1
 80 70 l 1
 90 70 l 1
 90 20 l 1
 80 20 l 1
 80 10 l 1
 70 10 l 1
 70 0 l 1
 30 0 l 1
 30 10 l 1
 20 10 l 1
 20 20 l 1
 10 20 l 1xf2
60 100 m 1xf4
 60 120 l 1
 80 120 l 1
 80 100 l 1
 60 100 l 1xf4
EndSplineSet
Validated: 1
EndChar

StartChar: divide
Encoding: 247 247 131
Width: 110
GlyphClass: 2
Flags: MW
HStem: 0 30<40 60 40 60> 50 20<0 100 0 100> 90 30<40 60 40 60>
VStem: 0 100<50 70 50 70> 40 20<0 30 0 30 90 120>
CounterMasks: 1 e0
LayerCount: 2
Fore
SplineSet
0 50 m 1x50
 0 70 l 1
 100 70 l 1
 100 50 l 1
 0 50 l 1x50
40 0 m 1xe8
 40 30 l 1
 60 30 l 1
 60 0 l 1
 40 0 l 1xe8
40 90 m 1
 40 120 l 1
 60 120 l 1
 60 90 l 1
 40 90 l 1
EndSplineSet
Validated: 1
AlternateSubs2: "'ssty' Math Script Style lookup 4 subtable" divide.ssty divide.ssty2
AlternateSubs2: "'aalt' Access All Alternates lookup 1 subtable" divide.ssty divide.ssty2
EndChar

StartChar: uacute
Encoding: 250 250 132
Width: 110
GlyphClass: 2
Flags: MW
HStem: 0 10<40 60 20 30 90 100> 80 10<0 10 0 30 60 70> 100 20<50 60 40 70> 110 10<40 70 50 70 60 60 60 70>
VStem: 10 20<20 80 80 80> 50 10<110 110> 60 10<0 10 0 10 0 20> 70 20<0 90 10 90 20 80 80 80>
LayerCount: 2
Fore
SplineSet
10 20 m 1xc9
 10 80 l 1
 0 80 l 1
 0 90 l 1
 30 90 l 1
 30 20 l 1
 40 20 l 1
 40 10 l 1
 60 10 l 1
 60 20 l 1
 70 20 l 1xc9
 70 80 l 1
 60 80 l 1
 60 90 l 1xca
 90 90 l 1
 90 10 l 1
 100 10 l 1
 100 0 l 1
 70 0 l 1
 70 10 l 1
 60 10 l 1
 60 0 l 1
 30 0 l 1
 30 10 l 1
 20 10 l 1
 20 20 l 1
 10 20 l 1xc9
60 100 m 1xed
 40 100 l 1
 40 110 l 1
 50 110 l 1
 50 120 l 1xdd
 70 120 l 1
 70 110 l 1
 60 110 l 1
 60 100 l 1xed
EndSplineSet
Validated: 5
EndChar

StartChar: udieresis
Encoding: 252 252 133
Width: 110
GlyphClass: 2
Flags: MW
HStem: 0 10<40 60 20 30 90 100> 80 10<0 10 0 30 60 70> 100 20<20 40 20 40 60 80>
VStem: 10 20<20 80 80 80> 20 20<10 20 10 20 100 120> 70 20<0 90 10 90 20 80 80 80>
LayerCount: 2
Fore
SplineSet
10 20 m 1xd4
 10 80 l 1
 0 80 l 1
 0 90 l 1
 30 90 l 1
 30 20 l 1
 40 20 l 1
 40 10 l 1
 60 10 l 1
 60 20 l 1
 70 20 l 1
 70 80 l 1
 60 80 l 1
 60 90 l 1
 90 90 l 1
 90 10 l 1
 100 10 l 1
 100 0 l 1
 70 0 l 1
 70 10 l 1
 60 10 l 1
 60 0 l 1
 30 0 l 1
 30 10 l 1
 20 10 l 1
 20 20 l 1
 10 20 l 1xd4
60 100 m 1xf4
 60 120 l 1
 80 120 l 1
 80 100 l 1
 60 100 l 1xf4
20 100 m 1
 20 120 l 1xf4
 40 120 l 1
 40 100 l 1xec
 20 100 l 1
EndSplineSet
Validated: 5
EndChar

StartChar: yacute
Encoding: 253 253 134
Width: 110
GlyphClass: 2
Flags: MW
HStem: -10 20<20 20 20 30 40 50> 0 10<10 20 10 30 10 40> 40 10<50 70> 60 10 80 10<10 20 10 50 40 40 40 50 70 80 90 90 90 100> 100 20<60 70 50 80> 110 10<50 80 60 80 70 70 70 80>
VStem: 20 10<-10 10 0 10> 40 10<-10 10> 60 10<0 40 40 50 20 40> 70 10<20 60 40 60 40 60> 80 10<40 80 60 80 60 80>
CounterMasks: 1 68
LayerCount: 2
Fore
SplineSet
20 -10 m 1x8920
 20 0 l 1
 10 0 l 1
 10 10 l 1x4920
 30 10 l 1
 30 0 l 1
 40 0 l 1
 40 10 l 1
 50 10 l 1
 50 20 l 1
 40 20 l 1x49a0
 40 40 l 1
 30 40 l 1x69a0
 30 60 l 1
 20 60 l 1x59a0
 20 80 l 1
 10 80 l 1
 10 90 l 1
 50 90 l 1
 50 80 l 1
 40 80 l 1
 40 70 l 1
 50 70 l 1x49a0
 50 50 l 1
 60 50 l 1
 60 40 l 1
 70 40 l 1x6920
 70 60 l 1
 80 60 l 1x6910
 80 80 l 1
 70 80 l 1
 70 90 l 1x4920
 100 90 l 1
 100 80 l 1
 90 80 l 1x4910
 90 60 l 1
 80 60 l 1x5920
 80 40 l 1
 70 40 l 1
 70 20 l 1
 60 20 l 1x6920
 60 0 l 1
 50 0 l 1
 50 -10 l 1x89a0
 20 -10 l 1x8920
70 100 m 1x4d40
 50 100 l 1
 50 110 l 1
 60 110 l 1
 60 120 l 1x4b40
 80 120 l 1
 80 110 l 1
 70 110 l 1
 70 100 l 1x4d40
EndSplineSet
Validated: 5
EndChar

StartChar: abreve
Encoding: 259 259 135
Width: 110
GlyphClass: 2
Flags: MW
HStem: 0 10<30 60 10 20 90 100> 50 10<10 30 40 40 40 70> 50 40<20 30 30 30 40 40 40 70> 80 10<10 80 20 80 30 30 30 70 20 90> 100 10<40 70 30 40> 100 20<30 70 30 40>
VStem: 20 10<0 40 10 40 10 50> 30 10<10 50 40 60 110 120> 70 20<0 80 0 80 20 50 50 50 60 80 10 80>
LayerCount: 2
Fore
SplineSet
40 50 m 1xd680
 40 40 l 1xa580
 30 40 l 1
 30 10 l 1
 60 10 l 1
 60 20 l 1
 70 20 l 1
 70 50 l 1
 40 50 l 1xd680
30 70 m 1
 20 70 l 1
 20 60 l 1
 10 60 l 1
 10 80 l 1
 20 80 l 1
 20 90 l 1
 80 90 l 1
 80 80 l 1
 90 80 l 1
 90 10 l 1
 100 10 l 1
 100 0 l 1
 80 0 l 1
 80 10 l 1
 70 10 l 1
 70 0 l 1
 20 0 l 1
 20 10 l 1
 10 10 l 1
 10 40 l 1
 20 40 l 1
 20 50 l 1
 30 50 l 1
 30 60 l 1
 70 60 l 1
 70 80 l 1
 30 80 l 1xda80
 30 70 l 1
40 110 m 1xd980
 30 110 l 1xda80
 30 120 l 1
 40 120 l 1xd580
 40 110 l 1
 70 110 l 1xd980
 70 120 l 1
 80 120 l 1xd680
 80 110 l 1
 70 110 l 1
 70 100 l 1
 40 100 l 1
 40 110 l 1xd980
EndSplineSet
Validated: 5
EndChar

StartChar: Aogonek
Encoding: 260 260 136
Width: 110
GlyphClass: 2
Flags: MW
HStem: -10 10<70 80 80 100> 10 10<0 10 20 30 0 10 60 70 90 100> 40 10<30 60 10 20> 70 30<20 40 30 40 30 40 30 40 30 50 30 60> 100 20<30 60 40 60 40 50 40 60 40 70 40 70>
VStem: 10 10<20 40 20 50> 20 10<10 40 10 20 50 70> 30 10<50 70 70 100> 50 10<70 70 100 100> 60 10<0 20> 70 10<0 10>
LayerCount: 2
Fore
SplineSet
40 70 m 1xf5a0
 30 70 l 1
 30 50 l 1
 60 50 l 1
 60 70 l 1
 50 70 l 1
 50 100 l 1
 40 100 l 1
 40 70 l 1xf5a0
80 -10 m 1
 80 0 l 1xeda0
 70 0 l 1
 70 10 l 1
 60 10 l 1
 60 20 l 1
 70 20 l 1
 70 40 l 1
 20 40 l 1
 20 20 l 1
 30 20 l 1
 30 10 l 1
 0 10 l 1
 0 20 l 1
 10 20 l 1
 10 50 l 1xed40
 20 50 l 1
 20 70 l 1
 30 70 l 1xf2a0
 30 100 l 1
 40 100 l 1
 40 120 l 1
 60 120 l 1xed40
 60 100 l 1
 70 100 l 1
 70 70 l 1
 80 70 l 1
 80 50 l 1
 90 50 l 1
 90 20 l 1
 100 20 l 1
 100 10 l 1
 80 10 l 1
 80 0 l 1
 100 0 l 1
 100 -10 l 1
 80 -10 l 1
EndSplineSet
Validated: 5
EndChar

StartChar: aogonek
Encoding: 261 261 137
Width: 110
GlyphClass: 2
Flags: MW
HStem: -10 10<70 80 80 100> 0 20<90 100> 10 10<30 60 10 20 90 100> 60 10<10 30 40 70 40 40> 60 30<10 30 10 30 40 70 40 40> 70 20<10 20 10 20 30 70> 80 10<10 30 10 20> 90 10<10 80 20 80 30 70 30 30 20 90>
VStem: 20 10<10 50 20 50 20 60> 70 20<0 90 20 90 30 60 60 60 70 90 20 90>
LayerCount: 2
Fore
SplineSet
40 50 m 1x48c0
 30 50 l 1
 30 20 l 1
 60 20 l 1
 60 30 l 1
 70 30 l 1
 70 60 l 1
 40 60 l 1
 40 50 l 1x48c0
80 -10 m 1xb2c0
 80 0 l 1
 70 0 l 1
 70 20 l 1
 60 20 l 1
 60 10 l 1
 20 10 l 1xb2c0
 20 20 l 1
 10 20 l 1
 10 50 l 1
 20 50 l 1
 20 60 l 1
 30 60 l 1x48c0
 30 70 l 1
 70 70 l 1xa4c0
 70 90 l 1
 30 90 l 1
 30 80 l 1
 20 80 l 1xb2c0
 20 70 l 1
 10 70 l 1xa4c0
 10 90 l 1
 20 90 l 1
 20 100 l 1
 80 100 l 1xb1c0
 80 90 l 1
 90 90 l 1
 90 20 l 1
 100 20 l 1
 100 10 l 1
 80 10 l 1
 80 0 l 1
 100 0 l 1
 100 -10 l 1
 80 -10 l 1xb2c0
EndSplineSet
Validated: 5
EndChar

StartChar: cacute
Encoding: 263 263 138
Width: 110
GlyphClass: 2
Flags: MW
HStem: 0 10<40 70 20 30> 80 10<20 80 30 80 40 40 40 60 30 90> 80 20<20 60 30 60 40 60 40 60>
VStem: 10 20<20 70> 30 10<0 20 10 20 10 70 10 20> 70 10<0 20 10 20 10 20>
LayerCount: 2
Fore
SplineSet
20 20 m 1xd4
 10 20 l 1xd4
 10 70 l 1
 20 70 l 1
 20 80 l 1
 30 80 l 1
 30 90 l 1xcc
 80 90 l 1
 80 80 l 1
 90 80 l 1
 90 60 l 1
 70 60 l 1
 70 70 l 1
 60 70 l 1
 60 80 l 1
 40 80 l 1
 40 70 l 1
 30 70 l 1
 30 20 l 1
 40 20 l 1
 40 10 l 1
 70 10 l 1
 70 20 l 1
 80 20 l 1
 80 30 l 1
 90 30 l 1
 90 20 l 1
 80 20 l 1
 80 10 l 1
 70 10 l 1
 70 0 l 1
 30 0 l 1
 30 10 l 1
 20 10 l 1
 20 20 l 1xd4
40 100 m 1xac
 60 100 l 1
 60 110 l 1
 70 110 l 1
 70 120 l 1xb4
 50 120 l 1
 50 110 l 1
 40 110 l 1
 40 100 l 1xac
EndSplineSet
Validated: 5
EndChar

StartChar: Ccaron
Encoding: 268 268 139
Width: 110
GlyphClass: 2
Flags: MW
HStem: 0 10<40 80 20 30> 20 10<0 20 0 10 90 100> 80 10<20 80 30 80 40 40 40 70 30 90> 100 20<40 50 60 70 40 40> 110 10<30 40 30 50 30 60 70 80 70 70>
VStem: 10 10<10 30> 30 10<0 20 10 20 10 20 10 30> 40 10<100 120 110 120> 60 10<110 110> 70 10<70 70 80 80 110 110> 90 10<10 30 20 30 20 30 50 60 60 60 80 90>
CounterMasks: 1 0a80
LayerCount: 2
Fore
SplineSet
90 20 m 1xe420
 90 10 l 1
 80 10 l 1
 80 0 l 1xad20
 30 0 l 1
 30 10 l 1
 20 10 l 1
 20 20 l 1
 10 20 l 1
 10 30 l 1
 0 30 l 1xe420
 0 60 l 1
 10 60 l 1
 10 70 l 1
 20 70 l 1
 20 80 l 1
 30 80 l 1
 30 90 l 1
 80 90 l 1
 80 80 l 1
 90 80 l 1
 90 90 l 1
 100 90 l 1xa620
 100 50 l 1
 90 50 l 1
 90 60 l 1
 80 60 l 1
 80 70 l 1
 70 70 l 1
 70 80 l 1
 40 80 l 1
 40 70 l 1
 30 70 l 1
 30 60 l 1
 20 60 l 1xa460
 20 30 l 1
 30 30 l 1
 30 20 l 1
 40 20 l 1
 40 10 l 1xa620
 80 10 l 1
 80 20 l 1
 90 20 l 1
 90 30 l 1
 100 30 l 1
 100 20 l 1
 90 20 l 1xe420
60 120 m 1
 80 120 l 1
 80 110 l 1
 70 110 l 1
 70 100 l 1xb4a0
 40 100 l 1
 40 110 l 1
 30 110 l 1
 30 120 l 1xae20
 50 120 l 1
 50 110 l 1
 60 110 l 1
 60 120 l 1
EndSplineSet
Validated: 5
EndChar

StartChar: ccaron
Encoding: 269 269 140
Width: 110
GlyphClass: 2
Flags: MW
HStem: 0 10<40 70 20 30> 80 10<20 80 30 80 40 40 40 60 30 90> 100 20<30 40 50 60 30 30> 110 10<20 30 20 40 20 50 60 70 60 60>
VStem: 10 20<20 70> 30 10<0 20 10 20 10 20 10 70> 50 10<110 110> 70 10<0 10 10 20>
LayerCount: 2
Fore
SplineSet
70 120 m 1xd5
 70 110 l 1
 60 110 l 1
 60 100 l 1xeb
 30 100 l 1
 30 110 l 1
 20 110 l 1
 20 120 l 1
 40 120 l 1
 40 110 l 1
 50 110 l 1
 50 120 l 1
 70 120 l 1xd5
80 10 m 1xc9
 70 10 l 1
 70 0 l 1
 30 0 l 1
 30 10 l 1
 20 10 l 1
 20 20 l 1
 10 20 l 1xc9
 10 70 l 1
 20 70 l 1
 20 80 l 1
 30 80 l 1
 30 90 l 1xc5
 80 90 l 1
 80 80 l 1
 90 80 l 1
 90 60 l 1
 70 60 l 1
 70 70 l 1
 60 70 l 1
 60 80 l 1
 40 80 l 1
 40 70 l 1
 30 70 l 1xc9
 30 20 l 1
 40 20 l 1
 40 10 l 1xc5
 70 10 l 1
 70 20 l 1
 80 20 l 1
 80 30 l 1
 90 30 l 1
 90 20 l 1
 80 20 l 1
 80 10 l 1xc9
EndSplineSet
Validated: 5
EndChar

StartChar: dcroat
Encoding: 273 273 141
Width: 110
GlyphClass: 2
Flags: MW
HStem: 0 10<40 60 20 30 90 100> 80 10<20 60 30 60 40 60 40 40 30 70> 100 10<50 70 50 70 90 100> 100 20<50 90 70 90 70 100>
VStem: 10 20<20 70> 50 10 70 20<0 100 10 100 20 70 70 70 80 100 10 100 110 120>
LayerCount: 2
Fore
SplineSet
60 80 m 1xde
 40 80 l 1
 40 70 l 1
 30 70 l 1
 30 20 l 1
 40 20 l 1
 40 10 l 1
 60 10 l 1
 60 20 l 1
 70 20 l 1
 70 70 l 1
 60 70 l 1
 60 80 l 1xde
30 10 m 1
 20 10 l 1
 20 20 l 1
 10 20 l 1
 10 70 l 1
 20 70 l 1
 20 80 l 1
 30 80 l 1
 30 90 l 1
 60 90 l 1
 60 80 l 1
 70 80 l 1
 70 100 l 1
 50 100 l 1
 50 110 l 1
 70 110 l 1xee
 70 120 l 1
 90 120 l 1xde
 90 110 l 1
 100 110 l 1xee
 100 100 l 1
 90 100 l 1
 90 10 l 1
 100 10 l 1
 100 0 l 1
 70 0 l 1
 70 10 l 1
 60 10 l 1
 60 0 l 1
 30 0 l 1
 30 10 l 1
EndSplineSet
Validated: 5
EndChar

StartChar: eogonek
Encoding: 281 281 142
Width: 110
GlyphClass: 2
Flags: MW
HStem: -10 10<40 50 50 70> 10 10<20 40 20 30 50 50 50 70> 50 10<30 70 30 90 30 70> 50 40<30 70 30 90 30 70> 80 10<20 70 30 70 40 60 40 40 30 80>
VStem: 10 20<30 50 60 70> 40 10<0 10> 70 10<10 30 20 30 20 30> 80 10<20 40 30 40 30 40>
LayerCount: 2
Fore
SplineSet
40 70 m 1xef
 30 70 l 1
 30 60 l 1
 70 60 l 1
 70 70 l 1
 60 70 l 1
 60 80 l 1
 40 80 l 1
 40 70 l 1xef
50 -10 m 1
 50 0 l 1
 40 0 l 1
 40 10 l 1
 30 10 l 1
 30 20 l 1
 20 20 l 1
 20 30 l 1
 10 30 l 1
 10 70 l 1
 20 70 l 1
 20 80 l 1
 30 80 l 1
 30 90 l 1
 70 90 l 1
 70 80 l 1
 80 80 l 1xef
 80 70 l 1
 90 70 l 1
 90 50 l 1xd680
 30 50 l 1
 30 30 l 1
 40 30 l 1
 40 20 l 1
 70 20 l 1
 70 30 l 1xef
 80 30 l 1
 80 40 l 1
 90 40 l 1
 90 30 l 1xee80
 80 30 l 1
 80 20 l 1
 70 20 l 1
 70 10 l 1
 50 10 l 1
 50 0 l 1
 70 0 l 1
 70 -10 l 1
 50 -10 l 1
EndSplineSet
Validated: 5
EndChar

StartChar: ecaron
Encoding: 283 283 143
Width: 110
GlyphClass: 2
Flags: MW
HStem: 0 10<40 70> 0 50<30 70 30 70> 40 30<30 40 60 70 80 90 10 30> 40 50<30 70 30 90 30 70> 80 10<20 70 30 70 40 60 40 40 30 80> 100 20<30 40 50 60 30 30> 110 10<20 30 20 40 20 50 60 70 60 60>
VStem: 10 20<20 40 50 70> 30 10<0 20 10 20 10 40 10 20> 50 10<110 110> 70 20<0 30 10 30 20 30 50 70>
LayerCount: 2
Fore
SplineSet
40 70 m 1xaae0
 30 70 l 1xaae0
 30 50 l 1
 70 50 l 1x4b60
 70 70 l 1
 60 70 l 1
 60 80 l 1
 40 80 l 1
 40 70 l 1xaae0
70 120 m 1
 70 110 l 1
 60 110 l 1xab60
 60 100 l 1
 30 100 l 1xad60
 30 110 l 1
 20 110 l 1
 20 120 l 1
 40 120 l 1
 40 110 l 1
 50 110 l 1
 50 120 l 1
 70 120 l 1
20 10 m 1
 20 20 l 1
 10 20 l 1
 10 70 l 1
 20 70 l 1
 20 80 l 1
 30 80 l 1
 30 90 l 1
 70 90 l 1
 70 80 l 1
 80 80 l 1
 80 70 l 1
 90 70 l 1xab60
 90 40 l 1
 30 40 l 1
 30 20 l 1
 40 20 l 1
 40 10 l 1x92e0
 70 10 l 1
 70 20 l 1
 80 20 l 1
 80 30 l 1
 90 30 l 1
 90 20 l 1
 80 20 l 1
 80 10 l 1
 70 10 l 1
 70 0 l 1
 30 0 l 1
 30 10 l 1
 20 10 l 1
EndSplineSet
Validated: 5
EndChar

StartChar: dotlessi
Encoding: 305 305 144
Width: 110
GlyphClass: 2
Flags: MW
HStem: 0 10<20 40 20 40 60 80> 80 10<20 40 20 60>
VStem: 40 20<10 80 80 80>
LayerCount: 2
Fore
SplineSet
20 0 m 1
 20 10 l 1
 40 10 l 1
 40 80 l 1
 20 80 l 1
 20 90 l 1
 60 90 l 1
 60 10 l 1
 80 10 l 1
 80 0 l 1
 20 0 l 1
EndSplineSet
Validated: 1
AlternateSubs2: "'ssty' Math Script Style lookup 4 subtable" dotlessi.ssty dotlessi.ssty2
AlternateSubs2: "'aalt' Access All Alternates lookup 1 subtable" dotlessi.ssty dotlessi.ssty2
EndChar

StartChar: lacute
Encoding: 314 314 145
Width: 110
GlyphClass: 2
Flags: MW
HStem: 0 10<20 40 60 80 20 40> 90 10<30 40 30 60> 100 20<30 90 70 80 60 90 60 90> 110 10<60 90 70 90 80 80 80 90>
VStem: 40 20<10 90 90 90> 70 10<110 110>
LayerCount: 2
Fore
SplineSet
60 100 m 1xa8
 60 10 l 1x98
 80 10 l 1
 80 0 l 1
 20 0 l 1
 20 10 l 1x9c
 40 10 l 1
 40 90 l 1
 30 90 l 1
 30 100 l 1xd8
 60 100 l 1
 60 110 l 1
 70 110 l 1
 70 120 l 1x9c
 90 120 l 1
 90 110 l 1
 80 110 l 1
 80 100 l 1xac
 60 100 l 1xa8
EndSplineSet
Validated: 5
EndChar

StartChar: lcaron
Encoding: 318 318 146
Width: 110
GlyphClass: 2
Flags: MW
HStem: 0 10<20 40 60 80 20 40> 100 20<70 80 30 70> 110 10<30 60 30 40>
VStem: 40 20<10 110 110 110> 70 20<80 90 90 90 100 120>
LayerCount: 2
Fore
SplineSet
30 110 m 1xb0
 30 120 l 1
 60 120 l 1
 60 10 l 1
 80 10 l 1
 80 0 l 1
 20 0 l 1
 20 10 l 1
 40 10 l 1
 40 110 l 1
 30 110 l 1xb0
90 90 m 1xb8
 80 90 l 1
 80 80 l 1
 70 80 l 1
 70 90 l 1
 80 90 l 1
 80 100 l 1
 70 100 l 1xd8
 70 120 l 1
 90 120 l 1
 90 90 l 1xb8
EndSplineSet
Validated: 5
EndChar

StartChar: Lslash
Encoding: 321 321 147
Width: 110
GlyphClass: 2
Flags: MW
HStem: 0 10<0 10 30 80 0 10> 40 10<0 10 0 10> 60 10<30 40 30 40> 70 10<30 50 40 50 40 50 40 50> 110 10<0 10 0 40 30 30 30 40>
VStem: 10 20<10 40 40 40 50 60 10 70 70 110> 90 10<20 40 0 40>
LayerCount: 2
Fore
SplineSet
40 70 m 1xae
 40 80 l 1
 50 80 l 1
 50 90 l 1
 60 90 l 1
 60 80 l 1
 50 80 l 1
 50 70 l 1
 40 70 l 1
 40 60 l 1
 30 60 l 1
 30 10 l 1
 80 10 l 1
 80 20 l 1
 90 20 l 1
 90 40 l 1
 100 40 l 1
 100 0 l 1
 0 0 l 1
 0 10 l 1
 10 10 l 1x9e
 10 40 l 1
 0 40 l 1
 0 50 l 1
 10 50 l 1xee
 10 110 l 1
 0 110 l 1
 0 120 l 1
 40 120 l 1
 40 110 l 1
 30 110 l 1
 30 70 l 1
 40 70 l 1xae
EndSplineSet
Validated: 5
EndChar

StartChar: lslash
Encoding: 322 322 148
Width: 110
GlyphClass: 2
Flags: MW
HStem: 0 10<20 40 60 80 20 40> 40 10<20 30 20 30> 50 10<20 40 30 40 30 40 30 40> 80 10<60 80 70 80 70 80 70 80> 110 10<30 40 30 60>
VStem: 20 10<40 50 40 50> 40 20<10 50 50 50 60 70 80 110 110 110> 70 10<80 90>
CounterMasks: 1 07
LayerCount: 2
Fore
SplineSet
20 40 m 1xce
 20 50 l 1
 30 50 l 1
 30 60 l 1
 40 60 l 1
 40 110 l 1
 30 110 l 1
 30 120 l 1
 60 120 l 1xca
 60 80 l 1
 70 80 l 1
 70 90 l 1
 80 90 l 1
 80 80 l 1
 70 80 l 1
 70 70 l 1
 60 70 l 1
 60 10 l 1xba
 80 10 l 1
 80 0 l 1
 20 0 l 1
 20 10 l 1xaf
 40 10 l 1xaa
 40 50 l 1
 30 50 l 1
 30 40 l 1
 20 40 l 1xce
EndSplineSet
Validated: 5
EndChar

StartChar: nacute
Encoding: 324 324 149
Width: 110
GlyphClass: 2
Flags: MW
HStem: 0 10<0 10 30 40 0 10 60 70 90 100> 80 10<0 10 0 30 0 40 40 60> 100 20<40 50 30 60> 110 10<30 60 40 60 50 50 50 60>
VStem: 10 20<10 70 10 80 10 80> 30 10<0 70 0 10 80 90> 40 10<110 110> 70 20<10 70 10 70 10 90 10 80>
LayerCount: 2
Fore
SplineSet
50 100 m 1xeb
 30 100 l 1
 30 110 l 1
 40 110 l 1
 40 120 l 1xdb
 60 120 l 1
 60 110 l 1
 50 110 l 1
 50 100 l 1xeb
10 10 m 1xc9
 10 80 l 1
 0 80 l 1
 0 90 l 1xc9
 30 90 l 1
 30 80 l 1
 40 80 l 1
 40 90 l 1xcb
 70 90 l 1
 70 80 l 1
 80 80 l 1
 80 70 l 1
 90 70 l 1
 90 10 l 1
 100 10 l 1
 100 0 l 1
 60 0 l 1
 60 10 l 1
 70 10 l 1
 70 70 l 1
 60 70 l 1
 60 80 l 1
 40 80 l 1
 40 70 l 1
 30 70 l 1xc9
 30 10 l 1
 40 10 l 1
 40 0 l 1xc5
 0 0 l 1
 0 10 l 1
 10 10 l 1xc9
EndSplineSet
Validated: 5
EndChar

StartChar: ncaron
Encoding: 328 328 150
Width: 110
GlyphClass: 2
Flags: MW
HStem: 0 10<0 10 30 40 0 10 60 70 90 100> 80 10<0 10 0 30 0 40 40 60> 100 20<30 40 50 60 30 30> 110 10<20 30 20 40 20 50 60 70 60 60>
VStem: 10 20<10 70 10 80 10 80> 30 10<0 70 0 10 80 90> 50 10<110 110> 60 10<0 70 10 70 10 80> 70 20<10 70 10 70 10 90 10 80>
LayerCount: 2
Fore
SplineSet
10 80 m 1xc880
 0 80 l 1
 0 90 l 1
 30 90 l 1
 30 80 l 1
 40 80 l 1
 40 90 l 1
 70 90 l 1
 70 80 l 1
 80 80 l 1
 80 70 l 1
 90 70 l 1
 90 10 l 1
 100 10 l 1
 100 0 l 1
 60 0 l 1
 60 10 l 1
 70 10 l 1
 70 70 l 1
 60 70 l 1
 60 80 l 1
 40 80 l 1
 40 70 l 1
 30 70 l 1xc880
 30 10 l 1
 40 10 l 1
 40 0 l 1xc480
 0 0 l 1
 0 10 l 1
 10 10 l 1
 10 80 l 1xc880
70 110 m 1xd9
 60 110 l 1
 60 100 l 1xea80
 30 100 l 1
 30 110 l 1
 20 110 l 1
 20 120 l 1
 40 120 l 1
 40 110 l 1
 50 110 l 1
 50 120 l 1xd880
 70 120 l 1
 70 110 l 1xd9
EndSplineSet
Validated: 5
EndChar

StartChar: ohungarumlaut
Encoding: 337 337 151
Width: 110
GlyphClass: 2
Flags: MW
HStem: 0 10<40 60 20 30> 80 10<20 70 30 70 40 60 40 40 30 80> 100 20<30 40 20 50 60 70 30 50> 110 10<20 50 30 50 40 50 40 40 30 60 70 80 70 70>
VStem: 10 20<20 70> 30 10<0 20 10 20 10 20 10 70> 30 40<0 10 0 10 0 20 20 70 80 90> 60 10<0 20> 70 20<0 70 20 70 20 70 20 80 20 90>
LayerCount: 2
Fore
SplineSet
30 20 m 1xd3
 40 20 l 1
 40 10 l 1
 60 10 l 1
 60 20 l 1
 70 20 l 1
 70 70 l 1
 60 70 l 1
 60 80 l 1
 40 80 l 1
 40 70 l 1
 30 70 l 1
 30 20 l 1xd3
80 120 m 1
 80 110 l 1
 70 110 l 1xd880
 70 100 l 1
 50 100 l 1xe2
 50 110 l 1
 40 110 l 1xd5
 40 100 l 1
 20 100 l 1xe5
 20 110 l 1
 30 110 l 1
 30 120 l 1
 50 120 l 1
 50 110 l 1
 60 110 l 1
 60 120 l 1
 80 120 l 1
80 20 m 1
 80 10 l 1
 70 10 l 1
 70 0 l 1xd2
 30 0 l 1
 30 10 l 1
 20 10 l 1
 20 20 l 1
 10 20 l 1
 10 70 l 1xd9
 20 70 l 1
 20 80 l 1
 30 80 l 1
 30 90 l 1xd2
 70 90 l 1
 70 80 l 1
 80 80 l 1
 80 70 l 1
 90 70 l 1
 90 20 l 1
 80 20 l 1
EndSplineSet
Validated: 5
EndChar

StartChar: Rcaron
Encoding: 344 344 152
Width: 110
GlyphClass: 2
Flags: MW
HStem: 0 10<0 10 30 40 0 10 80 90> 40 10<30 50 30 60> 50 10<30 70 60 70 60 70 60 80> 80 10<60 60 70 70 80 80> 90 10<0 10 0 30 0 60 0 30> 110 10<20 30 20 40 20 50 60 60 60 70>
VStem: 10 20<10 40 50 90> 30 10<0 40 0 10> 60 10<0 30> 70 10<0 30 10 30 10 30 10 50> 90 10<0 20 10 20 10 20>
CounterMasks: 1 00d0
LayerCount: 2
Fore
SplineSet
60 90 m 1xb6a0
 30 90 l 1
 30 50 l 1
 60 50 l 1
 60 60 l 1
 70 60 l 1
 70 80 l 1
 60 80 l 1
 60 90 l 1xb6a0
90 20 m 1
 100 20 l 1
 100 10 l 1
 90 10 l 1
 90 0 l 1
 70 0 l 1
 70 10 l 1
 60 10 l 1
 60 30 l 1
 50 30 l 1
 50 40 l 1
 30 40 l 1
 30 10 l 1
 40 10 l 1
 40 0 l 1xd5a0
 0 0 l 1
 0 10 l 1
 10 10 l 1
 10 90 l 1xb660
 0 90 l 1
 0 100 l 1
 30 100 l 1
 30 110 l 1
 20 110 l 1
 20 120 l 1
 40 120 l 1
 40 110 l 1
 50 110 l 1
 50 120 l 1
 70 120 l 1
 70 110 l 1
 60 110 l 1
 60 100 l 1
 70 100 l 1xada0
 70 90 l 1
 80 90 l 1
 80 80 l 1
 90 80 l 1
 90 60 l 1
 80 60 l 1
 80 50 l 1
 70 50 l 1
 70 30 l 1
 80 30 l 1
 80 10 l 1xb660
 90 10 l 1
 90 20 l 1
EndSplineSet
Validated: 5
EndChar

StartChar: rcaron
Encoding: 345 345 153
Width: 110
GlyphClass: 2
Flags: MW
HStem: 0 10<20 30 50 60 20 30> 80 10<20 30 20 50 20 60 60 70> 100 20<30 40 50 60 30 30> 110 10<20 30 20 40 20 50 60 70 60 60>
VStem: 30 20<10 70 10 80 10 80> 50 10<80 90> 60 10<70 70 70 80 60 90> 70 10<60 90 80 90>
LayerCount: 2
Fore
SplineSet
70 110 m 1xda
 60 110 l 1
 60 100 l 1xe8
 30 100 l 1
 30 110 l 1
 20 110 l 1
 20 120 l 1
 40 120 l 1
 40 110 l 1
 50 110 l 1
 50 120 l 1xd8
 70 120 l 1
 70 110 l 1xda
60 0 m 1xc4
 20 0 l 1
 20 10 l 1
 30 10 l 1
 30 80 l 1
 20 80 l 1
 20 90 l 1
 50 90 l 1
 50 80 l 1
 60 80 l 1
 60 90 l 1xc8
 80 90 l 1
 80 80 l 1
 90 80 l 1
 90 60 l 1
 70 60 l 1xc9
 70 80 l 1
 60 80 l 1
 60 70 l 1
 50 70 l 1xc8
 50 10 l 1
 60 10 l 1
 60 0 l 1xc4
EndSplineSet
Validated: 5
EndChar

StartChar: Sacute
Encoding: 346 346 154
Width: 110
GlyphClass: 2
Flags: MW
HStem: 0 10<10 30 40 70 20 30> 40 10<10 40 20 40 20 40 20 70> 50 10<10 40 10 20> 60 20<10 20 10 20> 80 10<10 30 20 30 20 40 20 30> 90 10<20 50 30 50 40 40 40 50 30 70> 90 30<40 80 60 70 60 90 60 90> 110 10<50 80 60 80 70 70 70 80>
VStem: 10 10<0 10 30 40> 20 10<0 10 0 10> 30 10<0 20 10 20 10 20 10 30> 50 20<100 110> 60 10<110 110> 70 10<0 20> 90 10<10 40 20 50 20 40 60 70 70 70 90 100>
CounterMasks: 1 c8
LayerCount: 2
Fore
SplineSet
20 90 m 1x8842
 30 90 l 1
 30 100 l 1x84a2
 50 100 l 1
 50 110 l 1
 60 110 l 1
 60 120 l 1x898a
 80 120 l 1
 80 110 l 1
 70 110 l 1
 70 100 l 1
 80 100 l 1
 80 90 l 1
 90 90 l 1
 90 100 l 1
 100 100 l 1x8482
 100 60 l 1
 90 60 l 1
 90 70 l 1
 80 70 l 1
 80 80 l 1
 70 80 l 1
 70 90 l 1x8286
 40 90 l 1
 40 80 l 1
 30 80 l 1
 30 70 l 1
 40 70 l 1
 40 60 l 1xa8a2
 70 60 l 1
 70 50 l 1xc892
 90 50 l 1
 90 40 l 1
 100 40 l 1xc882
 100 20 l 1
 90 20 l 1
 90 10 l 1
 80 10 l 1
 80 0 l 1
 30 0 l 1
 30 10 l 1
 20 10 l 1
 20 0 l 1
 10 0 l 1x8886
 10 40 l 1
 20 40 l 1
 20 30 l 1
 30 30 l 1
 30 20 l 1
 40 20 l 1
 40 10 l 1x88a2
 70 10 l 1
 70 20 l 1
 80 20 l 1
 80 30 l 1
 70 30 l 1
 70 40 l 1xc886
 40 40 l 1
 40 50 l 1xa886
 20 50 l 1
 20 60 l 1
 10 60 l 1x9082
 10 80 l 1
 20 80 l 1
 20 90 l 1x8842
EndSplineSet
Validated: 1
EndChar

StartChar: sacute
Encoding: 347 347 155
Width: 110
GlyphClass: 2
Flags: MW
HStem: 0 10<10 30 30 70 20 30> 40 10<20 20 50 50 80 80> 80 10<10 70 20 70 30 30 30 70 20 80> 80 20<30 60 40 60 40 70 40 80>
VStem: 10 10<0 10 20 30> 20 10<0 10 0 10> 70 10<0 30 80 90> 80 10<0 40 10 50 10 40 60 70 70 70 80 90>
CounterMasks: 1 e0
LayerCount: 2
Fore
SplineSet
10 50 m 1xe9
 10 80 l 1
 20 80 l 1
 20 90 l 1xa5
 70 90 l 1
 70 80 l 1
 80 80 l 1
 80 90 l 1
 90 90 l 1
 90 60 l 1
 80 60 l 1
 80 70 l 1
 70 70 l 1
 70 80 l 1
 30 80 l 1
 30 60 l 1xa9
 50 60 l 1
 50 50 l 1
 80 50 l 1
 80 40 l 1
 90 40 l 1xe9
 90 10 l 1
 80 10 l 1
 80 0 l 1xaa
 30 0 l 1
 30 10 l 1
 20 10 l 1
 20 0 l 1
 10 0 l 1
 10 30 l 1
 20 30 l 1
 20 20 l 1
 30 20 l 1
 30 10 l 1
 70 10 l 1
 70 30 l 1xa9
 50 30 l 1
 50 40 l 1
 20 40 l 1
 20 50 l 1
 10 50 l 1xe9
60 110 m 1x99
 70 110 l 1
 70 120 l 1
 50 120 l 1
 50 110 l 1
 40 110 l 1
 40 100 l 1
 60 100 l 1
 60 110 l 1x99
EndSplineSet
Validated: 5
EndChar

StartChar: Scaron
Encoding: 352 352 156
Width: 110
GlyphClass: 2
Flags: MW
HStem: 0 10<10 30 40 70 20 30> 40 10<10 40 20 40 20 40 20 70> 50 10<10 40 10 20> 60 20<10 20 10 20> 80 10<10 30 20 30 20 40 20 30> 90 10<20 40 30 40 30 40 30 70> 90 30<20 50 30 50 40 40 40 50 60 70> 110 10<30 40 30 50 30 60 70 70 70 80>
VStem: 10 10<0 10 30 40> 20 10<0 10 0 10> 30 10<0 20 10 20 10 20 10 30> 40 10<100 120 110 120> 70 10<0 20> 90 10<10 40 20 50 20 40 60 70 70 70 90 100>
LayerCount: 2
Fore
SplineSet
20 90 m 1xa944
 30 90 l 1
 30 100 l 1
 40 100 l 1
 40 110 l 1
 30 110 l 1
 30 120 l 1xa1a4
 50 120 l 1
 50 110 l 1
 60 110 l 1
 60 120 l 1xa194
 80 120 l 1
 80 110 l 1
 70 110 l 1
 70 100 l 1
 80 100 l 1
 80 90 l 1
 90 90 l 1
 90 100 l 1
 100 100 l 1xa584
 100 60 l 1
 90 60 l 1
 90 70 l 1
 80 70 l 1
 80 80 l 1
 70 80 l 1
 70 90 l 1xa28c
 40 90 l 1
 40 80 l 1
 30 80 l 1
 30 70 l 1
 40 70 l 1
 40 60 l 1xa1a4
 70 60 l 1
 70 50 l 1
 90 50 l 1
 90 40 l 1
 100 40 l 1xc1a4
 100 20 l 1
 90 20 l 1
 90 10 l 1
 80 10 l 1
 80 0 l 1
 30 0 l 1
 30 10 l 1
 20 10 l 1
 20 0 l 1
 10 0 l 1xa18c
 10 40 l 1
 20 40 l 1
 20 30 l 1
 30 30 l 1
 30 20 l 1
 40 20 l 1
 40 10 l 1xa1a4
 70 10 l 1
 70 20 l 1
 80 20 l 1
 80 30 l 1
 70 30 l 1
 70 40 l 1xc18c
 40 40 l 1
 40 50 l 1xa18c
 20 50 l 1
 20 60 l 1
 10 60 l 1x9184
 10 80 l 1
 20 80 l 1
 20 90 l 1xa944
EndSplineSet
Validated: 1
EndChar

StartChar: scaron
Encoding: 353 353 157
Width: 110
GlyphClass: 2
Flags: MW
HStem: 0 10<10 30 30 70 20 30> 40 10<10 50 10 20> 80 10<10 70 20 70 30 30 30 70 20 80> 100 20<30 40 50 60 30 30> 110 10<20 30 20 40 20 50 60 70 60 60>
VStem: 10 10<0 10 20 30> 20 10<0 10 0 10> 50 10<100 120> 70 10<0 30 80 90> 80 10<0 40 10 50 10 40 60 70 70 70 80 90>
CounterMasks: 1 0340
LayerCount: 2
Fore
SplineSet
70 110 m 1xad40
 60 110 l 1
 60 100 l 1xb540
 30 100 l 1
 30 110 l 1
 20 110 l 1
 20 120 l 1
 40 120 l 1
 40 110 l 1
 50 110 l 1
 50 120 l 1xaa40
 70 120 l 1
 70 110 l 1xad40
20 50 m 1xe240
 10 50 l 1xe440
 10 80 l 1
 20 80 l 1
 20 90 l 1xa240
 70 90 l 1
 70 80 l 1
 80 80 l 1
 80 90 l 1
 90 90 l 1
 90 60 l 1
 80 60 l 1
 80 70 l 1
 70 70 l 1
 70 80 l 1
 30 80 l 1
 30 60 l 1xa440
 50 60 l 1
 50 50 l 1
 80 50 l 1
 80 40 l 1
 90 40 l 1xe440
 90 10 l 1
 80 10 l 1
 80 0 l 1xa480
 30 0 l 1
 30 10 l 1
 20 10 l 1
 20 0 l 1
 10 0 l 1
 10 30 l 1
 20 30 l 1
 20 20 l 1
 30 20 l 1
 30 10 l 1
 70 10 l 1
 70 30 l 1xa440
 50 30 l 1
 50 40 l 1xe540
 20 40 l 1
 20 50 l 1xe240
EndSplineSet
Validated: 5
EndChar

StartChar: tcaron
Encoding: 357 357 158
Width: 110
GlyphClass: 2
Flags: MW
HStem: 0 10<50 60 30 40> 80 10<10 30 10 30 50 70 80 90> 100 20<80 90 80 100>
VStem: 30 20<10 80 10 80 90 110> 70 10<0 30 20 30 10 30 80 90> 80 20<80 120 90 120 100 120 90 120>
LayerCount: 2
Fore
SplineSet
80 30 m 1xd8
 80 10 l 1
 70 10 l 1
 70 0 l 1xd8
 40 0 l 1
 40 10 l 1
 30 10 l 1
 30 80 l 1
 10 80 l 1
 10 90 l 1
 30 90 l 1
 30 110 l 1
 50 110 l 1
 50 90 l 1
 70 90 l 1
 70 80 l 1
 50 80 l 1xd0
 50 10 l 1
 60 10 l 1
 60 20 l 1
 70 20 l 1
 70 30 l 1
 80 30 l 1xd8
80 80 m 1xd4
 80 90 l 1
 90 90 l 1
 90 100 l 1
 80 100 l 1
 80 120 l 1
 100 120 l 1xf4
 100 90 l 1
 90 90 l 1
 90 80 l 1
 80 80 l 1xd4
EndSplineSet
Validated: 5
EndChar

StartChar: utilde
Encoding: 361 361 159
Width: 110
GlyphClass: 2
Flags: MW
HStem: 0 10<40 60 20 30 90 100> 80 10<0 10 0 30 60 70> 100 10<20 30 20 30 50 70> 110 10<20 50 30 50 30 50 30 50 30 70 70 80>
VStem: 10 20<20 80 80 80> 60 10<0 10 0 10 0 20> 70 20<0 90 10 90 20 80 80 80 10 100 10 110>
LayerCount: 2
Fore
SplineSet
20 20 m 1xdc
 10 20 l 1
 10 80 l 1
 0 80 l 1
 0 90 l 1
 30 90 l 1
 30 20 l 1
 40 20 l 1
 40 10 l 1
 60 10 l 1
 60 20 l 1
 70 20 l 1
 70 80 l 1
 60 80 l 1
 60 90 l 1xec
 90 90 l 1
 90 10 l 1xda
 100 10 l 1
 100 0 l 1
 70 0 l 1
 70 10 l 1
 60 10 l 1
 60 0 l 1
 30 0 l 1
 30 10 l 1
 20 10 l 1
 20 20 l 1xdc
50 110 m 1
 30 110 l 1
 30 100 l 1
 20 100 l 1xea
 20 110 l 1
 30 110 l 1
 30 120 l 1
 50 120 l 1
 50 110 l 1
 70 110 l 1
 70 120 l 1
 80 120 l 1xda
 80 110 l 1
 70 110 l 1
 70 100 l 1
 50 100 l 1
 50 110 l 1
EndSplineSet
Validated: 5
EndChar

StartChar: uring
Encoding: 367 367 160
Width: 110
GlyphClass: 2
Flags: MW
HStem: 0 10<40 60 20 30 90 100> 80 10<0 10 0 30 60 70> 90 10<40 50 40 60> 90 30<0 60 30 60 30 60 30 60 30 90> 110 10<40 50 40 40>
VStem: 10 20<20 80 80 80> 30 10<0 20 10 20 10 20 10 90 100 110> 50 10<100 110 110 110> 70 20<0 90 10 90 20 80 80 80>
LayerCount: 2
Fore
SplineSet
50 110 m 1xab80
 40 110 l 1
 40 100 l 1
 50 100 l 1
 50 110 l 1xab80
30 20 m 1
 40 20 l 1
 40 10 l 1
 60 10 l 1
 60 20 l 1
 70 20 l 1
 70 80 l 1
 60 80 l 1xcd80
 60 90 l 1
 30 90 l 1
 30 20 l 1
70 0 m 1
 70 10 l 1
 60 10 l 1
 60 0 l 1
 30 0 l 1
 30 10 l 1
 20 10 l 1
 20 20 l 1
 10 20 l 1
 10 80 l 1
 0 80 l 1xcd80
 0 90 l 1
 30 90 l 1
 30 120 l 1
 60 120 l 1x9580
 60 90 l 1
 90 90 l 1
 90 10 l 1
 100 10 l 1
 100 0 l 1
 70 0 l 1
EndSplineSet
Validated: 5
EndChar

StartChar: uhungarumlaut
Encoding: 369 369 161
Width: 110
GlyphClass: 2
Flags: MW
HStem: 0 10<40 60 20 30 90 100> 80 10<0 10 0 30 60 70> 100 20<30 40 20 50 60 70 30 50> 110 10<20 50 30 50 40 50 40 40 30 60 70 80 70 70>
VStem: 10 20<20 80 80 80> 30 10<0 20 10 20 10 90 10 20> 60 10<0 10 0 10 0 20> 70 20<0 90 10 90 20 80 80 80 10 100 10 110>
LayerCount: 2
Fore
SplineSet
20 20 m 1xda
 10 20 l 1
 10 80 l 1xda
 0 80 l 1
 0 90 l 1
 30 90 l 1
 30 20 l 1
 40 20 l 1
 40 10 l 1
 60 10 l 1
 60 20 l 1
 70 20 l 1
 70 80 l 1
 60 80 l 1
 60 90 l 1xd6
 90 90 l 1
 90 10 l 1xd9
 100 10 l 1
 100 0 l 1
 70 0 l 1
 70 10 l 1
 60 10 l 1
 60 0 l 1
 30 0 l 1
 30 10 l 1
 20 10 l 1
 20 20 l 1xda
80 110 m 1
 70 110 l 1xd9
 70 100 l 1
 50 100 l 1xe9
 50 110 l 1
 40 110 l 1xd5
 40 100 l 1
 20 100 l 1xe5
 20 110 l 1
 30 110 l 1
 30 120 l 1
 50 120 l 1
 50 110 l 1
 60 110 l 1
 60 120 l 1
 80 120 l 1
 80 110 l 1
EndSplineSet
Validated: 5
EndChar

StartChar: zacute
Encoding: 378 378 162
Width: 110
GlyphClass: 2
Flags: MW
HStem: 0 10<10 20 10 20 40 70> 20 10<50 50 80 80> 60 10<10 30> 80 10<30 60 30 30 80 80 80 90> 80 20<40 60 40 60 30 60>
VStem: 10 10<0 30 10 30 60 70> 10 40<0 30 10 30 60 70> 40 10<10 30> 50 10<20 50> 70 20<10 20 20 20> 80 10<20 30 0 30>
LayerCount: 2
Fore
SplineSet
10 0 m 1x92
 10 10 l 1
 20 10 l 1x92
 20 30 l 1
 30 30 l 1
 30 40 l 1
 40 40 l 1xd1
 40 60 l 1
 50 60 l 1
 50 70 l 1
 60 70 l 1
 60 80 l 1x9080
 30 80 l 1
 30 70 l 1
 20 70 l 1
 20 60 l 1
 10 60 l 1xb4
 10 90 l 1
 90 90 l 1
 90 80 l 1
 80 80 l 1x9440
 80 60 l 1
 70 60 l 1
 70 50 l 1
 60 50 l 1xb080
 60 30 l 1
 50 30 l 1
 50 20 l 1
 40 20 l 1
 40 10 l 1x91
 70 10 l 1
 70 20 l 1
 80 20 l 1
 80 30 l 1
 90 30 l 1xd220
 90 0 l 1x9220
 10 0 l 1x92
40 100 m 1x8c40
 60 100 l 1
 60 110 l 1
 70 110 l 1
 70 120 l 1
 50 120 l 1
 50 110 l 1
 40 110 l 1
 40 100 l 1x8c40
EndSplineSet
Validated: 9
EndChar

StartChar: zdotaccent
Encoding: 380 380 163
Width: 110
GlyphClass: 2
Flags: MW
HStem: 0 10<10 20 10 20 40 70> 20 10<50 50 80 80> 60 10<10 30> 80 10<30 60 30 30 80 80 80 90> 80 20<40 60 40 60 30 60>
VStem: 10 10<0 30 10 30 60 70> 20 20<10 20 10 30 10 30> 40 10<10 30> 50 10<20 50> 60 20<20 50 20 30 70 80> 80 10<20 30 0 30>
LayerCount: 2
Fore
SplineSet
10 0 m 1x9420
 10 10 l 1
 20 10 l 1x9220
 20 30 l 1
 30 30 l 1
 30 40 l 1
 40 40 l 1xd520
 40 60 l 1
 50 60 l 1
 50 70 l 1
 60 70 l 1
 60 80 l 1x9440
 30 80 l 1
 30 70 l 1
 20 70 l 1
 20 60 l 1
 10 60 l 1xb420
 10 90 l 1
 90 90 l 1
 90 80 l 1
 80 80 l 1x9440
 80 60 l 1
 70 60 l 1
 70 50 l 1
 60 50 l 1xb4a0
 60 30 l 1
 50 30 l 1
 50 20 l 1
 40 20 l 1
 40 10 l 1x9520
 70 10 l 1
 70 20 l 1
 80 20 l 1
 80 30 l 1
 90 30 l 1xd420
 90 0 l 1
 10 0 l 1x9420
40 120 m 1x8c40
 40 100 l 1
 60 100 l 1
 60 120 l 1
 40 120 l 1x8c40
EndSplineSet
Validated: 9
EndChar

StartChar: Zcaron
Encoding: 381 381 164
Width: 110
GlyphClass: 2
Flags: MW
HStem: 0 10<0 10 30 80 0 10> 30 10<20 40 30 40 30 50 30 40> 60 10<50 50 60 60 70 70> 90 10<20 30 60 70 20 20 90 100 90 90> 90 30<20 40 50 70 20 40> 110 10<20 30 20 40 20 50 60 60 60 70>
VStem: 0 10<0 20 10 20 70 80> 30 10<10 30 20 40> 40 10<20 40 30 60 110 120> 50 10<30 60 40 70> 70 10<70 70 80 80> 90 10<20 30 0 30>
LayerCount: 2
Fore
SplineSet
10 70 m 1xaa60
 0 70 l 1xaa40
 0 100 l 1xb640
 30 100 l 1
 30 110 l 1
 20 110 l 1
 20 120 l 1xa740
 40 120 l 1
 40 110 l 1
 50 110 l 1
 50 120 l 1xa640
 70 120 l 1
 70 110 l 1
 60 110 l 1
 60 100 l 1xb640
 100 100 l 1
 100 90 l 1
 90 90 l 1
 90 80 l 1
 80 80 l 1
 80 70 l 1
 70 70 l 1
 70 60 l 1
 60 60 l 1xa640
 60 40 l 1
 50 40 l 1
 50 30 l 1
 40 30 l 1
 40 20 l 1
 30 20 l 1
 30 10 l 1
 80 10 l 1
 80 20 l 1
 90 20 l 1
 90 30 l 1
 100 30 l 1
 100 0 l 1xa750
 0 0 l 1
 0 10 l 1
 10 10 l 1
 10 20 l 1
 20 20 l 1
 20 30 l 1
 30 30 l 1
 30 40 l 1
 40 40 l 1xe680
 40 60 l 1
 50 60 l 1
 50 70 l 1
 60 70 l 1
 60 80 l 1
 70 80 l 1
 70 90 l 1
 20 90 l 1
 20 80 l 1
 10 80 l 1
 10 70 l 1xaa60
EndSplineSet
Validated: 1
EndChar

StartChar: zcaron
Encoding: 382 382 165
Width: 110
GlyphClass: 2
Flags: MW
HStem: 0 10<10 20 10 20 40 70> 20 10<50 50 80 80> 50 10<70 70> 60 10<10 30> 80 10<30 60 30 30 80 80 80 90> 100 20<40 50 60 70 40 40> 110 10<30 40 30 50 30 60 70 80 70 70>
VStem: 10 10<0 30 10 30 60 70> 40 10<10 30> 50 10<20 50 110 120> 60 10<50 50 110 110> 80 10<20 30 0 30>
LayerCount: 2
Fore
SplineSet
10 0 m 1x8910
 10 10 l 1
 20 10 l 1x8910
 20 30 l 1
 30 30 l 1
 30 40 l 1
 40 40 l 1xc990
 40 60 l 1
 50 60 l 1
 50 70 l 1
 60 70 l 1
 60 80 l 1x8930
 30 80 l 1
 30 70 l 1
 20 70 l 1
 20 60 l 1
 10 60 l 1x9910
 10 90 l 1
 90 90 l 1
 90 80 l 1
 80 80 l 1x8930
 80 60 l 1
 70 60 l 1
 70 50 l 1
 60 50 l 1xa950
 60 30 l 1
 50 30 l 1
 50 20 l 1
 40 20 l 1
 40 10 l 1x8990
 70 10 l 1
 70 20 l 1
 80 20 l 1
 80 30 l 1
 90 30 l 1xc910
 90 0 l 1
 10 0 l 1x8910
80 110 m 1x8b30
 70 110 l 1
 70 100 l 1x8d30
 40 100 l 1
 40 110 l 1
 30 110 l 1
 30 120 l 1x8b90
 50 120 l 1
 50 110 l 1
 60 110 l 1
 60 120 l 1
 80 120 l 1
 80 110 l 1x8b30
EndSplineSet
Validated: 1
EndChar

StartChar: ohorn
Encoding: 417 417 166
Width: 110
GlyphClass: 2
Flags: MW
HStem: 0 10<40 60> 70 10<10 30 20 30 20 40 20 30> 70 20<10 70 20 70 30 40 30 70 60 60 60 70 30 90 90 100> 80 10<20 70 30 70 40 60 40 40 30 80>
VStem: 10 20<20 70> 70 20<0 70 20 70 20 70 80 80 80 90> 90 10<20 90 70 90 70 90>
LayerCount: 2
Fore
SplineSet
40 70 m 1xcc
 30 70 l 1
 30 20 l 1
 40 20 l 1
 40 10 l 1
 60 10 l 1
 60 20 l 1
 70 20 l 1
 70 70 l 1
 60 70 l 1
 60 80 l 1
 40 80 l 1
 40 70 l 1xcc
20 10 m 1
 20 20 l 1
 10 20 l 1
 10 70 l 1
 20 70 l 1xac
 20 80 l 1
 30 80 l 1
 30 90 l 1
 70 90 l 1
 70 80 l 1
 80 80 l 1x9c
 80 70 l 1
 90 70 l 1
 90 90 l 1
 100 90 l 1
 100 70 l 1xaa
 90 70 l 1
 90 20 l 1
 80 20 l 1
 80 10 l 1
 70 10 l 1
 70 0 l 1
 30 0 l 1
 30 10 l 1
 20 10 l 1
EndSplineSet
Validated: 5
EndChar

StartChar: uhorn
Encoding: 432 432 167
Width: 110
GlyphClass: 2
Flags: MW
HStem: 0 10<30 50 10 20 80 90> 60 10<80 90 80 90> 80 10<0 10 0 30 50 60>
VStem: 10 20<10 80 80 80> 60 20<0 60 10 60 20 60 70 80 80 80> 90 10<60 90 70 90 70 90>
LayerCount: 2
Fore
SplineSet
10 80 m 1
 0 80 l 1
 0 90 l 1
 30 90 l 1
 30 10 l 1xb4
 50 10 l 1
 50 20 l 1
 60 20 l 1
 60 80 l 1
 50 80 l 1
 50 90 l 1
 80 90 l 1xbc
 80 70 l 1
 90 70 l 1xf4
 90 90 l 1
 100 90 l 1xb4
 100 70 l 1
 90 70 l 1
 90 60 l 1
 80 60 l 1
 80 10 l 1
 90 10 l 1
 90 0 l 1
 60 0 l 1
 60 10 l 1
 50 10 l 1
 50 0 l 1xfc
 20 0 l 1
 20 10 l 1
 10 10 l 1
 10 80 l 1
EndSplineSet
Validated: 5
EndChar

StartChar: uni0237
Encoding: 567 567 168
Width: 110
GlyphClass: 2
Flags: MW
HStem: -10 10<40 60 20 30> 0 20<20 30 20 40 20 60> 80 10<40 60 40 80>
VStem: 30 10<-10 20 0 20> 60 20<0 80 80 80>
LayerCount: 2
Fore
SplineSet
80 90 m 1xa8
 80 0 l 1
 70 0 l 1
 70 -10 l 1xa8
 30 -10 l 1
 30 0 l 1
 20 0 l 1
 20 20 l 1
 40 20 l 1x78
 40 0 l 1xb8
 60 0 l 1
 60 80 l 1
 40 80 l 1
 40 90 l 1
 80 90 l 1xa8
EndSplineSet
Validated: 1
AlternateSubs2: "'ssty' Math Script Style lookup 4 subtable" dotlessj.ssty dotlessj.ssty2
AlternateSubs2: "'aalt' Access All Alternates lookup 1 subtable" dotlessj.ssty dotlessj.ssty2
EndChar

StartChar: uni026A
Encoding: 618 618 169
Width: 110
GlyphClass: 2
Flags: MW
HStem: -10 10<20 30 50 60 20 30> 50 10<20 30 20 60 50 50 50 60>
VStem: 30 20<0 50 0 50>
LayerCount: 2
Fore
SplineSet
60 -10 m 1
 20 -10 l 1
 20 0 l 1
 30 0 l 1
 30 50 l 1
 20 50 l 1
 20 60 l 1
 60 60 l 1
 60 50 l 1
 50 50 l 1
 50 0 l 1
 60 0 l 1
 60 -10 l 1
EndSplineSet
Validated: 1
AlternateSubs2: "'ssty' Math Script Style lookup 4 subtable" Ismall.ssty Ismall.ssty2
AlternateSubs2: "'aalt' Access All Alternates lookup 1 subtable" Ismall.ssty Ismall.ssty2
EndChar

StartChar: uni0274
Encoding: 628 628 170
Width: 110
GlyphClass: 2
Flags: MW
HStem: -10 10<10 20 10 20 30 40> 0 30<30 60 40 60 50 60 50 60> 20 10 50 10<10 20 10 30 10 40 50 60 70 70 70 80>
VStem: 20 10<0 20 0 50> 60 10<-10 0 0 0 30 50 -10 50>
CounterMasks: 1 b0
LayerCount: 2
Fore
SplineSet
10 -10 m 1x94
 10 0 l 1
 20 0 l 1
 20 50 l 1
 10 50 l 1
 10 60 l 1x9c
 30 60 l 1
 30 50 l 1
 40 50 l 1
 40 40 l 1
 50 40 l 1
 50 30 l 1
 60 30 l 1x54
 60 50 l 1
 50 50 l 1
 50 60 l 1
 80 60 l 1
 80 50 l 1
 70 50 l 1x94
 70 -10 l 1
 60 -10 l 1
 60 0 l 1
 50 0 l 1
 50 10 l 1
 40 10 l 1
 40 20 l 1
 30 20 l 1xbc
 30 0 l 1
 40 0 l 1
 40 -10 l 1x9c
 10 -10 l 1x94
EndSplineSet
Validated: 1
AlternateSubs2: "'ssty' Math Script Style lookup 4 subtable" Nsmall.ssty Nsmall.ssty2
AlternateSubs2: "'aalt' Access All Alternates lookup 1 subtable" Nsmall.ssty Nsmall.ssty2
EndChar

StartChar: uni0299
Encoding: 665 665 171
Width: 110
GlyphClass: 2
Flags: MW
HStem: -10 10<10 20 40 60 10 20> -10 40<40 60 40 70 10 60> 0 20<40 60 40 60 70 80 40 70> 50 10<10 70 10 20 40 60 40 40 10 80>
VStem: 20 20<0 20 0 30 30 50> 60 10<-10 20>
LayerCount: 2
Fore
SplineSet
10 50 m 1x9c
 10 60 l 1
 70 60 l 1
 70 50 l 1
 80 50 l 1
 80 30 l 1
 70 30 l 1x5c
 70 20 l 1
 80 20 l 1x3c
 80 0 l 1
 70 0 l 1
 70 -10 l 1
 10 -10 l 1
 10 0 l 1
 20 0 l 1
 20 50 l 1
 10 50 l 1x9c
60 20 m 1x3c
 40 20 l 1
 40 0 l 1
 60 0 l 1
 60 20 l 1x3c
40 50 m 1
 40 30 l 1
 60 30 l 1x5c
 60 50 l 1
 40 50 l 1
EndSplineSet
Validated: 1
AlternateSubs2: "'ssty' Math Script Style lookup 4 subtable" Bsmall.ssty Bsmall.ssty2
AlternateSubs2: "'aalt' Access All Alternates lookup 1 subtable" Bsmall.ssty Bsmall.ssty2
EndChar

StartChar: uni02B3
Encoding: 691 691 172
Width: 110
GlyphClass: 2
Flags: MW
HStem: 60 10<10 20 40 50 10 20> 100 20<10 50 10 40 60 70 60 60> 110 10<10 50 50 60>
VStem: 20 20<70 100 110 111 111 111> 60 10<100 120 110 120>
LayerCount: 2
Fore
SplineSet
10 120 m 1xb0
 40 120 l 1
 40 110 l 1
 50 110 l 1
 50 120 l 1xb0
 70 120 l 1
 70 110 l 1
 80 110 l 1
 80 100 l 1xd8
 60 100 l 1
 60 110 l 1
 50 110 l 1
 50 100 l 1
 40 100 l 1xd0
 40 70 l 1
 50 70 l 1
 50 60 l 1
 10 60 l 1
 10 70 l 1
 20 70 l 1
 20 111 l 1
 10 111 l 1
 10 120 l 1xb0
EndSplineSet
Validated: 5
AlternateSubs2: "'ssty' Math Script Style lookup 4 subtable" rsupmod.ssty rsupmod.ssty2
AlternateSubs2: "'aalt' Access All Alternates lookup 1 subtable" rsupmod.ssty rsupmod.ssty2
EndChar

StartChar: uni1D00
Encoding: 7424 7424 173
Width: 110
GlyphClass: 2
Flags: MW
HStem: -10 10<10 20 30 40 10 20 50 60 80 90> -10 30<20 30 20 40 10 30 20 50 70 80> 10 10<40 50 20 30> 30 10<30 50 30 40>
VStem: 20 10<0 10 0 20> 30 10<20 30> 40 20<-10 10 -10 10 0 20 0 30 40 60> 60 10<20 60 20 40>
CounterMasks: 1 b0
LayerCount: 2
Fore
SplineSet
40 -10 m 1xb5
 10 -10 l 1
 10 0 l 1
 20 0 l 1xba
 20 20 l 1x5a
 30 20 l 1
 30 40 l 1
 40 40 l 1
 40 60 l 1
 60 60 l 1
 60 40 l 1
 70 40 l 1
 70 20 l 1x55
 80 20 l 1
 80 0 l 1
 90 0 l 1
 90 -10 l 1
 50 -10 l 1
 50 0 l 1
 60 0 l 1
 60 10 l 1xba
 30 10 l 1
 30 0 l 1
 40 0 l 1
 40 -10 l 1xb5
50 30 m 1
 40 30 l 1
 40 20 l 1
 50 20 l 1x55
 50 30 l 1
EndSplineSet
Validated: 1
AlternateSubs2: "'ssty' Math Script Style lookup 4 subtable" Asmall.ssty Asmall.ssty2
AlternateSubs2: "'aalt' Access All Alternates lookup 1 subtable" Asmall.ssty Asmall.ssty2
EndChar

StartChar: uni1D04
Encoding: 7428 7428 174
Width: 110
GlyphClass: 2
Flags: MW
HStem: -10 10<20 30 40 70> 0 10<10 30 10 20 70 80> 50 10<20 60 30 60 40 40 40 60 30 70>
VStem: 20 10<-10 10> 70 10<-10 10 0 10 0 10 50 60>
LayerCount: 2
Fore
SplineSet
30 -10 m 1xb8
 30 0 l 1
 20 0 l 1
 20 10 l 1
 10 10 l 1x78
 10 40 l 1
 20 40 l 1
 20 50 l 1
 30 50 l 1
 30 60 l 1
 60 60 l 1
 60 50 l 1
 70 50 l 1
 70 60 l 1
 80 60 l 1
 80 40 l 1
 60 40 l 1
 60 50 l 1
 40 50 l 1
 40 40 l 1
 30 40 l 1
 30 10 l 1
 40 10 l 1
 40 0 l 1
 70 0 l 1
 70 10 l 1
 80 10 l 1
 80 0 l 1
 70 0 l 1
 70 -10 l 1
 30 -10 l 1xb8
EndSplineSet
Validated: 5
AlternateSubs2: "'ssty' Math Script Style lookup 4 subtable" Csmall.ssty Csmall.ssty2
AlternateSubs2: "'aalt' Access All Alternates lookup 1 subtable" Csmall.ssty Csmall.ssty2
EndChar

StartChar: uni1D0A
Encoding: 7434 7434 175
Width: 110
GlyphClass: 2
Flags: MW
HStem: -10 10<30 50 10 20> 0 20<10 20 10 30 10 50> 50 10<40 50 40 80 70 70 70 80>
VStem: 20 10<-10 20 0 20> 50 20<0 50 0 50>
LayerCount: 2
Fore
SplineSet
10 20 m 1x78
 30 20 l 1x78
 30 0 l 1xb8
 50 0 l 1
 50 50 l 1
 40 50 l 1
 40 60 l 1
 80 60 l 1
 80 50 l 1
 70 50 l 1
 70 0 l 1
 60 0 l 1
 60 -10 l 1xa8
 20 -10 l 1
 20 0 l 1
 10 0 l 1
 10 20 l 1x78
EndSplineSet
Validated: 1
AlternateSubs2: "'ssty' Math Script Style lookup 4 subtable" Jsmall.ssty Jsmall.ssty2
AlternateSubs2: "'aalt' Access All Alternates lookup 1 subtable" Jsmall.ssty Jsmall.ssty2
EndChar

StartChar: uni1D0B
Encoding: 7435 7435 176
Width: 110
GlyphClass: 2
Flags: MW
HStem: -10 10<10 20 10 20 40 50 80 90> -10 40<10 50 40 50 40 50 40 60 60 70 40 90> 50 10<10 20 10 50 40 40 40 50 80 80 80 90>
VStem: 20 20<0 20 30 50> 60 10<-10 20 10 20 10 30 10 20>
LayerCount: 2
Fore
SplineSet
10 -10 m 1xb0
 10 0 l 1
 20 0 l 1
 20 50 l 1
 10 50 l 1
 10 60 l 1
 50 60 l 1
 50 50 l 1
 40 50 l 1xb0
 40 30 l 1
 50 30 l 1
 50 40 l 1
 60 40 l 1x78
 60 60 l 1
 90 60 l 1
 90 50 l 1
 80 50 l 1
 80 40 l 1
 70 40 l 1
 70 30 l 1
 60 30 l 1
 60 20 l 1
 70 20 l 1
 70 10 l 1
 80 10 l 1
 80 0 l 1
 90 0 l 1
 90 -10 l 1
 60 -10 l 1xb8
 60 10 l 1
 50 10 l 1
 50 20 l 1
 40 20 l 1
 40 0 l 1
 50 0 l 1
 50 -10 l 1
 10 -10 l 1xb0
EndSplineSet
Validated: 1
AlternateSubs2: "'ssty' Math Script Style lookup 4 subtable" Ksmall.ssty Ksmall.ssty2
AlternateSubs2: "'aalt' Access All Alternates lookup 1 subtable" Ksmall.ssty Ksmall.ssty2
EndChar

StartChar: uni1D18
Encoding: 7448 7448 177
Width: 110
GlyphClass: 2
Flags: MW
HStem: -10 10<10 20 40 50 10 20> -10 40<40 50 10 60> 20 10<40 60 40 70 40 60> 50 10<10 20 10 70 40 40 40 60 10 80>
VStem: 20 20<0 20 0 30 30 50> 60 10<20 50>
LayerCount: 2
Fore
SplineSet
10 60 m 1xbc
 70 60 l 1
 70 50 l 1
 80 50 l 1
 80 30 l 1
 70 30 l 1
 70 20 l 1
 40 20 l 1
 40 0 l 1
 50 0 l 1
 50 -10 l 1
 10 -10 l 1
 10 0 l 1
 20 0 l 1
 20 50 l 1
 10 50 l 1
 10 60 l 1xbc
60 50 m 1
 40 50 l 1
 40 30 l 1
 60 30 l 1x5c
 60 50 l 1
EndSplineSet
Validated: 1
AlternateSubs2: "'ssty' Math Script Style lookup 4 subtable" Psmall.ssty Psmall.ssty2
AlternateSubs2: "'aalt' Access All Alternates lookup 1 subtable" Psmall.ssty Psmall.ssty2
EndChar

StartChar: uni1D1B
Encoding: 7451 7451 178
Width: 110
GlyphClass: 2
Flags: MW
HStem: -10 10<20 30 50 60 20 30> 50 10<20 30 20 20 50 50 50 60>
VStem: 10 10<40 50> 30 20<0 50 0 50> 60 10<40 50 50 50>
CounterMasks: 1 38
LayerCount: 2
Fore
SplineSet
60 -10 m 1
 20 -10 l 1
 20 0 l 1
 30 0 l 1xd0
 30 50 l 1
 20 50 l 1
 20 40 l 1
 10 40 l 1
 10 60 l 1
 70 60 l 1xf8
 70 40 l 1
 60 40 l 1
 60 50 l 1
 50 50 l 1
 50 0 l 1
 60 0 l 1
 60 -10 l 1
EndSplineSet
Validated: 1
AlternateSubs2: "'ssty' Math Script Style lookup 4 subtable" Tsmall.ssty Tsmall.ssty2
AlternateSubs2: "'aalt' Access All Alternates lookup 1 subtable" Tsmall.ssty Tsmall.ssty2
EndChar

StartChar: uni1D4D
Encoding: 7501 7501 179
Width: 110
GlyphClass: 2
Flags: MW
HStem: 50 30<20 30 40 70 20 30> 60 10<10 20 10 20 30 50 70 80> 90 10<10 30 10 20> 110 10<10 60 20 60 30 30 30 40 20 70 70 80>
VStem: 20 10<50 70 60 70 60 80> 30 10<80 90 80 90 100 110> 50 20<50 70 50 70> 70 10<50 70 60 80 60 70 110 120>
LayerCount: 2
Fore
SplineSet
10 110 m 1xb9
 20 110 l 1
 20 120 l 1x7a
 60 120 l 1
 60 110 l 1
 70 110 l 1
 70 120 l 1
 80 120 l 1
 80 110 l 1
 70 110 l 1
 70 100 l 1
 60 100 l 1
 60 90 l 1
 40 90 l 1
 40 80 l 1
 70 80 l 1xb5
 70 70 l 1
 80 70 l 1
 80 60 l 1
 70 60 l 1x79
 70 50 l 1
 20 50 l 1xb9
 20 60 l 1
 10 60 l 1
 10 70 l 1
 20 70 l 1x79
 20 80 l 1
 30 80 l 1
 30 90 l 1
 20 90 l 1
 20 100 l 1
 10 100 l 1
 10 110 l 1xb9
30 70 m 1
 30 60 l 1
 50 60 l 1
 50 70 l 1
 30 70 l 1
40 110 m 1x75
 30 110 l 1
 30 100 l 1
 40 100 l 1
 40 110 l 1x75
EndSplineSet
Validated: 5
AlternateSubs2: "'ssty' Math Script Style lookup 4 subtable" gmod.ssty gmod.ssty2
AlternateSubs2: "'aalt' Access All Alternates lookup 1 subtable" gmod.ssty gmod.ssty2
EndChar

StartChar: uni1D64
Encoding: 7524 7524 180
Width: 110
GlyphClass: 2
Flags: MW
HStem: 0 10<40 60 80 90> 40 10<10 20 10 40 50 60>
VStem: 20 20<10 40 40 40> 50 10<40 40> 60 20<0 50 0 50 10 40 40 40>
LayerCount: 2
Fore
SplineSet
70 10 m 1xe8
 60 10 l 1
 60 40 l 1
 50 40 l 1
 50 50 l 1xf0
 80 50 l 1
 80 10 l 1
 90 10 l 1
 90 0 l 1
 70 0 l 1
 70 10 l 1xe8
20 10 m 1
 20 40 l 1
 10 40 l 1
 10 50 l 1
 40 50 l 1
 40 10 l 1
 60 10 l 1
 60 0 l 1
 30 0 l 1
 30 10 l 1
 20 10 l 1
EndSplineSet
Validated: 5
AlternateSubs2: "'ssty' Math Script Style lookup 4 subtable" uinferior.ssty uinferior.ssty2
AlternateSubs2: "'aalt' Access All Alternates lookup 1 subtable" uinferior.ssty uinferior.ssty2
EndChar

StartChar: uni1EA1
Encoding: 7841 7841 181
Width: 110
GlyphClass: 2
Flags: MW
HStem: -10 10<40 60 40 60> -10 30<40 60 40 40> 10 10<30 60 10 20 90 100> 50 10<10 30 40 70 40 40> 50 40<20 30 30 30 40 70 40 40> 80 10<10 80 20 80 30 70 30 30 20 90>
VStem: 20 10<10 40 20 40 20 50> 40 20<-10 0 -10 0> 70 20<30 50 50 50 60 80 20 80>
LayerCount: 2
Fore
SplineSet
40 40 m 1x4b80
 30 40 l 1
 30 20 l 1
 60 20 l 1
 60 30 l 1
 70 30 l 1
 70 50 l 1
 40 50 l 1
 40 40 l 1x4b80
60 -10 m 1
 40 -10 l 1
 40 0 l 1
 60 0 l 1xb780
 60 -10 l 1
20 20 m 1
 10 20 l 1
 10 40 l 1
 20 40 l 1
 20 50 l 1
 30 50 l 1
 30 60 l 1
 70 60 l 1
 70 80 l 1
 30 80 l 1
 30 70 l 1
 20 70 l 1
 20 60 l 1
 10 60 l 1
 10 80 l 1
 20 80 l 1
 20 90 l 1
 80 90 l 1
 80 80 l 1
 90 80 l 1
 90 20 l 1
 100 20 l 1
 100 10 l 1
 80 10 l 1
 80 20 l 1
 60 20 l 1
 60 10 l 1
 20 10 l 1
 20 20 l 1
EndSplineSet
Validated: 5
EndChar

StartChar: uni1EA3
Encoding: 7843 7843 182
Width: 110
GlyphClass: 2
Flags: MW
HStem: 0 10<30 60 10 20 90 100> 50 10<10 30 40 40 40 70> 50 40<20 30 30 30 40 40 40 50 60 70> 80 10<10 50 20 50 30 50 60 70 30 30> 110 10<40 60 40 60 40 70>
VStem: 20 10<0 40 10 40 10 50> 50 10<90 100> 60 10<100 110> 70 20<0 80 0 80 20 50 50 50 60 80 10 80>
LayerCount: 2
Fore
SplineSet
40 50 m 1xae80
 40 40 l 1
 30 40 l 1
 30 10 l 1
 60 10 l 1
 60 20 l 1xad
 70 20 l 1
 70 50 l 1
 40 50 l 1xae80
70 0 m 1
 20 0 l 1
 20 10 l 1
 10 10 l 1
 10 40 l 1
 20 40 l 1
 20 50 l 1
 30 50 l 1
 30 60 l 1
 70 60 l 1
 70 80 l 1
 30 80 l 1
 30 70 l 1
 20 70 l 1
 20 60 l 1
 10 60 l 1
 10 80 l 1
 20 80 l 1
 20 90 l 1
 50 90 l 1
 50 100 l 1xdd80
 60 100 l 1
 60 110 l 1
 40 110 l 1
 40 120 l 1
 60 120 l 1
 60 110 l 1
 70 110 l 1
 70 100 l 1
 60 100 l 1
 60 90 l 1xdd
 80 90 l 1
 80 80 l 1
 90 80 l 1
 90 10 l 1xde80
 100 10 l 1
 100 0 l 1
 80 0 l 1
 80 10 l 1
 70 10 l 1
 70 0 l 1
EndSplineSet
Validated: 5
EndChar

StartChar: uni1EA5
Encoding: 7845 7845 183
Width: 110
GlyphClass: 2
Flags: MW
HStem: 0 10<30 60 10 20 90 100> 40 10<10 30 40 70 40 40> 70 10<10 80 20 80 30 30 30 70 20 90> 90 10<20 30 20 40 20 30 60 70> 110 10<70 100 80 100 90 90 90 100>
VStem: 20 10<0 30 10 30 10 40> 30 10<10 40 30 50> 50 10<100 100> 70 20<0 70 0 70 20 40 40 40 50 70 10 70 100 110>
LayerCount: 2
Fore
SplineSet
70 40 m 1xfd80
 40 40 l 1
 40 30 l 1xfb80
 30 30 l 1
 30 10 l 1
 60 10 l 1
 60 20 l 1
 70 20 l 1
 70 40 l 1xfd80
30 60 m 1
 20 60 l 1
 20 50 l 1
 10 50 l 1
 10 70 l 1
 20 70 l 1
 20 80 l 1
 80 80 l 1
 80 70 l 1
 90 70 l 1
 90 10 l 1
 100 10 l 1
 100 0 l 1
 80 0 l 1
 80 10 l 1
 70 10 l 1
 70 0 l 1
 20 0 l 1
 20 10 l 1
 10 10 l 1
 10 30 l 1
 20 30 l 1
 20 40 l 1xfd80
 30 40 l 1
 30 50 l 1
 70 50 l 1
 70 70 l 1
 30 70 l 1
 30 60 l 1
40 90 m 1xfb80
 20 90 l 1
 20 100 l 1xfd80
 30 100 l 1
 30 110 l 1
 60 110 l 1
 60 100 l 1
 70 100 l 1
 70 110 l 1
 80 110 l 1
 80 120 l 1
 100 120 l 1
 100 110 l 1
 90 110 l 1
 90 100 l 1
 70 100 l 1
 70 90 l 1
 50 90 l 1
 50 100 l 1
 40 100 l 1
 40 90 l 1xfb80
EndSplineSet
Validated: 5
EndChar

StartChar: uni1EA7
Encoding: 7847 7847 184
Width: 110
GlyphClass: 2
Flags: MW
HStem: 0 10<30 60 10 20 90 100> 40 10<10 30 40 70 40 40> 70 10<10 80 20 80 30 30 30 70 20 90> 90 10<30 40 10 30 70 80> 100 10<20 30 0 10 50 60 50 50> 110 10<0 10 0 20 0 30>
VStem: 20 10<0 30 10 30 10 40> 40 10<90 110> 60 10<0 20> 70 20<0 70 0 70 20 40 40 40 50 70 10 70>
CounterMasks: 1 0380
LayerCount: 2
Fore
SplineSet
70 40 m 1xf780
 40 40 l 1
 40 30 l 1
 30 30 l 1
 30 10 l 1
 60 10 l 1
 60 20 l 1
 70 20 l 1
 70 40 l 1xf780
70 110 m 1
 70 100 l 1
 80 100 l 1
 80 90 l 1
 60 90 l 1
 60 100 l 1
 50 100 l 1
 50 90 l 1
 30 90 l 1xef80
 30 100 l 1
 10 100 l 1xeb40
 10 110 l 1
 0 110 l 1
 0 120 l 1
 20 120 l 1xf740
 20 110 l 1
 30 110 l 1
 30 100 l 1
 40 100 l 1xeb40
 40 110 l 1
 70 110 l 1
30 60 m 1
 20 60 l 1
 20 50 l 1
 10 50 l 1
 10 70 l 1
 20 70 l 1
 20 80 l 1
 80 80 l 1
 80 70 l 1
 90 70 l 1
 90 10 l 1xf740
 100 10 l 1
 100 0 l 1
 80 0 l 1
 80 10 l 1
 70 10 l 1
 70 0 l 1
 20 0 l 1
 20 10 l 1
 10 10 l 1
 10 30 l 1
 20 30 l 1
 20 40 l 1
 30 40 l 1
 30 50 l 1
 70 50 l 1
 70 70 l 1
 30 70 l 1
 30 60 l 1
EndSplineSet
Validated: 5
EndChar

StartChar: uni1EA9
Encoding: 7849 7849 185
Width: 110
GlyphClass: 2
Flags: MW
HStem: 0 10<30 60 10 20 90 100> 40 10<10 30 40 70 40 40> 70 10<10 80 20 80 30 30 30 70 20 90> 90 10<20 30 20 40 20 30 60 70 80 90> 110 10<70 90 70 90 70 100>
VStem: 20 10<0 30 10 30 10 40> 30 10<10 40 30 50> 50 10<100 100> 70 20<0 70 0 70 20 40 40 40 50 70 10 70 90 100 110 120>
LayerCount: 2
Fore
SplineSet
70 40 m 1xfd80
 40 40 l 1
 40 30 l 1xfb80
 30 30 l 1
 30 10 l 1
 60 10 l 1
 60 20 l 1
 70 20 l 1
 70 40 l 1xfd80
50 100 m 1
 40 100 l 1
 40 90 l 1xfb80
 20 90 l 1
 20 100 l 1xfd80
 30 100 l 1
 30 110 l 1
 60 110 l 1
 60 100 l 1
 70 100 l 1
 70 90 l 1
 50 90 l 1
 50 100 l 1
20 50 m 1xfd80
 10 50 l 1
 10 70 l 1
 20 70 l 1
 20 80 l 1
 80 80 l 1
 80 70 l 1
 90 70 l 1
 90 10 l 1
 100 10 l 1
 100 0 l 1
 80 0 l 1
 80 10 l 1
 70 10 l 1
 70 0 l 1
 20 0 l 1
 20 10 l 1
 10 10 l 1
 10 30 l 1
 20 30 l 1
 20 40 l 1
 30 40 l 1
 30 50 l 1
 70 50 l 1
 70 70 l 1
 30 70 l 1
 30 60 l 1
 20 60 l 1
 20 50 l 1xfd80
80 100 m 1
 90 100 l 1
 90 110 l 1
 70 110 l 1
 70 120 l 1
 90 120 l 1
 90 110 l 1
 100 110 l 1
 100 100 l 1
 90 100 l 1
 90 90 l 1
 80 90 l 1
 80 100 l 1
EndSplineSet
Validated: 5
EndChar

StartChar: uni1EAC
Encoding: 7852 7852 186
Width: 110
GlyphClass: 2
Flags: MW
HStem: -10 10<40 60> 0 10<0 10 20 30 0 10 60 70 90 100> 0 40<10 20 10 30 0 20 40 60 80 90> 30 10<30 60 10 20> 80 10<30 50 30 40> 100 20<30 40 20 60 40 50 50 50 30 60 30 70> 110 10<20 60 30 60 40 50 40 40 30 70>
VStem: 10 10<10 30 10 40> 20 10<0 30 0 10 40 60> 30 10<-10 10 -10 0 60 80> 50 10<60 60 100 100 110 110> 60 10<0 30 10 30>
LayerCount: 2
Fore
SplineSet
40 60 m 1x2d60
 30 60 l 1
 30 40 l 1
 60 40 l 1
 60 60 l 1
 50 60 l 1
 50 80 l 1
 40 80 l 1
 40 60 l 1x2d60
40 100 m 1
 50 100 l 1x5ca0
 50 110 l 1
 40 110 l 1x5b60
 40 100 l 1
30 10 m 1
 30 0 l 1
 0 0 l 1
 0 10 l 1
 10 10 l 1x5b50
 10 40 l 1
 20 40 l 1
 20 60 l 1
 30 60 l 1
 30 90 l 1
 40 90 l 1
 40 100 l 1x2d50
 20 100 l 1x5c90
 20 110 l 1
 30 110 l 1
 30 120 l 1
 60 120 l 1
 60 110 l 1
 70 110 l 1x5b50
 70 100 l 1
 60 100 l 1
 60 90 l 1
 70 90 l 1
 70 60 l 1
 80 60 l 1
 80 40 l 1
 90 40 l 1x2d50
 90 10 l 1
 100 10 l 1x5b50
 100 0 l 1
 60 0 l 1
 60 -10 l 1
 40 -10 l 1x9b50
 40 0 l 1
 60 0 l 1
 60 10 l 1
 70 10 l 1
 70 30 l 1x5b50
 20 30 l 1
 20 10 l 1
 30 10 l 1
EndSplineSet
Validated: 5
EndChar

StartChar: uni1EAD
Encoding: 7853 7853 187
Width: 110
GlyphClass: 2
Flags: MW
HStem: -10 10<40 60 40 60> -10 30<40 60 40 40> 10 10<30 60 10 20 90 100> 50 10<10 30 40 70 40 40> 50 40<20 30 30 30 40 70 40 40> 80 10<10 80 20 80 30 70 30 30 20 90> 100 10<30 40 30 50 30 40 70 80> 100 20<40 50 30 70 60 70 40 80 60 60>
VStem: 20 10<10 40 20 40 20 50> 40 10<100 120> 40 20<-10 0 -10 0> 60 10<20 50 30 50> 70 20<30 50 50 50 60 80 20 80>
LayerCount: 2
Fore
SplineSet
40 40 m 1x4aa8
 30 40 l 1
 30 20 l 1
 60 20 l 1
 60 30 l 1
 70 30 l 1
 70 50 l 1
 40 50 l 1
 40 40 l 1x4aa8
60 -10 m 1
 40 -10 l 1
 40 0 l 1
 60 0 l 1xb6a8
 60 -10 l 1
20 20 m 1
 10 20 l 1
 10 40 l 1
 20 40 l 1
 20 50 l 1
 30 50 l 1
 30 60 l 1
 70 60 l 1
 70 80 l 1
 30 80 l 1
 30 70 l 1
 20 70 l 1
 20 60 l 1
 10 60 l 1
 10 80 l 1
 20 80 l 1
 20 90 l 1
 80 90 l 1
 80 80 l 1
 90 80 l 1
 90 20 l 1
 100 20 l 1
 100 10 l 1
 80 10 l 1
 80 20 l 1
 60 20 l 1
 60 10 l 1
 20 10 l 1
 20 20 l 1
80 110 m 1
 80 100 l 1
 60 100 l 1
 60 110 l 1xb6a8
 50 110 l 1
 50 100 l 1
 30 100 l 1
 30 110 l 1
 40 110 l 1xb6c8
 40 120 l 1xb5a8
 70 120 l 1xb5d0
 70 110 l 1
 80 110 l 1
EndSplineSet
Validated: 5
EndChar

StartChar: uni1EAF
Encoding: 7855 7855 188
Width: 110
GlyphClass: 2
Flags: MW
HStem: 0 10<30 60 10 20 90 100> 0 40<20 70 10 20> 30 60<10 40 20 40 30 40 40 70 30 40> 40 20<10 20 10 20 30 70> 60 10<10 80 20 80 30 70 30 30 20 90> 60 30<10 40 20 40 30 40 40 70 30 40> 80 10<40 70 30 40> 100 20<50 80 60 70 70 80 60 80> 110 10<50 80 60 80 70 80 70 70>
VStem: 10 10<0 30 40 50> 20 10<0 30 10 30 10 40> 30 10<90 100> 70 20<0 60 0 60 20 30 30 30 40 60 10 60>
LayerCount: 2
Fore
SplineSet
20 50 m 1x44a8
 20 40 l 1
 70 40 l 1
 70 60 l 1
 30 60 l 1
 30 50 l 1
 20 50 l 1x44a8
70 30 m 1xa0a8
 30 30 l 1
 30 10 l 1
 60 10 l 1
 60 20 l 1
 70 20 l 1
 70 30 l 1xa0a8
20 10 m 1
 10 10 l 1
 10 30 l 1
 20 30 l 1xa0a8
 20 40 l 1
 10 40 l 1
 10 60 l 1x92d8
 20 60 l 1
 20 70 l 1
 80 70 l 1x8aa8
 80 60 l 1
 90 60 l 1x84a8
 90 10 l 1
 100 10 l 1
 100 0 l 1
 80 0 l 1
 80 10 l 1
 70 10 l 1
 70 0 l 1
 20 0 l 1
 20 10 l 1
70 110 m 1x92a8
 70 100 l 1
 80 100 l 1
 80 90 l 1
 70 90 l 1
 70 80 l 1
 40 80 l 1
 40 90 l 1
 30 90 l 1
 30 100 l 1
 40 100 l 1
 40 90 l 1
 70 90 l 1
 70 100 l 1
 50 100 l 1x9358
 50 110 l 1
 60 110 l 1
 60 120 l 1
 80 120 l 1
 80 110 l 1
 70 110 l 1x92a8
EndSplineSet
Validated: 5
EndChar

StartChar: uni1EB1
Encoding: 7857 7857 189
Width: 110
GlyphClass: 2
Flags: MW
HStem: 0 10<30 60 10 20 90 100> 0 40<20 70 10 20> 30 60<10 40 20 40 30 40 40 70 30 40> 60 10<10 80 20 80 30 70 30 30 20 90> 60 30<10 40 20 40 30 40 40 70 30 40> 80 10<40 70 30 40> 100 20<30 40 40 40 40 50 30 60 40 40> 110 10<30 40 30 50 30 60>
VStem: 10 10<0 30 40 50> 20 10<0 30 10 30 10 40> 30 10<90 100> 40 10<100 110 110 110> 70 20<0 60 0 60 20 30 30 30 40 60 10 60>
LayerCount: 2
Fore
SplineSet
20 50 m 1x4958
 20 40 l 1
 70 40 l 1
 70 60 l 1
 30 60 l 1
 30 50 l 1
 20 50 l 1x4958
70 30 m 1xa158
 30 30 l 1
 30 10 l 1
 60 10 l 1
 60 20 l 1
 70 20 l 1
 70 30 l 1xa158
20 10 m 1
 10 10 l 1
 10 30 l 1
 20 30 l 1xa158
 20 40 l 1
 10 40 l 1
 10 60 l 1x4998
 20 60 l 1
 20 70 l 1
 80 70 l 1x9558
 80 60 l 1
 90 60 l 1x8958
 90 10 l 1
 100 10 l 1
 100 0 l 1
 80 0 l 1
 80 10 l 1
 70 10 l 1
 70 0 l 1
 20 0 l 1
 20 10 l 1
50 110 m 1
 60 110 l 1x9558
 60 100 l 1
 40 100 l 1
 40 90 l 1
 70 90 l 1
 70 100 l 1
 80 100 l 1
 80 90 l 1
 70 90 l 1
 70 80 l 1
 40 80 l 1
 40 90 l 1
 30 90 l 1
 30 100 l 1
 40 100 l 1x96a8
 40 110 l 1
 30 110 l 1
 30 120 l 1
 50 120 l 1
 50 110 l 1
EndSplineSet
Validated: 5
EndChar

StartChar: uni1EB7
Encoding: 7863 7863 190
Width: 110
GlyphClass: 2
Flags: MW
HStem: -10 10<40 60 40 60> -10 30<40 60 40 40> 10 10<30 60 10 20 90 100> 50 10<10 30 40 70 40 40> 50 40<20 30 30 30 40 70 40 40> 80 10<10 80 20 80 30 70 30 30 20 90> 100 10<40 70 30 40> 100 20<30 70 30 40>
VStem: 20 10<10 40 20 40 20 50> 30 10<110 120> 40 20<-10 0 -10 0> 70 20<30 50 50 50 60 80 20 80>
LayerCount: 2
Fore
SplineSet
40 40 m 1x49b0
 30 40 l 1
 30 20 l 1
 60 20 l 1
 60 30 l 1
 70 30 l 1
 70 50 l 1
 40 50 l 1
 40 40 l 1x49b0
60 -10 m 1
 40 -10 l 1
 40 0 l 1
 60 0 l 1xb5b0
 60 -10 l 1
20 20 m 1xb6b0
 10 20 l 1
 10 40 l 1
 20 40 l 1
 20 50 l 1
 30 50 l 1
 30 60 l 1
 70 60 l 1
 70 80 l 1
 30 80 l 1
 30 70 l 1
 20 70 l 1
 20 60 l 1
 10 60 l 1
 10 80 l 1
 20 80 l 1
 20 90 l 1
 80 90 l 1
 80 80 l 1
 90 80 l 1
 90 20 l 1
 100 20 l 1
 100 10 l 1
 80 10 l 1
 80 20 l 1
 60 20 l 1
 60 10 l 1
 20 10 l 1
 20 20 l 1xb6b0
40 110 m 1
 30 110 l 1xb670
 30 120 l 1
 40 120 l 1xb550
 40 110 l 1
 70 110 l 1xb6b0
 70 120 l 1
 80 120 l 1xb5b0
 80 110 l 1
 70 110 l 1
 70 100 l 1
 40 100 l 1
 40 110 l 1
EndSplineSet
Validated: 5
EndChar

StartChar: uni1EBF
Encoding: 7871 7871 191
Width: 110
GlyphClass: 2
Flags: MW
HStem: 0 10<40 70> 0 50<30 70 30 70> 40 10<30 70 30 90 30 70> 70 10<20 70 30 70 40 60 40 40 30 80> 90 10<20 30 20 30 20 40 60 70> 110 10<70 100 80 100 90 90 90 100>
VStem: 10 20<20 40 50 60> 30 10<0 20 10 20 10 40 10 20> 60 10<100 110> 80 10<10 30 20 30 20 30>
LayerCount: 2
Fore
SplineSet
40 60 m 1x5dc0
 30 60 l 1
 30 50 l 1
 70 50 l 1
 70 60 l 1
 60 60 l 1
 60 70 l 1
 40 70 l 1
 40 60 l 1x5dc0
20 10 m 1xbec0
 20 20 l 1
 10 20 l 1
 10 60 l 1xbec0
 20 60 l 1
 20 70 l 1
 30 70 l 1
 30 80 l 1
 70 80 l 1
 70 70 l 1
 80 70 l 1
 80 60 l 1
 90 60 l 1
 90 40 l 1
 30 40 l 1
 30 20 l 1
 40 20 l 1
 40 10 l 1xbdc0
 70 10 l 1
 70 20 l 1
 80 20 l 1
 80 30 l 1
 90 30 l 1
 90 20 l 1
 80 20 l 1
 80 10 l 1
 70 10 l 1
 70 0 l 1
 30 0 l 1
 30 10 l 1
 20 10 l 1xbec0
20 90 m 1
 20 100 l 1
 30 100 l 1
 30 110 l 1
 60 110 l 1
 60 100 l 1
 70 100 l 1
 70 110 l 1
 80 110 l 1
 80 120 l 1
 100 120 l 1
 100 110 l 1
 90 110 l 1
 90 100 l 1
 70 100 l 1
 70 90 l 1
 50 90 l 1
 50 100 l 1
 40 100 l 1
 40 90 l 1xbdc0
 20 90 l 1
EndSplineSet
Validated: 5
EndChar

StartChar: uni1EC3
Encoding: 7875 7875 192
Width: 110
GlyphClass: 2
Flags: MW
HStem: 0 10<40 70> 0 50<30 70 30 70> 40 10<30 70 30 90 30 70> 70 10<20 70 30 70 40 60 40 40 30 80> 90 10<20 30 20 40 20 30 60 70 80 90> 110 10<70 90 70 90 70 100>
VStem: 10 20<20 40 50 60> 30 10<0 20 10 20 10 40 10 20> 50 10<100 100> 60 10<60 60 70 70 100 100 110 110> 80 10<10 30 20 30 20 30 90 100>
LayerCount: 2
Fore
SplineSet
40 60 m 1x5d60
 30 60 l 1
 30 50 l 1
 70 50 l 1
 70 60 l 1
 60 60 l 1
 60 70 l 1
 40 70 l 1
 40 60 l 1x5d60
60 100 m 1
 70 100 l 1
 70 90 l 1xbe60
 50 90 l 1
 50 100 l 1xbea0
 40 100 l 1
 40 90 l 1
 20 90 l 1
 20 100 l 1
 30 100 l 1
 30 110 l 1
 60 110 l 1
 60 100 l 1
20 10 m 1
 20 20 l 1
 10 20 l 1
 10 60 l 1xbe60
 20 60 l 1
 20 70 l 1
 30 70 l 1
 30 80 l 1
 70 80 l 1
 70 70 l 1
 80 70 l 1
 80 60 l 1
 90 60 l 1
 90 40 l 1
 30 40 l 1
 30 20 l 1
 40 20 l 1
 40 10 l 1xbd60
 70 10 l 1
 70 20 l 1
 80 20 l 1
 80 30 l 1
 90 30 l 1
 90 20 l 1
 80 20 l 1
 80 10 l 1
 70 10 l 1
 70 0 l 1
 30 0 l 1
 30 10 l 1
 20 10 l 1
90 110 m 1
 70 110 l 1
 70 120 l 1
 90 120 l 1
 90 110 l 1
 100 110 l 1
 100 100 l 1
 90 100 l 1
 90 90 l 1
 80 90 l 1
 80 100 l 1
 90 100 l 1
 90 110 l 1
EndSplineSet
Validated: 5
EndChar

StartChar: uni1EC7
Encoding: 7879 7879 193
Width: 110
GlyphClass: 2
Flags: MW
HStem: -10 10<40 60 40 60> -10 30<40 60 20 40> 10 10<40 70 20 30> 40 10<30 70 30 90 30 70> 80 10<20 70 30 70 40 60 40 40 30 80> 100 20<30 40 20 60 50 60 30 70 50 50>
VStem: 10 20<30 40 50 70> 30 10<20 20 30 30 70 70 80 80 110 110> 40 20<-10 0 -10 0 70 80> 50 10<110 110> 60 10<70 70 80 80 110 110> 70 10<10 30 20 30 20 30>
CounterMasks: 1 00a8
LayerCount: 2
Fore
SplineSet
40 70 m 1xbe90
 30 70 l 1
 30 50 l 1
 70 50 l 1
 70 70 l 1
 60 70 l 1
 60 80 l 1
 40 80 l 1
 40 70 l 1xbe90
60 110 m 1
 70 110 l 1
 70 100 l 1
 50 100 l 1
 50 110 l 1x5d50
 40 110 l 1
 40 100 l 1
 20 100 l 1
 20 110 l 1
 30 110 l 1
 30 120 l 1
 60 120 l 1
 60 110 l 1
70 30 m 1
 80 30 l 1
 80 20 l 1
 70 20 l 1
 70 10 l 1
 30 10 l 1xbd50
 30 20 l 1
 20 20 l 1
 20 30 l 1
 10 30 l 1
 10 70 l 1x5e50
 20 70 l 1
 20 80 l 1
 30 80 l 1
 30 90 l 1
 70 90 l 1
 70 80 l 1
 80 80 l 1
 80 70 l 1
 90 70 l 1
 90 40 l 1
 30 40 l 1
 30 30 l 1
 40 30 l 1
 40 20 l 1
 70 20 l 1
 70 30 l 1
60 -10 m 1xbd20
 40 -10 l 1
 40 0 l 1
 60 0 l 1
 60 -10 l 1xbd20
EndSplineSet
Validated: 5
EndChar

StartChar: uni1EC9
Encoding: 7881 7881 194
Width: 110
GlyphClass: 2
Flags: MW
HStem: 0 10<20 40 60 80 20 40> 80 10<20 40 20 50> 110 10<40 60 40 60 40 70>
VStem: 40 20<10 80 80 80 110 120>
LayerCount: 2
Fore
SplineSet
80 0 m 1
 20 0 l 1
 20 10 l 1
 40 10 l 1
 40 80 l 1
 20 80 l 1
 20 90 l 1xd0
 50 90 l 1
 50 100 l 1
 60 100 l 1
 60 110 l 1
 40 110 l 1
 40 120 l 1
 60 120 l 1
 60 110 l 1
 70 110 l 1
 70 100 l 1
 60 100 l 1xf0
 60 10 l 1
 80 10 l 1
 80 0 l 1
EndSplineSet
Validated: 5
EndChar

StartChar: uni1ECB
Encoding: 7883 7883 195
Width: 110
GlyphClass: 2
Flags: MW
HStem: -10 10<40 60 40 60> -10 30<20 60 20 40> 10 10<20 40 60 80 20 40> 80 10<20 40 20 60> 100 20<40 60 40 60>
VStem: 40 20<-10 0 -10 0 20 80 80 80 100 120>
LayerCount: 2
Fore
SplineSet
80 10 m 1x3c
 20 10 l 1x3c
 20 20 l 1
 40 20 l 1
 40 80 l 1
 20 80 l 1
 20 90 l 1
 60 90 l 1
 60 20 l 1x5c
 80 20 l 1
 80 10 l 1x3c
40 120 m 1
 60 120 l 1
 60 100 l 1
 40 100 l 1
 40 120 l 1
60 -10 m 1x9c
 40 -10 l 1
 40 0 l 1
 60 0 l 1
 60 -10 l 1x9c
EndSplineSet
Validated: 1
EndChar

StartChar: uni1ECD
Encoding: 7885 7885 196
Width: 110
GlyphClass: 2
Flags: MW
HStem: -10 10<40 60 40 60> -10 30<40 60 20 40> 10 10<40 60> 80 10<20 70 30 70 40 60 40 40 30 80>
VStem: 20 10<10 30> 40 20<-10 0 -10 0 20 30 70 80> 70 10<10 30 20 70>
CounterMasks: 1 0e
LayerCount: 2
Fore
SplineSet
40 70 m 1x5e
 30 70 l 1
 30 30 l 1
 40 30 l 1
 40 20 l 1
 60 20 l 1
 60 30 l 1
 70 30 l 1
 70 70 l 1
 60 70 l 1
 60 80 l 1
 40 80 l 1
 40 70 l 1x5e
20 20 m 1
 20 30 l 1
 10 30 l 1
 10 70 l 1
 20 70 l 1
 20 80 l 1
 30 80 l 1
 30 90 l 1
 70 90 l 1
 70 80 l 1
 80 80 l 1
 80 70 l 1
 90 70 l 1
 90 30 l 1
 80 30 l 1
 80 20 l 1
 70 20 l 1
 70 10 l 1
 30 10 l 1xbe
 30 20 l 1
 20 20 l 1
60 -10 m 1
 40 -10 l 1
 40 0 l 1
 60 0 l 1
 60 -10 l 1
EndSplineSet
Validated: 1
EndChar

StartChar: uni1ECF
Encoding: 7887 7887 197
Width: 110
GlyphClass: 2
Flags: MW
HStem: 0 10<40 60> 80 10<20 50 30 50 40 50 30 60 40 40> 110 10<40 60 40 60 40 70>
VStem: 10 20<20 70> 60 10<0 20 100 110> 70 20<0 70 20 70 20 70 20 80 20 90>
LayerCount: 2
Fore
SplineSet
40 70 m 1xf8
 30 70 l 1
 30 20 l 1
 40 20 l 1
 40 10 l 1
 60 10 l 1
 60 20 l 1
 70 20 l 1
 70 70 l 1
 60 70 l 1
 60 80 l 1
 40 80 l 1
 40 70 l 1xf8
20 10 m 1
 20 20 l 1
 10 20 l 1
 10 70 l 1
 20 70 l 1
 20 80 l 1
 30 80 l 1
 30 90 l 1
 50 90 l 1
 50 100 l 1
 60 100 l 1
 60 110 l 1
 40 110 l 1
 40 120 l 1
 60 120 l 1
 60 110 l 1
 70 110 l 1
 70 100 l 1
 60 100 l 1
 60 90 l 1xf8
 70 90 l 1
 70 80 l 1
 80 80 l 1
 80 70 l 1
 90 70 l 1
 90 20 l 1xf4
 80 20 l 1
 80 10 l 1
 70 10 l 1
 70 0 l 1
 30 0 l 1
 30 10 l 1
 20 10 l 1
EndSplineSet
Validated: 5
EndChar

StartChar: uni1ED1
Encoding: 7889 7889 198
Width: 110
GlyphClass: 2
Flags: MW
HStem: 0 10<40 60> 70 10<20 70 30 70 40 60 40 40 30 80> 90 10<20 30 20 30 20 40 60 70> 100 10<20 60 30 60 40 40 40 50 30 70 70 80> 110 10<70 100 80 100 90 90 90 100>
VStem: 20 10<0 20> 30 10<0 20 10 20 10 60 10 20> 30 40<0 10 0 10 20 60 0 20 70 80 100 110> 60 10<0 20 100 110> 70 10<0 20 10 60>
LayerCount: 2
Fore
SplineSet
40 60 m 1xea80
 30 60 l 1
 30 20 l 1
 40 20 l 1
 40 10 l 1
 60 10 l 1
 60 20 l 1
 70 20 l 1
 70 60 l 1
 60 60 l 1
 60 70 l 1
 40 70 l 1
 40 60 l 1xea80
20 10 m 1xec80
 20 20 l 1
 10 20 l 1
 10 60 l 1
 20 60 l 1
 20 70 l 1xec80
 30 70 l 1
 30 80 l 1xe9
 70 80 l 1
 70 70 l 1
 80 70 l 1
 80 60 l 1
 90 60 l 1
 90 20 l 1
 80 20 l 1
 80 10 l 1xec40
 70 10 l 1
 70 0 l 1xe9
 30 0 l 1
 30 10 l 1
 20 10 l 1xec80
20 90 m 1
 20 100 l 1xec80
 30 100 l 1
 30 110 l 1xd1
 60 110 l 1
 60 100 l 1xd480
 70 100 l 1
 70 110 l 1
 80 110 l 1
 80 120 l 1xec40
 100 120 l 1
 100 110 l 1
 90 110 l 1
 90 100 l 1
 70 100 l 1
 70 90 l 1xe9
 50 90 l 1
 50 100 l 1
 40 100 l 1
 40 90 l 1xea80
 20 90 l 1
EndSplineSet
Validated: 5
EndChar

StartChar: uni1ED3
Encoding: 7891 7891 199
Width: 110
GlyphClass: 2
Flags: MW
HStem: 0 10<40 60> 70 10<20 70 30 70 40 60 40 40 30 80> 90 10<30 40 10 30 70 80> 100 10<20 30 0 10 50 60 50 50> 110 10<0 10 0 20 0 30>
VStem: 20 10<0 20> 30 10<0 20 10 20 10 60 10 20 100 110> 30 40<0 10 0 10 20 60 0 20 70 80 100 110> 40 10<90 110> 60 10<0 20> 70 10<0 20 10 60>
LayerCount: 2
Fore
SplineSet
40 60 m 1xd240
 30 60 l 1
 30 20 l 1
 40 20 l 1
 40 10 l 1
 60 10 l 1
 60 20 l 1
 70 20 l 1
 70 60 l 1
 60 60 l 1
 60 70 l 1
 40 70 l 1
 40 60 l 1xd240
70 100 m 1
 80 100 l 1
 80 90 l 1xd1
 60 90 l 1
 60 100 l 1
 50 100 l 1
 50 90 l 1
 30 90 l 1xecc0
 30 100 l 1
 10 100 l 1xd1
 10 110 l 1
 0 110 l 1
 0 120 l 1
 20 120 l 1
 20 110 l 1xeca0
 30 110 l 1
 30 100 l 1
 40 100 l 1
 40 110 l 1
 70 110 l 1
 70 100 l 1
20 10 m 1xeca0
 20 20 l 1
 10 20 l 1
 10 60 l 1
 20 60 l 1
 20 70 l 1xeca0
 30 70 l 1
 30 80 l 1xe9
 70 80 l 1
 70 70 l 1
 80 70 l 1
 80 60 l 1
 90 60 l 1
 90 20 l 1
 80 20 l 1
 80 10 l 1xea20
 70 10 l 1
 70 0 l 1xe9
 30 0 l 1
 30 10 l 1
 20 10 l 1xeca0
EndSplineSet
Validated: 5
EndChar

StartChar: uni1ED5
Encoding: 7893 7893 200
Width: 110
GlyphClass: 2
Flags: MW
HStem: 0 10<40 60> 70 10<20 70 30 70 40 60 40 40 30 80> 90 10<20 30 20 40 20 30 60 70 80 90> 110 10<70 90 70 90 70 100>
VStem: 20 10<0 20> 30 10<0 20 10 20 10 60 10 20> 50 10<100 100> 60 10<0 20> 70 20<0 60 20 60 20 60 20 70 20 80 90 100 110 120>
LayerCount: 2
Fore
SplineSet
40 60 m 1xf5
 30 60 l 1
 30 20 l 1
 40 20 l 1
 40 10 l 1
 60 10 l 1
 60 20 l 1
 70 20 l 1
 70 60 l 1
 60 60 l 1
 60 70 l 1
 40 70 l 1
 40 60 l 1xf5
60 100 m 1
 70 100 l 1
 70 90 l 1
 50 90 l 1
 50 100 l 1
 40 100 l 1
 40 90 l 1xf680
 20 90 l 1
 20 100 l 1xfa80
 30 100 l 1
 30 110 l 1
 60 110 l 1
 60 100 l 1
20 10 m 1xfa80
 20 20 l 1
 10 20 l 1
 10 60 l 1
 20 60 l 1
 20 70 l 1
 30 70 l 1
 30 80 l 1
 70 80 l 1
 70 70 l 1
 80 70 l 1
 80 60 l 1
 90 60 l 1
 90 20 l 1
 80 20 l 1
 80 10 l 1
 70 10 l 1
 70 0 l 1
 30 0 l 1
 30 10 l 1
 20 10 l 1xfa80
90 100 m 1
 90 110 l 1
 70 110 l 1
 70 120 l 1
 90 120 l 1
 90 110 l 1
 100 110 l 1
 100 100 l 1
 90 100 l 1
 90 90 l 1
 80 90 l 1
 80 100 l 1
 90 100 l 1
EndSplineSet
Validated: 5
EndChar

StartChar: uni1ED6
Encoding: 7894 7894 201
Width: 110
GlyphClass: 2
Flags: MW
HStem: 0 10<30 70 10 20> 0 70<20 80 20 80> 20 30<0 10 0 10 20 30 0 30 70 80 90 100> 60 30<10 30 20 30 20 30 20 40 40 50 60 70> 80 10<20 30 20 40 20 30 60 70> 80 20<20 30 30 40 20 30 60 70> 100 10<20 30 20 30 30 50 60 60 60 70> 110 10<20 50 30 50 30 50 30 50 30 70 70 80>
VStem: 10 10<0 20> 20 10<0 20 10 20 10 50 10 20 100 110> 30 10<80 100> 50 10<80 100 90 100 90 110> 80 10<0 20 10 50>
CounterMasks: 1 0058
LayerCount: 2
Fore
SplineSet
30 110 m 1xb258
 30 100 l 1
 50 100 l 1
 50 110 l 1
 30 110 l 1xb258
30 60 m 1
 30 50 l 1
 20 50 l 1
 20 20 l 1
 30 20 l 1
 30 10 l 1
 70 10 l 1
 70 20 l 1
 80 20 l 1
 80 50 l 1
 70 50 l 1
 70 60 l 1
 30 60 l 1
20 90 m 1
 30 90 l 1xa9b8
 30 100 l 1
 20 100 l 1
 20 110 l 1
 30 110 l 1
 30 120 l 1
 50 120 l 1
 50 110 l 1
 70 110 l 1
 70 120 l 1
 80 120 l 1
 80 110 l 1
 70 110 l 1
 70 100 l 1
 60 100 l 1xa558
 60 90 l 1
 70 90 l 1
 70 80 l 1
 50 80 l 1
 50 90 l 1
 40 90 l 1
 40 80 l 1xa9b8
 20 80 l 1xa558
 20 90 l 1
10 20 m 1
 0 20 l 1
 0 50 l 1
 10 50 l 1
 10 60 l 1
 20 60 l 1xb1b8
 20 70 l 1
 80 70 l 1x45b8
 80 60 l 1
 90 60 l 1xb1b8
 90 50 l 1
 100 50 l 1
 100 20 l 1
 90 20 l 1
 90 10 l 1
 80 10 l 1
 80 0 l 1
 20 0 l 1
 20 10 l 1
 10 10 l 1
 10 20 l 1
EndSplineSet
Validated: 5
EndChar

StartChar: uni1ED9
Encoding: 7897 7897 202
Width: 110
GlyphClass: 2
Flags: MW
HStem: -10 10<40 60 40 60> -10 30<40 60 20 40> 10 10<40 60> 80 10<20 70 30 70 40 60 40 40 30 80> 100 20<30 40 20 60 50 60 30 70 50 50>
VStem: 20 10<10 30> 30 10<20 20 30 30 70 70 80 80 110 110> 40 20<-10 0 -10 0 20 30 70 80> 50 10<110 110> 60 10<10 30> 70 10<10 30 20 70>
CounterMasks: 1 03d0
LayerCount: 2
Fore
SplineSet
40 70 m 1x5d20
 30 70 l 1
 30 30 l 1
 40 30 l 1
 40 20 l 1
 60 20 l 1
 60 30 l 1
 70 30 l 1
 70 70 l 1
 60 70 l 1
 60 80 l 1
 40 80 l 1
 40 70 l 1x5d20
60 110 m 1
 70 110 l 1
 70 100 l 1
 50 100 l 1
 50 110 l 1x5ca0
 40 110 l 1
 40 100 l 1
 20 100 l 1
 20 110 l 1
 30 110 l 1
 30 120 l 1
 60 120 l 1
 60 110 l 1
20 20 m 1
 20 30 l 1
 10 30 l 1
 10 70 l 1
 20 70 l 1
 20 80 l 1
 30 80 l 1
 30 90 l 1
 70 90 l 1
 70 80 l 1
 80 80 l 1
 80 70 l 1
 90 70 l 1
 90 30 l 1
 80 30 l 1
 80 20 l 1
 70 20 l 1
 70 10 l 1
 30 10 l 1xbca0
 30 20 l 1
 20 20 l 1
60 -10 m 1xba40
 40 -10 l 1
 40 0 l 1
 60 0 l 1
 60 -10 l 1xba40
EndSplineSet
Validated: 1
EndChar

StartChar: uni1EDB
Encoding: 7899 7899 203
Width: 110
GlyphClass: 2
Flags: MW
HStem: 0 10<40 60> 70 10<10 30 20 30 20 40 20 30> 70 20<10 70 20 70 30 40 30 70 60 60 60 70 30 90 90 100> 80 10<20 70 30 70 40 60 40 40 30 80> 100 20<50 60 40 70> 110 10<40 70 50 70 60 70 60 60>
VStem: 10 20<20 70> 50 10<110 110> 60 10<0 20> 70 20<0 70 20 70 20 70 80 80 80 90> 90 10<20 90 70 90 70 90>
LayerCount: 2
Fore
SplineSet
40 70 m 1xc6a0
 30 70 l 1
 30 20 l 1
 40 20 l 1
 40 10 l 1
 60 10 l 1
 60 20 l 1
 70 20 l 1
 70 70 l 1
 60 70 l 1
 60 80 l 1
 40 80 l 1
 40 70 l 1xc6a0
20 10 m 1
 20 20 l 1
 10 20 l 1
 10 70 l 1
 20 70 l 1xa6a0
 20 80 l 1
 30 80 l 1
 30 90 l 1
 70 90 l 1
 70 80 l 1
 80 80 l 1x9740
 80 70 l 1
 90 70 l 1
 90 90 l 1
 100 90 l 1
 100 70 l 1xa6a0
 90 70 l 1
 90 20 l 1xa740
 80 20 l 1
 80 10 l 1
 70 10 l 1
 70 0 l 1
 30 0 l 1
 30 10 l 1
 20 10 l 1
70 120 m 1
 70 110 l 1
 60 110 l 1x96a0
 60 100 l 1
 40 100 l 1x9aa0
 40 110 l 1
 50 110 l 1
 50 120 l 1x9740
 70 120 l 1
EndSplineSet
Validated: 5
EndChar

StartChar: uni1EDD
Encoding: 7901 7901 204
Width: 110
GlyphClass: 2
Flags: MW
HStem: 0 10<40 60> 70 10<10 30 20 30 20 40 20 30> 70 20<10 70 20 70 30 40 30 70 60 60 60 70 30 90 90 100> 80 10<20 70 30 70 40 60 40 40 30 80> 100 20<40 50 30 60 40 40> 110 10<30 40 30 50 30 60>
VStem: 10 20<20 70> 30 10<0 20 10 20 10 70 10 20> 40 10<100 120 110 120> 70 20<0 70 20 70 20 70 80 80 80 90> 90 10<20 90 70 90 70 90>
LayerCount: 2
Fore
SplineSet
40 70 m 1xc540
 30 70 l 1
 30 20 l 1
 40 20 l 1
 40 10 l 1
 60 10 l 1
 60 20 l 1
 70 20 l 1
 70 70 l 1
 60 70 l 1
 60 80 l 1
 40 80 l 1
 40 70 l 1xc540
40 110 m 1
 30 110 l 1
 30 120 l 1
 50 120 l 1
 50 110 l 1
 60 110 l 1xa6c0
 60 100 l 1
 40 100 l 1x9ac0
 40 110 l 1
20 10 m 1
 20 20 l 1
 10 20 l 1
 10 70 l 1
 20 70 l 1xaac0
 20 80 l 1
 30 80 l 1
 30 90 l 1
 70 90 l 1
 70 80 l 1
 80 80 l 1x9ac0
 80 70 l 1
 90 70 l 1
 90 90 l 1
 100 90 l 1
 100 70 l 1xaaa0
 90 70 l 1
 90 20 l 1
 80 20 l 1
 80 10 l 1
 70 10 l 1
 70 0 l 1
 30 0 l 1
 30 10 l 1
 20 10 l 1
EndSplineSet
Validated: 5
EndChar

StartChar: uni1EDF
Encoding: 7903 7903 205
Width: 110
GlyphClass: 2
Flags: MW
HStem: 0 10<40 60> 70 20<10 50 20 50 30 40 30 50 60 70 30 60 90 100> 80 10<20 50 30 50 40 50 30 60 40 40> 110 10<40 60 40 60 40 70>
VStem: 10 20<20 70> 60 10<0 20 100 110> 70 20<0 70 20 70 20 70 80 80 80 90> 90 10<20 90 70 90 70 90>
LayerCount: 2
Fore
SplineSet
30 20 m 1xda
 40 20 l 1
 40 10 l 1
 60 10 l 1
 60 20 l 1
 70 20 l 1
 70 70 l 1
 60 70 l 1xdd
 60 80 l 1
 40 80 l 1xbd
 40 70 l 1
 30 70 l 1
 30 20 l 1xda
20 10 m 1
 20 20 l 1
 10 20 l 1
 10 70 l 1
 20 70 l 1xda
 20 80 l 1
 30 80 l 1
 30 90 l 1
 50 90 l 1
 50 100 l 1
 60 100 l 1
 60 110 l 1
 40 110 l 1
 40 120 l 1
 60 120 l 1
 60 110 l 1
 70 110 l 1
 70 100 l 1
 60 100 l 1
 60 90 l 1xbd
 70 90 l 1
 70 80 l 1
 80 80 l 1xba
 80 70 l 1
 90 70 l 1
 90 90 l 1
 100 90 l 1
 100 70 l 1xdd
 90 70 l 1
 90 20 l 1xda
 80 20 l 1
 80 10 l 1
 70 10 l 1
 70 0 l 1
 30 0 l 1
 30 10 l 1
 20 10 l 1
EndSplineSet
Validated: 5
EndChar

StartChar: uni1EE3
Encoding: 7907 7907 206
Width: 110
GlyphClass: 2
Flags: MW
HStem: -10 10<40 60 40 60> -10 30<20 40 40 60> 10 10<40 60 20 30> 70 20<10 70 20 70 30 40 30 70 60 70 60 60 30 90 90 100> 80 10<20 70 30 70 40 60 40 40 30 80>
VStem: 20 10<10 30> 40 20<-10 0 -10 0 20 30 70 80> 70 10<10 30 20 70> 90 10<30 90 70 90 70 90>
LayerCount: 2
Fore
SplineSet
30 30 m 1xb780
 40 30 l 1
 40 20 l 1
 60 20 l 1
 60 30 l 1
 70 30 l 1
 70 70 l 1
 60 70 l 1x5780
 60 80 l 1
 40 80 l 1xaf80
 40 70 l 1
 30 70 l 1
 30 30 l 1xb780
40 -10 m 1
 40 0 l 1
 60 0 l 1xaf80
 60 -10 l 1
 40 -10 l 1
10 30 m 1
 10 70 l 1
 20 70 l 1xb780
 20 80 l 1
 30 80 l 1
 30 90 l 1
 70 90 l 1
 70 80 l 1
 80 80 l 1xaf80
 80 70 l 1
 90 70 l 1
 90 90 l 1
 100 90 l 1
 100 70 l 1
 90 70 l 1
 90 30 l 1
 80 30 l 1
 80 20 l 1
 70 20 l 1
 70 10 l 1
 30 10 l 1xb780
 30 20 l 1
 20 20 l 1x4f80
 20 30 l 1
 10 30 l 1
EndSplineSet
Validated: 5
EndChar

StartChar: uni1EE7
Encoding: 7911 7911 207
Width: 110
GlyphClass: 2
Flags: MW
HStem: 0 10<40 60 20 30 90 100> 80 10<0 30 0 10 60 70> 90 10<40 50 40 50> 110 10<30 50 30 50 30 60>
VStem: 10 20<20 80 80 80> 40 10<90 100 90 100> 70 20<0 90 10 90 20 80 80 80>
LayerCount: 2
Fore
SplineSet
0 80 m 1xca
 0 90 l 1
 30 90 l 1
 30 20 l 1
 40 20 l 1
 40 10 l 1
 60 10 l 1
 60 20 l 1
 70 20 l 1
 70 80 l 1
 60 80 l 1
 60 90 l 1
 90 90 l 1
 90 10 l 1
 100 10 l 1
 100 0 l 1
 70 0 l 1
 70 10 l 1
 60 10 l 1
 60 0 l 1
 30 0 l 1
 30 10 l 1
 20 10 l 1
 20 20 l 1
 10 20 l 1
 10 80 l 1
 0 80 l 1xca
50 100 m 1xae
 50 110 l 1
 30 110 l 1
 30 120 l 1xde
 50 120 l 1
 50 110 l 1
 60 110 l 1
 60 100 l 1
 50 100 l 1
 50 90 l 1
 40 90 l 1
 40 100 l 1
 50 100 l 1xae
EndSplineSet
Validated: 5
EndChar

StartChar: uni1EE9
Encoding: 7913 7913 208
Width: 110
GlyphClass: 2
Flags: MW
HStem: 0 10<30 50 10 20 80 90> 60 10<80 90 80 90> 80 10<0 30 0 10 50 60> 100 20<40 50 30 60> 110 10<30 60 40 60 50 50 50 60>
VStem: 10 20<10 80 80 80> 40 10<110 110> 50 10<0 10 0 10 0 20> 60 20<0 60 10 60 20 60 70 80 80 80> 90 10<60 90 70 90 70 90>
LayerCount: 2
Fore
SplineSet
0 80 m 1xa440
 0 90 l 1
 30 90 l 1
 30 10 l 1xa440
 50 10 l 1
 50 20 l 1
 60 20 l 1xa4c0
 60 80 l 1
 50 80 l 1
 50 90 l 1xa540
 80 90 l 1xa4c0
 80 70 l 1
 90 70 l 1xe440
 90 90 l 1
 100 90 l 1xa440
 100 70 l 1
 90 70 l 1
 90 60 l 1
 80 60 l 1
 80 10 l 1
 90 10 l 1
 90 0 l 1xe4c0
 60 0 l 1
 60 10 l 1
 50 10 l 1
 50 0 l 1
 20 0 l 1
 20 10 l 1
 10 10 l 1
 10 80 l 1
 0 80 l 1xa440
50 100 m 1xb440
 30 100 l 1
 30 110 l 1
 40 110 l 1
 40 120 l 1xae40
 60 120 l 1
 60 110 l 1
 50 110 l 1
 50 100 l 1xb440
EndSplineSet
Validated: 5
EndChar

StartChar: uni1EED
Encoding: 7917 7917 209
Width: 110
GlyphClass: 2
Flags: MW
HStem: 0 10<30 50 10 20 80 90> 60 10<80 90 80 90> 70 20<90 100> 80 10<0 30 0 10 50 60> 110 10<30 50 30 50 30 60>
VStem: 10 20<10 80 80 80> 40 10<90 100> 50 10<0 10 0 10 0 20 100 110> 60 20<0 60 10 60 20 60 70 80 80 80> 90 10<60 90 70 90 70 90>
LayerCount: 2
Fore
SplineSet
0 80 m 1x9440
 0 90 l 1
 30 90 l 1
 30 10 l 1x9440
 50 10 l 1
 50 20 l 1
 60 20 l 1x94c0
 60 80 l 1
 50 80 l 1
 50 90 l 1
 40 90 l 1
 40 100 l 1
 50 100 l 1
 50 110 l 1
 30 110 l 1
 30 120 l 1x9d40
 50 120 l 1
 50 110 l 1
 60 110 l 1
 60 100 l 1
 50 100 l 1
 50 90 l 1x9640
 80 90 l 1x94c0
 80 70 l 1
 90 70 l 1xd440
 90 90 l 1
 100 90 l 1x9440
 100 70 l 1
 90 70 l 1
 90 60 l 1
 80 60 l 1
 80 10 l 1
 90 10 l 1
 90 0 l 1xa4c0
 60 0 l 1
 60 10 l 1
 50 10 l 1
 50 0 l 1
 20 0 l 1
 20 10 l 1
 10 10 l 1
 10 80 l 1
 0 80 l 1x9440
EndSplineSet
Validated: 5
EndChar

StartChar: uni1EEF
Encoding: 7919 7919 210
Width: 110
GlyphClass: 2
Flags: MW
HStem: 0 10<30 50 10 20 80 90> 60 10<80 90 80 90> 80 10<0 10 0 30 50 60> 100 10<20 30 20 30 50 70> 110 10<20 50 30 50 30 50 30 50 30 70 70 80>
VStem: 10 20<10 80 80 80> 60 20<0 60 10 60 20 60 70 80 80 80> 90 10<60 90 70 90 70 90>
LayerCount: 2
Fore
SplineSet
20 10 m 1xf7
 10 10 l 1
 10 80 l 1
 0 80 l 1
 0 90 l 1
 30 90 l 1
 30 10 l 1
 50 10 l 1
 50 20 l 1
 60 20 l 1
 60 80 l 1
 50 80 l 1
 50 90 l 1
 80 90 l 1
 80 70 l 1
 90 70 l 1
 90 90 l 1
 100 90 l 1
 100 70 l 1
 90 70 l 1
 90 60 l 1
 80 60 l 1
 80 10 l 1
 90 10 l 1
 90 0 l 1
 60 0 l 1
 60 10 l 1
 50 10 l 1
 50 0 l 1
 20 0 l 1
 20 10 l 1xf7
50 110 m 1
 30 110 l 1
 30 100 l 1
 20 100 l 1xf7
 20 110 l 1
 30 110 l 1
 30 120 l 1
 50 120 l 1
 50 110 l 1
 70 110 l 1
 70 120 l 1
 80 120 l 1xef
 80 110 l 1
 70 110 l 1
 70 100 l 1
 50 100 l 1
 50 110 l 1
EndSplineSet
Validated: 5
EndChar

StartChar: uni1EF1
Encoding: 7921 7921 211
Width: 110
GlyphClass: 2
Flags: MW
HStem: -10 10<40 60 40 60> 10 10<30 50 10 20 80 90> 60 10<80 90 80 90> 80 10<0 10 0 30 50 60>
VStem: 10 20<20 80 80 80> 40 10 50 10<10 20> 60 20<10 60 20 60 30 60 70 80 80 80> 90 10<60 90 70 90 70 90>
LayerCount: 2
Fore
SplineSet
10 80 m 1xfa80
 0 80 l 1
 0 90 l 1
 30 90 l 1
 30 20 l 1
 50 20 l 1
 50 30 l 1
 60 30 l 1
 60 80 l 1
 50 80 l 1
 50 90 l 1xfa80
 80 90 l 1
 80 70 l 1
 90 70 l 1
 90 90 l 1
 100 90 l 1
 100 70 l 1
 90 70 l 1
 90 60 l 1
 80 60 l 1
 80 20 l 1xfd80
 90 20 l 1
 90 10 l 1
 60 10 l 1
 60 20 l 1
 50 20 l 1
 50 10 l 1
 20 10 l 1
 20 20 l 1
 10 20 l 1
 10 80 l 1xfa80
60 -10 m 1
 40 -10 l 1
 40 0 l 1xfb80
 60 0 l 1
 60 -10 l 1
EndSplineSet
Validated: 5
EndChar

StartChar: ellipsis
Encoding: 8230 8230 212
Width: 110
GlyphClass: 2
Flags: MW
HStem: 60 20<0 20 0 20 40 60 80 100>
VStem: 0 20<60 80 60 80> 40 20<60 80 60 80> 80 20<60 80 60 80>
CounterMasks: 1 70
LayerCount: 2
Fore
SplineSet
0 60 m 1
 0 80 l 1
 20 80 l 1
 20 60 l 1
 0 60 l 1
40 60 m 1xf0
 40 80 l 1
 60 80 l 1
 60 60 l 1
 40 60 l 1xf0
80 60 m 1xd0
 80 80 l 1
 100 80 l 1
 100 60 l 1
 80 60 l 1xd0
EndSplineSet
Validated: 1
EndChar

StartChar: uni2070
Encoding: 8304 8304 213
Width: 110
GlyphClass: 2
Flags: MW
HStem: 50 10<30 60> 50 70<20 70 20 70> 110 10<10 70 20 70 30 60 30 30 20 80>
VStem: 10 20<60 110 60 110> 60 20<60 110 60 110>
CounterMasks: 1 e0
LayerCount: 2
Fore
SplineSet
10 60 m 1x98
 10 110 l 1
 20 110 l 1xb8
 20 120 l 1
 70 120 l 1x58
 70 110 l 1
 80 110 l 1
 80 60 l 1
 70 60 l 1xb8
 70 50 l 1
 20 50 l 1x58
 20 60 l 1
 10 60 l 1x98
30 110 m 1
 30 60 l 1
 60 60 l 1
 60 110 l 1
 30 110 l 1
EndSplineSet
Validated: 1
AlternateSubs2: "'ssty' Math Script Style lookup 4 subtable" zero.superior.ssty zero.superior.ssty2
AlternateSubs2: "'aalt' Access All Alternates lookup 1 subtable" zero.superior.ssty zero.superior.ssty2
EndChar

StartChar: uni2074
Encoding: 8308 8308 214
Width: 110
GlyphClass: 2
Flags: MW
HStem: 50 70<50 70 50 80 40 70> 70 10<10 20 10 20 30 50 70 80> 70 20<10 30 20 30 30 40 20 50> 100 20<30 70 40 70 40 70 40 70>
VStem: 30 10<90 100> 50 20<60 70 60 70 80 100 100 100 110 120>
LayerCount: 2
Fore
SplineSet
10 70 m 1x3c
 10 80 l 1
 20 80 l 1
 20 90 l 1
 30 90 l 1x3c
 30 100 l 1
 40 100 l 1
 40 110 l 1
 50 110 l 1
 50 120 l 1
 70 120 l 1
 70 80 l 1
 80 80 l 1x5c
 80 70 l 1
 70 70 l 1x3c
 70 60 l 1
 80 60 l 1
 80 50 l 1
 40 50 l 1x8c
 40 60 l 1
 50 60 l 1
 50 70 l 1
 10 70 l 1x3c
30 80 m 1x5c
 50 80 l 1x5c
 50 100 l 1
 40 100 l 1
 40 90 l 1
 30 90 l 1x3c
 30 80 l 1x5c
EndSplineSet
Validated: 5
AlternateSubs2: "'ssty' Math Script Style lookup 4 subtable" four.superior.ssty four.superior.ssty2
AlternateSubs2: "'aalt' Access All Alternates lookup 1 subtable" four.superior.ssty four.superior.ssty2
EndChar

StartChar: uni2075
Encoding: 8309 8309 215
Width: 110
GlyphClass: 2
Flags: MW
HStem: 50 10<30 60> 50 40<30 60 30 70 20 60> 60 30<10 60 10 60 30 60 30 60 30 70 70 81> 90 10<30 60 30 30 20 81> 110 10<20 80 20 20>
VStem: 10 10<50 70 100 110> 60 10<50 90>
LayerCount: 2
Fore
SplineSet
10 60 m 1x2e
 10 70 l 1x2e
 30 70 l 1
 30 60 l 1
 60 60 l 1x8e
 60 90 l 1
 30 90 l 1
 30 80 l 1
 10 80 l 1x9e
 10 120 l 1
 80 120 l 1
 80 110 l 1x8e
 20 110 l 1
 20 100 l 1x9e
 70 100 l 1
 70 90 l 1
 81 90 l 1x4e
 81 60 l 1
 70 60 l 1
 70 50 l 1x8e
 20 50 l 1
 20 60 l 1
 10 60 l 1x2e
EndSplineSet
Validated: 1
AlternateSubs2: "'ssty' Math Script Style lookup 4 subtable" five.superior.ssty five.superior.ssty2
AlternateSubs2: "'aalt' Access All Alternates lookup 1 subtable" five.superior.ssty five.superior.ssty2
EndChar

StartChar: uni2076
Encoding: 8310 8310 216
Width: 110
GlyphClass: 2
Flags: MW
HStem: 50 10<30 60 10 20> 50 40<30 70 30 70 20 70> 80 10<30 60 30 70 30 80> 110 10<10 70 20 70 30 30 30 60 20 80>
VStem: 10 20<60 80 90 110> 60 10<50 80>
LayerCount: 2
Fore
SplineSet
20 60 m 1x9c
 10 60 l 1x9c
 10 110 l 1
 20 110 l 1
 20 120 l 1
 70 120 l 1
 70 110 l 1
 80 110 l 1
 80 100 l 1
 60 100 l 1
 60 110 l 1
 30 110 l 1
 30 90 l 1
 70 90 l 1x5c
 70 80 l 1
 80 80 l 1
 80 60 l 1
 70 60 l 1xbc
 70 50 l 1x5c
 20 50 l 1
 20 60 l 1x9c
60 60 m 1
 60 80 l 1
 30 80 l 1xbc
 30 60 l 1
 60 60 l 1
EndSplineSet
Validated: 1
AlternateSubs2: "'ssty' Math Script Style lookup 4 subtable" six.superior.ssty six.superior.ssty2
AlternateSubs2: "'aalt' Access All Alternates lookup 1 subtable" six.superior.ssty six.superior.ssty2
EndChar

StartChar: uni2077
Encoding: 8311 8311 217
Width: 110
GlyphClass: 2
Flags: MW
HStem: 80 10<30 50 40 50 40 60 40 50> 110 10<20 60 20 20>
VStem: 10 10<100 110 100 120> 30 20<50 80 50 80> 60 10<80 100 90 110>
CounterMasks: 1 38
LayerCount: 2
Fore
SplineSet
10 120 m 1
 80 120 l 1x58
 80 100 l 1
 70 100 l 1
 70 90 l 1
 60 90 l 1
 60 80 l 1
 50 80 l 1
 50 50 l 1
 30 50 l 1xd0
 30 80 l 1
 40 80 l 1
 40 90 l 1
 50 90 l 1
 50 100 l 1
 60 100 l 1
 60 110 l 1
 20 110 l 1
 20 100 l 1
 10 100 l 1
 10 120 l 1
EndSplineSet
Validated: 1
AlternateSubs2: "'ssty' Math Script Style lookup 4 subtable" seven.superior.ssty seven.superior.ssty2
AlternateSubs2: "'aalt' Access All Alternates lookup 1 subtable" seven.superior.ssty seven.superior.ssty2
EndChar

StartChar: uni2078
Encoding: 8312 8312 218
Width: 110
GlyphClass: 2
Flags: MW
HStem: 50 10<30 60 10 20> 50 40<30 60 10 20> 60 20<10 20 10 20 30 60 70 80> 80 10<10 20 10 20 30 60 70 80> 90 20<10 20 10 20 30 60 70 80> 90 30<10 70 10 70 30 60 60 60 20 80 20 70> 110 10<10 70 20 70 30 60 30 30 20 80>
VStem: 20 10<50 80 60 80 60 90> 60 10<50 80>
LayerCount: 2
Fore
SplineSet
20 120 m 1x0580
 70 120 l 1x0580
 70 110 l 1
 80 110 l 1x0980
 80 90 l 1
 70 90 l 1x1180
 70 80 l 1
 80 80 l 1
 80 60 l 1
 70 60 l 1x2180
 70 50 l 1x4180
 20 50 l 1
 20 60 l 1
 10 60 l 1x8180
 10 80 l 1
 20 80 l 1x2180
 20 90 l 1
 10 90 l 1x4180
 10 110 l 1
 20 110 l 1x0980
 20 120 l 1x0580
30 110 m 1x0980
 30 90 l 1
 60 90 l 1x4180
 60 110 l 1
 30 110 l 1x0980
30 80 m 1x2180
 30 60 l 1
 60 60 l 1x8180
 60 80 l 1
 30 80 l 1x2180
EndSplineSet
Validated: 1
AlternateSubs2: "'ssty' Math Script Style lookup 4 subtable" eight.superior.ssty eight.superior.ssty2
AlternateSubs2: "'aalt' Access All Alternates lookup 1 subtable" eight.superior.ssty eight.superior.ssty2
EndChar

StartChar: uni2079
Encoding: 8313 8313 219
Width: 110
GlyphClass: 2
Flags: MW
HStem: 50 10<30 60 10 20> 80 10<30 60 10 20> 110 10<10 70 20 70 30 30 30 60 20 80>
VStem: 20 10<50 70 60 70> 60 20<60 80 80 80 90 110 60 110>
CounterMasks: 1 e0
LayerCount: 2
Fore
SplineSet
30 70 m 1
 30 60 l 1
 60 60 l 1
 60 80 l 1
 20 80 l 1
 20 90 l 1
 10 90 l 1
 10 110 l 1
 20 110 l 1
 20 120 l 1
 70 120 l 1
 70 110 l 1
 80 110 l 1
 80 60 l 1
 70 60 l 1
 70 50 l 1
 20 50 l 1
 20 60 l 1
 10 60 l 1
 10 70 l 1
 30 70 l 1
60 90 m 1
 60 110 l 1
 30 110 l 1
 30 90 l 1
 60 90 l 1
EndSplineSet
Validated: 1
AlternateSubs2: "'ssty' Math Script Style lookup 4 subtable" nine.superior.ssty nine.superior.ssty2
AlternateSubs2: "'aalt' Access All Alternates lookup 1 subtable" nine.superior.ssty nine.superior.ssty2
EndChar

StartChar: uni2080
Encoding: 8320 8320 220
Width: 110
GlyphClass: 2
Flags: MW
HStem: -10 10<30 60> -10 70<20 70 20 70> 0 50<10 20 10 20 30 60 10 60 70 80> 0 60<10 70 10 70 30 60 60 60 20 70 20 80> 50 10<10 70 20 70 30 60 30 30 20 80>
VStem: 10 20<0 50 0 50> 60 20<0 50 0 50>
LayerCount: 2
Fore
SplineSet
10 0 m 1x26
 10 50 l 1
 20 50 l 1x26
 20 60 l 1
 70 60 l 1x46
 70 50 l 1
 80 50 l 1
 80 0 l 1
 70 0 l 1x26
 70 -10 l 1
 20 -10 l 1x46
 20 0 l 1
 10 0 l 1x26
30 50 m 1
 30 0 l 1
 60 0 l 1x86
 60 50 l 1
 30 50 l 1
EndSplineSet
Validated: 1
AlternateSubs2: "'ssty' Math Script Style lookup 4 subtable" zero.inferior.ssty zero.inferior.ssty2
AlternateSubs2: "'aalt' Access All Alternates lookup 1 subtable" zero.inferior.ssty zero.inferior.ssty2
EndChar

StartChar: uni2081
Encoding: 8321 8321 221
Width: 110
GlyphClass: 2
Flags: MW
HStem: -10 10<30 40 30 40 60 70> 40 10<30 40 30 40>
VStem: 40 20<0 40 40 40 50 60 0 60>
LayerCount: 2
Fore
SplineSet
30 -10 m 1
 30 0 l 1
 40 0 l 1
 40 40 l 1
 30 40 l 1
 30 50 l 1
 40 50 l 1
 40 60 l 1
 60 60 l 1
 60 0 l 1
 70 0 l 1
 70 -10 l 1
 30 -10 l 1
EndSplineSet
Validated: 1
AlternateSubs2: "'ssty' Math Script Style lookup 4 subtable" one.inferior.ssty one.inferior.ssty2
AlternateSubs2: "'aalt' Access All Alternates lookup 1 subtable" one.inferior.ssty one.inferior.ssty2
EndChar

StartChar: uni2082
Encoding: 8322 8322 222
Width: 110
GlyphClass: 2
Flags: MW
HStem: -10 10<30 70 30 80> 20 10<20 60 30 60 40 40 40 60 30 70> 50 10<10 70 20 70 30 60 30 30 20 80>
VStem: 20 10<0 20> 60 10<30 30 50 50> 70 10<0 10>
CounterMasks: 1 e0
LayerCount: 2
Fore
SplineSet
80 -10 m 1xb4
 10 -10 l 1xb8
 10 10 l 1
 20 10 l 1
 20 20 l 1
 30 20 l 1
 30 30 l 1xf8
 60 30 l 1xe8
 60 50 l 1xa8
 30 50 l 1
 30 40 l 1
 10 40 l 1
 10 50 l 1
 20 50 l 1
 20 60 l 1
 70 60 l 1
 70 50 l 1
 80 50 l 1xb4
 80 30 l 1
 70 30 l 1
 70 20 l 1xe8
 40 20 l 1
 40 10 l 1
 30 10 l 1
 30 0 l 1
 70 0 l 1
 70 10 l 1
 80 10 l 1
 80 -10 l 1xb4
EndSplineSet
Validated: 1
AlternateSubs2: "'ssty' Math Script Style lookup 4 subtable" two.inferior.ssty two.inferior.ssty2
AlternateSubs2: "'aalt' Access All Alternates lookup 1 subtable" two.inferior.ssty two.inferior.ssty2
EndChar

StartChar: uni2083
Encoding: 8323 8323 223
Width: 110
GlyphClass: 2
Flags: MW
HStem: -10 10<30 60 10 20> 0 10<10 20 10 30 10 60> 20 10<30 60 30 60 70 80> 50 10<10 70 20 70 30 60 30 30 20 80>
VStem: 20 10<-10 10 0 10> 60 10<-10 20>
CounterMasks: 1 b0
LayerCount: 2
Fore
SplineSet
20 0 m 1x5c
 10 0 l 1
 10 10 l 1x5c
 30 10 l 1
 30 0 l 1x9c
 60 0 l 1x94
 60 20 l 1
 30 20 l 1
 30 30 l 1
 60 30 l 1xb4
 60 50 l 1x94
 30 50 l 1
 30 40 l 1
 10 40 l 1
 10 50 l 1
 20 50 l 1
 20 60 l 1x9c
 70 60 l 1
 70 50 l 1
 80 50 l 1
 80 30 l 1
 70 30 l 1
 70 20 l 1
 80 20 l 1
 80 0 l 1
 70 0 l 1
 70 -10 l 1x94
 20 -10 l 1
 20 0 l 1x5c
EndSplineSet
Validated: 1
AlternateSubs2: "'ssty' Math Script Style lookup 4 subtable" three.inferior.ssty three.inferior.ssty2
AlternateSubs2: "'aalt' Access All Alternates lookup 1 subtable" three.inferior.ssty three.inferior.ssty2
EndChar

StartChar: uni2084
Encoding: 8324 8324 224
Width: 110
GlyphClass: 2
Flags: MW
HStem: -10 10<40 50 70 80 40 50> -10 30<40 50 70 80 40 40> 10 10<10 20 10 20 30 50 70 80> 30 10<20 40 30 40 30 40 30 40> 40 10<30 50 40 50 40 50 40 50>
VStem: 30 10<30 40> 50 20<0 10 0 10 20 40 40 40 50 60>
CounterMasks: 1 b0
LayerCount: 2
Fore
SplineSet
10 10 m 1xb6
 10 20 l 1
 20 20 l 1
 20 30 l 1
 30 30 l 1x56
 30 40 l 1
 40 40 l 1
 40 50 l 1
 50 50 l 1
 50 60 l 1
 70 60 l 1
 70 20 l 1
 80 20 l 1
 80 10 l 1
 70 10 l 1
 70 0 l 1
 80 0 l 1
 80 -10 l 1
 40 -10 l 1
 40 0 l 1
 50 0 l 1
 50 10 l 1
 10 10 l 1xb6
30 20 m 1
 50 20 l 1
 50 40 l 1
 40 40 l 1
 40 30 l 1
 30 30 l 1
 30 20 l 1
EndSplineSet
Validated: 5
AlternateSubs2: "'ssty' Math Script Style lookup 4 subtable" four.inferior.ssty four.inferior.ssty2
AlternateSubs2: "'aalt' Access All Alternates lookup 1 subtable" four.inferior.ssty four.inferior.ssty2
EndChar

StartChar: uni2085
Encoding: 8325 8325 225
Width: 110
GlyphClass: 2
Flags: MW
HStem: -10 10<30 60 10 20> 0 10<10 20 10 30 10 60> 30 10<30 60 30 30 20 81> 50 10<20 80 20 20>
VStem: 10 10<-10 10 40 50> 60 10<0 0 30 30>
LayerCount: 2
Fore
SplineSet
70 -10 m 1x9c
 20 -10 l 1
 20 0 l 1
 10 0 l 1
 10 10 l 1x5c
 30 10 l 1
 30 0 l 1
 60 0 l 1x9c
 60 30 l 1
 30 30 l 1
 30 20 l 1
 10 20 l 1xbc
 10 60 l 1
 80 60 l 1
 80 50 l 1x9c
 20 50 l 1
 20 40 l 1
 70 40 l 1
 70 30 l 1
 81 30 l 1xbc
 81 0 l 1
 70 0 l 1
 70 -10 l 1x9c
EndSplineSet
Validated: 1
AlternateSubs2: "'ssty' Math Script Style lookup 4 subtable" five.inferior.ssty five.inferior.ssty2
AlternateSubs2: "'aalt' Access All Alternates lookup 1 subtable" five.inferior.ssty five.inferior.ssty2
EndChar

StartChar: uni2086
Encoding: 8326 8326 226
Width: 110
GlyphClass: 2
Flags: MW
HStem: -10 10<30 60 10 20> -10 40<30 70 30 70 20 70> 0 20<10 60 30 60 30 60 30 70 70 80> 0 30<10 70 10 70 30 60 60 60 30 70 30 80> 20 10<30 60 30 70 30 80> 50 10<10 70 20 70 30 30 30 60 20 80>
VStem: 10 20<0 20 30 50> 60 10<-10 20>
LayerCount: 2
Fore
SplineSet
20 0 m 1x87
 10 0 l 1x87
 10 50 l 1
 20 50 l 1
 20 60 l 1
 70 60 l 1
 70 50 l 1
 80 50 l 1
 80 40 l 1
 60 40 l 1
 60 50 l 1
 30 50 l 1
 30 30 l 1
 70 30 l 1x47
 70 20 l 1
 80 20 l 1
 80 0 l 1
 70 0 l 1x27
 70 -10 l 1x47
 20 -10 l 1
 20 0 l 1x87
60 0 m 1
 60 20 l 1
 30 20 l 1x27
 30 0 l 1
 60 0 l 1
EndSplineSet
Validated: 1
AlternateSubs2: "'ssty' Math Script Style lookup 4 subtable" six.inferior.ssty six.inferior.ssty2
AlternateSubs2: "'aalt' Access All Alternates lookup 1 subtable" six.inferior.ssty six.inferior.ssty2
EndChar

StartChar: uni2087
Encoding: 8327 8327 227
Width: 110
GlyphClass: 2
Flags: MW
HStem: -10 70<30 50 30 30> 30 10<50 50 60 60 70 70> 50 10<20 60 20 20>
VStem: 10 10<40 50 40 60> 30 20<-10 20 -10 20> 60 10<20 40 30 50>
CounterMasks: 1 1c
LayerCount: 2
Fore
SplineSet
10 60 m 1x3c
 80 60 l 1x2c
 80 40 l 1
 70 40 l 1
 70 30 l 1
 60 30 l 1
 60 20 l 1
 50 20 l 1x68
 50 -10 l 1
 30 -10 l 1x88
 30 20 l 1
 40 20 l 1
 40 30 l 1
 50 30 l 1
 50 40 l 1
 60 40 l 1
 60 50 l 1
 20 50 l 1
 20 40 l 1
 10 40 l 1
 10 60 l 1x3c
EndSplineSet
Validated: 1
AlternateSubs2: "'ssty' Math Script Style lookup 4 subtable" seven.inferior.ssty seven.inferior.ssty2
AlternateSubs2: "'aalt' Access All Alternates lookup 1 subtable" seven.inferior.ssty seven.inferior.ssty2
EndChar

StartChar: uni2088
Encoding: 8328 8328 228
Width: 110
GlyphClass: 2
Flags: MW
HStem: -10 10<30 60 10 20> -10 40<30 60 10 20> 0 20<10 20 10 20 30 60 70 80> 50 10<10 70 20 70 30 60 30 30 20 80>
VStem: 20 10<-10 20 0 20 0 30> 60 10<-10 20>
LayerCount: 2
Fore
SplineSet
20 60 m 1x5c
 70 60 l 1
 70 50 l 1
 80 50 l 1
 80 30 l 1
 70 30 l 1x5c
 70 20 l 1
 80 20 l 1x3c
 80 0 l 1
 70 0 l 1
 70 -10 l 1
 20 -10 l 1x9c
 20 0 l 1
 10 0 l 1
 10 20 l 1
 20 20 l 1x3c
 20 30 l 1
 10 30 l 1
 10 50 l 1
 20 50 l 1
 20 60 l 1x5c
30 50 m 1
 30 30 l 1
 60 30 l 1
 60 50 l 1
 30 50 l 1
30 20 m 1x3c
 30 0 l 1
 60 0 l 1
 60 20 l 1
 30 20 l 1x3c
EndSplineSet
Validated: 1
AlternateSubs2: "'ssty' Math Script Style lookup 4 subtable" eight.inferior.ssty eight.inferior.ssty2
AlternateSubs2: "'aalt' Access All Alternates lookup 1 subtable" eight.inferior.ssty eight.inferior.ssty2
EndChar

StartChar: uni2089
Encoding: 8329 8329 229
Width: 110
GlyphClass: 2
Flags: MW
HStem: -10 10<30 60 10 20> -10 40<30 60 10 20> 0 10<10 20 10 30 10 60> 50 10<10 70 20 70 30 30 30 60 20 80>
VStem: 20 10<-10 10 0 10> 60 20<0 20 20 20 30 50 0 50>
LayerCount: 2
Fore
SplineSet
30 10 m 1x3c
 30 0 l 1
 60 0 l 1x9c
 60 20 l 1
 20 20 l 1
 20 30 l 1
 10 30 l 1x5c
 10 50 l 1
 20 50 l 1
 20 60 l 1
 70 60 l 1
 70 50 l 1
 80 50 l 1
 80 0 l 1
 70 0 l 1
 70 -10 l 1
 20 -10 l 1x9c
 20 0 l 1
 10 0 l 1
 10 10 l 1
 30 10 l 1x3c
60 30 m 1x5c
 60 50 l 1
 30 50 l 1
 30 30 l 1
 60 30 l 1x5c
EndSplineSet
Validated: 1
AlternateSubs2: "'ssty' Math Script Style lookup 4 subtable" nine.inferior.ssty nine.inferior.ssty2
AlternateSubs2: "'aalt' Access All Alternates lookup 1 subtable" nine.inferior.ssty nine.inferior.ssty2
EndChar

StartChar: uni208B
Encoding: 8331 8331 230
Width: 110
GlyphClass: 2
Flags: MW
HStem: 20 10<20 70 20 70>
VStem: 20 50<20 30 20 30>
LayerCount: 2
Fore
SplineSet
20 20 m 1
 20 30 l 1
 70 30 l 1
 70 20 l 1
 20 20 l 1
EndSplineSet
Validated: 1
EndChar

StartChar: uni208D
Encoding: 8333 8333 231
Width: 110
GlyphClass: 2
Flags: MW
HStem: -10 10<60 70 40 50> 0 10<30 50 30 40> 50 10<40 70 50 70 60 60 60 70>
VStem: 40 10<-10 10>
LayerCount: 2
Fore
SplineSet
70 -10 m 1xb0
 50 -10 l 1
 50 0 l 1
 40 0 l 1
 40 10 l 1
 30 10 l 1x70
 30 40 l 1
 40 40 l 1
 40 50 l 1
 50 50 l 1
 50 60 l 1
 70 60 l 1
 70 50 l 1
 60 50 l 1
 60 40 l 1
 50 40 l 1
 50 10 l 1
 60 10 l 1
 60 0 l 1
 70 0 l 1
 70 -10 l 1xb0
EndSplineSet
Validated: 1
EndChar

